<?xml version="1.0" encoding="UTF-8" standalone="no"?>
<!-- Created with Inkscape (http://www.inkscape.org/) -->

<svg
   width="1098"
   height="400"
   viewBox="0 0 290.5125 105.83333"
   version="1.1"
   id="svg5"
   inkscape:version="1.2.1 (9c6d41e410, 2022-07-14)"
   sodipodi:docname="03.svg"
   xml:space="preserve"
   xmlns:inkscape="http://www.inkscape.org/namespaces/inkscape"
   xmlns:sodipodi="http://sodipodi.sourceforge.net/DTD/sodipodi-0.dtd"
   xmlns="http://www.w3.org/2000/svg"
   xmlns:svg="http://www.w3.org/2000/svg"><sodipodi:namedview
     id="namedview7"
     pagecolor="#9e9e9e"
     bordercolor="#000000"
     borderopacity="0.25"
     inkscape:showpageshadow="false"
     inkscape:pageopacity="0"
     inkscape:pagecheckerboard="0"
     inkscape:deskcolor="#d1d1d1"
     inkscape:document-units="px"
     showgrid="false"
     inkscape:zoom="0.4204826"
     inkscape:cx="539.85587"
     inkscape:cy="325.8161"
     inkscape:window-width="1366"
     inkscape:window-height="705"
     inkscape:window-x="-8"
     inkscape:window-y="-8"
     inkscape:window-maximized="1"
     inkscape:current-layer="layer1"
     showborder="false"
     borderlayer="true"
     inkscape:lockguides="true"
     showguides="false"><sodipodi:guide
       position="84.160488,34.100281"
       orientation="0,-1"
       id="guide4194"
       inkscape:locked="true" /><sodipodi:guide
       position="169.9663,67.791136"
       orientation="1,0"
       id="guide35137"
       inkscape:locked="true" /><sodipodi:guide
       position="170.90313,67.839404"
       orientation="1,0"
       id="guide35191"
       inkscape:locked="true" /></sodipodi:namedview><defs
     id="defs2"><rect
       x="332.95075"
       y="317.49233"
       width="322.24877"
       height="142.69318"
       id="rect3859" /><rect
       x="274.68437"
       y="-30.916856"
       width="564.82718"
       height="409.05379"
       id="rect54743" /><rect
       x="364.07837"
       y="57.596693"
       width="152.61022"
       height="35.314761"
       id="rect38797" /><rect
       x="19.025757"
       y="16.647538"
       width="744.38276"
       height="268.73882"
       id="rect1183" /><rect
       x="-312.78788"
       y="195.07201"
       width="739.92832"
       height="548.21962"
       id="rect419" /><clipPath
       clipPathUnits="userSpaceOnUse"
       id="clipPath4206"><rect
         style="fill:#ffffff;fill-opacity:1;stroke:none;stroke-width:3.50586"
         id="rect4208"
         width="290.51251"
         height="92.604164"
         x="-140.27725"
         y="7.2302418"
         transform="rotate(-90)" /></clipPath><rect
       x="19.025757"
       y="16.647538"
       width="744.38276"
       height="268.73882"
       id="rect2847" /><rect
       x="19.025757"
       y="16.647538"
       width="744.38276"
       height="268.73882"
       id="rect3633" /><rect
       x="19.025757"
       y="16.647538"
       width="744.38276"
       height="268.73882"
       id="rect3689" /><rect
       x="19.025757"
       y="16.647538"
       width="744.38276"
       height="268.73882"
       id="rect4166" /><rect
       x="19.025757"
       y="16.647538"
       width="744.38276"
       height="268.73882"
       id="rect4172" /><rect
       x="19.025757"
       y="16.647538"
       width="744.38276"
       height="268.73882"
       id="rect4192" /><rect
       x="19.025757"
       y="16.647537"
       width="744.38275"
       height="268.73883"
       id="rect1183-6" /><rect
       x="19.025757"
       y="16.647537"
       width="744.38275"
       height="268.73883"
       id="rect2847-4" /><rect
       x="19.025757"
       y="16.647537"
       width="744.38275"
       height="268.73883"
       id="rect3633-4" /><rect
       x="19.025757"
       y="16.647537"
       width="744.38275"
       height="268.73883"
       id="rect3689-4" /><rect
       x="19.025757"
       y="16.647537"
       width="744.38275"
       height="268.73883"
       id="rect4166-5" /><rect
       x="19.025757"
       y="16.647537"
       width="744.38275"
       height="268.73883"
       id="rect4172-8" /><rect
       x="19.025757"
       y="16.647537"
       width="744.38275"
       height="268.73883"
       id="rect4192-3" /><clipPath
       clipPathUnits="userSpaceOnUse"
       id="clipPath4289"><path
         d="M 0,792 H 612 V 0 H 0 Z"
         id="path4287" /></clipPath><rect
       x="-4964"
       y="1352"
       width="932"
       height="668"
       id="rect376" /><rect
       x="-4964"
       y="1352"
       width="932"
       height="668"
       id="rect1096" /><rect
       x="-4964"
       y="1352"
       width="932"
       height="668"
       id="rect1102" /><rect
       x="-4964"
       y="1352"
       width="932"
       height="668"
       id="rect1116" /><rect
       x="-4964"
       y="1352"
       width="932"
       height="668"
       id="rect1118" /><rect
       x="-4964"
       y="1352"
       width="932"
       height="668"
       id="rect1120" /><rect
       x="-4964"
       y="1352"
       width="932"
       height="668"
       id="rect1134" /><rect
       x="-4964"
       y="1352"
       width="932"
       height="668"
       id="rect1136" /><rect
       x="-4964"
       y="1352"
       width="932"
       height="668"
       id="rect1138" /><rect
       x="-4964"
       y="1352"
       width="932"
       height="668"
       id="rect1152" /><rect
       x="-95.854347"
       y="457.41022"
       width="650.8006"
       height="228.70512"
       id="rect23706" /><rect
       x="-95.854347"
       y="457.41022"
       width="650.8006"
       height="228.70512"
       id="rect23912" /><rect
       x="-95.854347"
       y="457.41022"
       width="650.8006"
       height="228.70512"
       id="rect23918" /><rect
       x="-95.854347"
       y="457.41022"
       width="650.8006"
       height="228.70512"
       id="rect23924" /><rect
       x="-95.854347"
       y="457.41022"
       width="650.8006"
       height="228.70512"
       id="rect23930" /><rect
       x="-95.854347"
       y="457.41022"
       width="650.8006"
       height="228.70512"
       id="rect23936" /><rect
       x="-95.854347"
       y="457.41022"
       width="650.8006"
       height="228.70512"
       id="rect23942" /><rect
       x="-95.854347"
       y="457.41022"
       width="650.8006"
       height="228.70512"
       id="rect23948" /><rect
       x="-95.854347"
       y="457.41022"
       width="650.8006"
       height="228.70512"
       id="rect24501" /><rect
       x="-95.854347"
       y="457.41022"
       width="650.8006"
       height="228.70512"
       id="rect24503" /><rect
       x="-95.854347"
       y="457.41022"
       width="650.8006"
       height="228.70512"
       id="rect24505" /><rect
       x="-95.854347"
       y="457.41022"
       width="650.8006"
       height="228.70512"
       id="rect24507" /><rect
       x="-95.854347"
       y="457.41022"
       width="650.8006"
       height="228.70512"
       id="rect24509" /><rect
       x="-95.854347"
       y="457.41022"
       width="650.8006"
       height="228.70512"
       id="rect24511" /><rect
       x="-95.854347"
       y="457.41022"
       width="650.8006"
       height="228.70512"
       id="rect24513" /><rect
       x="-95.854347"
       y="457.41022"
       width="650.8006"
       height="228.70512"
       id="rect24515" /><clipPath
       clipPathUnits="userSpaceOnUse"
       id="clipPath48913"><path
         style="fill:none;fill-opacity:1;stroke:#000000;stroke-width:0.2;stroke-opacity:1"
         d="m -176.64037,159.84396 c 0,0 16.57394,0.22246 15.7953,-9.56617 l -0.55617,-97.552643 c -0.77864,-5.228021 -10.23357,-9.566166 -10.23357,-9.566166 -2.16308,-4.660038 3.80985,-4.943925 2.66962,-8.453821 l -0.11123,-14.849804 c -1.50167,-8.565056 -28.26812,-6.955992 -28.26812,-6.955992 -31.36813,-0.222469 -28.00106,7.708157 -28.00106,7.708157 l -0.47747,12.823432 c -0.27854,1.79623 0.0797,2.108978 1.10144,3.275743 1.90137,2.174409 2.56293,3.398578 1.88201,6.178772 -0.21357,1.443794 -0.78006,1.392269 -1.94625,1.826083 -7.68009,2.871705 -8.18918,9.088236 -8.18918,9.088236 l -0.61733,93.252203 c -0.3337,14.46048 13.57061,13.23691 13.57061,13.23691 0,0 40.60054,0.6674 43.3814,-0.44494 z"
         id="path48915"
         sodipodi:nodetypes="cccccccccccccccc" /></clipPath><rect
       x="274.68437"
       y="-30.916856"
       width="564.82718"
       height="409.05379"
       id="rect55284" /><rect
       x="274.68437"
       y="-30.916856"
       width="564.82718"
       height="409.05379"
       id="rect55290" /><clipPath
       clipPathUnits="userSpaceOnUse"
       id="clipPath1891"><rect
         style="fill:#000000;fill-opacity:0.308129;stroke-width:4.24392"
         id="rect1893"
         width="285.75"
         height="357.1875"
         x="-344.11035"
         y="-55.986206" /></clipPath><clipPath
       clipPathUnits="userSpaceOnUse"
       id="clipPath1465"><path
         id="path1467"
         style="fill:#f979b3;stroke-width:0.242802"
         d="m -62.181872,-52.99891 v 351.2129 H -190.12828 v -351.2129 z" /></clipPath><clipPath
       clipPathUnits="userSpaceOnUse"
       id="clipPath1565"><path
         id="path1567"
         style="fill:#f979b3;stroke-width:0.200838"
         d="M 8.5058595e-6,-1.4155273e-5 V 290.5125 H -105.83332 V -1.4155273e-5 Z" /></clipPath><rect
       x="-1308.1475"
       y="-1343.5029"
       width="897.14172"
       height="583.3631"
       id="rect4907" /><rect
       x="-1308.1475"
       y="-1343.5029"
       width="897.14172"
       height="583.3631"
       id="rect12997" /><rect
       x="-1308.1475"
       y="-1343.5029"
       width="897.14172"
       height="583.3631"
       id="rect15208" /><filter
       inkscape:collect="always"
       style="color-interpolation-filters:sRGB"
       id="filter15210"
       x="-0.071522496"
       y="-0.39428308"
       width="1.1430719"
       height="1.7885662"><feGaussianBlur
         inkscape:collect="always"
         stdDeviation="4.391636"
         id="feGaussianBlur15212" /></filter><rect
       x="-1308.1475"
       y="-1343.5029"
       width="897.14172"
       height="583.3631"
       id="rect548" /><filter
       inkscape:collect="always"
       style="color-interpolation-filters:sRGB"
       id="filter1106"
       x="-0.025813248"
       y="-0.14240876"
       width="1.0516534"
       height="1.2848175"><feGaussianBlur
         inkscape:collect="always"
         stdDeviation="1.4531022"
         id="feGaussianBlur1104" /></filter><rect
       x="-1308.1475"
       y="-1343.5029"
       width="897.14172"
       height="583.3631"
       id="rect1112" /><filter
       inkscape:collect="always"
       style="color-interpolation-filters:sRGB"
       id="filter14792"
       x="-0.093404064"
       y="-2.437401"
       width="1.1868081"
       height="5.8748021"><feGaussianBlur
         inkscape:collect="always"
         stdDeviation="2.2042331"
         id="feGaussianBlur14794" /></filter><clipPath
       clipPathUnits="userSpaceOnUse"
       id="clipPath6955"><path
         style="fill:none;fill-opacity:1;stroke:#ce9901;stroke-width:0.415998;stroke-dasharray:none;stroke-opacity:1"
         d="m -350.79752,-48.736177 -0.2067,27.078452 -1.13688,22.01416067 -1.757,41.13443933 -1.13688,23.357749 -0.16933,11.553158 -2.35742,0.260721 c -34.72665,5.504828 -67.29344,0.09124 -67.29344,0.09124 l -2.58915,0.05169 -1.30614,-32.937433 -1.30615,-29.206124 -1.03351,-26.059168 -1.3383,-33.767899 -0.0516,-4.18579 z"
         id="path6957"
         sodipodi:nodetypes="ccccccccccccccc" /></clipPath><clipPath
       clipPathUnits="userSpaceOnUse"
       id="clipPath1816"><path
         style="fill:none;stroke:#ffbd00;stroke-width:0.2;stroke-opacity:1"
         d="m -264.15312,18.142485 0.73081,-0.03654 0.0183,-15.1461428 c -7.66149,-5.3388637 -33.3089,-3.9880312 -47.71809,-2.84731561 -8.29106,1.25769681 -6.34399,5.00322001 -6.34399,5.00322001 l 0.0731,12.6431014 0.49329,0.840437 -0.63944,1.224116 0.10962,69.70149 c 0.1774,6.512901 2.45565,5.93676 9.02557,6.833121 0,0 15.95236,1.886442 31.42858,0.383196 4.11435,-0.30144 8.9185,-0.509818 11.59275,-1.803691 1.51383,-0.779698 2.23463,-2.295417 2.06997,-5.631871 l 0.14616,-69.500516 z"
         id="path1818"
         sodipodi:nodetypes="ccccccccccccccc" /></clipPath><clipPath
       clipPathUnits="userSpaceOnUse"
       id="clipPath7817"><path
         style="fill:none;fill-opacity:1;stroke:#ce9901;stroke-width:0.415999;stroke-dasharray:none;stroke-opacity:1"
         d="m 32.886679,0.7308151 c -6.588745,-0.25838214 -1.900118,1.3885487 -1.900118,1.3885487 0,0 3.404557,0.5429716 3.507912,7.2350694 L 34.640636,150.91332 c -0.103354,11.47217 -26.7295372,15.4323 -26.7295372,15.4323 -68.9889468,2.92326 -160.2532188,0 -160.2532188,0 -34.20215,-2.63093 -27.31211,-25.26582 -28.18909,-28.18908 l 0.73082,-129.7521663 c 0,0 -0.63786,-4.6772166 3.82011,-6.3580914 2.81364,-1.13276344 -2.19244,-1.16930417 -2.19244,-1.16930417 0,0 -0.73082,-0.95005966 0.65773,-2.37514913 0,0 -2.19244,-1.9732007 0.21925,-2.8136383 -1.61836,-1.9061001 -1.56069,-2.8660053 -0.0731,-4.7502982 l 0.14617,-34.8598825 c 0.5034,-1.234617 1.0273,-1.147603 2.26552,-1.315466 0,0 131.638223,-2.923259 202.965778,0 4.535421,-0.177387 3.757588,1.696228 3.808505,3.808506 v 32.3855742 l 0.86687,3.2352046 -1.678144,1.4156743 1.188559,2.6871747 z"
         id="path7819"
         sodipodi:nodetypes="cccccccccccccccccccccc" /></clipPath><clipPath
       clipPathUnits="userSpaceOnUse"
       id="clipPath9635"><path
         style="fill:none;fill-opacity:1;stroke:#ce9901;stroke-width:0.415999;stroke-dasharray:none;stroke-opacity:1"
         d="m -40.514323,341.47786 c 28.525392,45.88868 5.787761,133.11849 5.787761,133.11849 -11.16211,49.19597 2.842249,99.66169 4.909306,104.20922 16.536459,64.49219 -28.355628,91.49805 -28.355628,91.49805 -46.302086,7.85482 -125.566936,2.48047 -133.008346,0 -7.85482,-9.9219 -45.56844,-29.43262 -25.72469,-102.60645 0,0 15.75118,-56.62753 -4.09257,-134.76229 0,0 -9.4784,-57.35056 12.019,-90.83689 v -43.30488 c 0,0 -1.65364,-11.3688 11.78223,-14.88278 0,0 71.31347,-11.98894 146.140945,0 0,0 14.159341,0.82679 11.885578,17.15656 z"
         id="path9637"
         sodipodi:nodetypes="ccccccccccccc" /></clipPath><rect
       x="332.95075"
       y="317.49233"
       width="322.24877"
       height="142.69318"
       id="rect4924" /><clipPath
       clipPathUnits="userSpaceOnUse"
       id="clipPath6909"><path
         d="M 0,792 H 612 V 0 H 0 Z"
         id="path6907" /></clipPath><clipPath
       clipPathUnits="userSpaceOnUse"
       id="clipPath6955-4"><path
         style="fill:none;fill-opacity:1;stroke:#ce9901;stroke-width:0.415998;stroke-dasharray:none;stroke-opacity:1"
         d="m -350.79752,-48.736177 -0.2067,27.078452 -1.13688,22.01416067 -1.757,41.13443933 -1.13688,23.357749 -0.16933,11.553158 -2.35742,0.260721 c -34.72665,5.504828 -67.29344,0.09124 -67.29344,0.09124 l -2.58915,0.05169 -1.30614,-32.937433 -1.30615,-29.206124 -1.03351,-26.059168 -1.3383,-33.767899 -0.0516,-4.18579 z"
         id="path6957-4"
         sodipodi:nodetypes="ccccccccccccccc" /></clipPath><clipPath
       clipPathUnits="userSpaceOnUse"
       id="clipPath1816-9"><path
         style="fill:none;stroke:#ffbd00;stroke-width:0.2;stroke-opacity:1"
         d="m -264.15312,18.142485 0.73081,-0.03654 0.0183,-15.1461428 c -7.66149,-5.3388637 -33.3089,-3.9880312 -47.71809,-2.84731561 -8.29106,1.25769681 -6.34399,5.00322001 -6.34399,5.00322001 l 0.0731,12.6431014 0.49329,0.840437 -0.63944,1.224116 0.10962,69.70149 c 0.1774,6.512901 2.45565,5.93676 9.02557,6.833121 0,0 15.95236,1.886442 31.42858,0.383196 4.11435,-0.30144 8.9185,-0.509818 11.59275,-1.803691 1.51383,-0.779698 2.23463,-2.295417 2.06997,-5.631871 l 0.14616,-69.500516 z"
         id="path1818-0"
         sodipodi:nodetypes="ccccccccccccccc" /></clipPath><clipPath
       clipPathUnits="userSpaceOnUse"
       id="clipPath7817-6"><path
         style="fill:none;fill-opacity:1;stroke:#ce9901;stroke-width:0.415999;stroke-dasharray:none;stroke-opacity:1"
         d="m 32.886679,0.7308151 c -6.588745,-0.25838214 -1.900118,1.3885487 -1.900118,1.3885487 0,0 3.404557,0.5429716 3.507912,7.2350694 L 34.640636,150.91332 c -0.103354,11.47217 -26.7295372,15.4323 -26.7295372,15.4323 -68.9889468,2.92326 -160.2532188,0 -160.2532188,0 -34.20215,-2.63093 -27.31211,-25.26582 -28.18909,-28.18908 l 0.73082,-129.7521663 c 0,0 -0.63786,-4.6772166 3.82011,-6.3580914 2.81364,-1.13276344 -2.19244,-1.16930417 -2.19244,-1.16930417 0,0 -0.73082,-0.95005966 0.65773,-2.37514913 0,0 -2.19244,-1.9732007 0.21925,-2.8136383 -1.61836,-1.9061001 -1.56069,-2.8660053 -0.0731,-4.7502982 l 0.14617,-34.8598825 c 0.5034,-1.234617 1.0273,-1.147603 2.26552,-1.315466 0,0 131.638223,-2.923259 202.965778,0 4.535421,-0.177387 3.757588,1.696228 3.808505,3.808506 v 32.3855742 l 0.86687,3.2352046 -1.678144,1.4156743 1.188559,2.6871747 z"
         id="path7819-5"
         sodipodi:nodetypes="cccccccccccccccccccccc" /></clipPath><clipPath
       clipPathUnits="userSpaceOnUse"
       id="clipPath9635-8"><path
         style="fill:none;fill-opacity:1;stroke:#ce9901;stroke-width:0.415999;stroke-dasharray:none;stroke-opacity:1"
         d="m -40.514323,341.47786 c 28.525392,45.88868 5.787761,133.11849 5.787761,133.11849 -11.16211,49.19597 2.842249,99.66169 4.909306,104.20922 16.536459,64.49219 -28.355628,91.49805 -28.355628,91.49805 -46.302086,7.85482 -125.566936,2.48047 -133.008346,0 -7.85482,-9.9219 -45.56844,-29.43262 -25.72469,-102.60645 0,0 15.75118,-56.62753 -4.09257,-134.76229 0,0 -9.4784,-57.35056 12.019,-90.83689 v -43.30488 c 0,0 -1.65364,-11.3688 11.78223,-14.88278 0,0 71.31347,-11.98894 146.140945,0 0,0 14.159341,0.82679 11.885578,17.15656 z"
         id="path9637-5"
         sodipodi:nodetypes="ccccccccccccc" /></clipPath><filter
       inkscape:collect="always"
       style="color-interpolation-filters:sRGB"
       id="filter3793-5"
       x="-0.0070234629"
       y="-0.057044061"
       width="1.0140469"
       height="1.1140881"><feGaussianBlur
         inkscape:collect="always"
         stdDeviation="0.16892462"
         id="feGaussianBlur3795-2" /></filter><filter
       inkscape:collect="always"
       style="color-interpolation-filters:sRGB"
       id="filter3801-5"
       x="-0.022564328"
       y="-0.18350681"
       width="1.0451287"
       height="1.3670136"><feGaussianBlur
         inkscape:collect="always"
         stdDeviation="0.72867484"
         id="feGaussianBlur3799-7" /></filter><filter
       inkscape:collect="always"
       style="color-interpolation-filters:sRGB"
       id="filter15154"
       x="-0.0078621606"
       y="-0.086322153"
       width="1.0157243"
       height="1.1726443"><feGaussianBlur
         inkscape:collect="always"
         stdDeviation="0.63244491"
         id="feGaussianBlur15156" /></filter></defs><g
     inkscape:label="Camada 1"
     inkscape:groupmode="layer"
     id="layer1"><path
       id="rect3713"
       clip-path="url(#clipPath1565)"
       style="fill:#000000;fill-opacity:1;stroke-width:4.24392"
       transform="rotate(-90,7.465701e-6,2.465701e-6)"
       d="M -195.79166,-33.337509 H 89.958344 V 323.84999 H -195.79166 Z" /><g
       id="g760"
       transform="matrix(1.2636899,0,0,1.2636899,-38.302598,-24.163709)"><g
         id="g1126"
         transform="matrix(0.61130116,0,0,0.61130116,281.61906,275.808)"><g
           aria-label="YELLOW  "
           transform="matrix(0.87772735,0,0,0.87772735,534.82774,797.95302)"
           id="text4905"
           style="font-weight:bold;font-size:40px;line-height:0.85;font-family:Eurosoft-Bold;-inkscape-font-specification:'Eurosoft-Bold Bold';text-align:center;white-space:pre;shape-inside:url(#rect4907);display:inline;fill:none;stroke:#ffbd00"><path
             d="m -930.11718,-1313.9439 q -0.88,0 -1.44,-0.56 -0.56,-0.56 -0.56,-1.44 v -6 q 0,-0.8 -0.68,-1.12 -1.28,-0.6 -2.08,-1.68 -0.8,-1.08 -1.68,-3.32 l -4.36,-11.12 q -0.4,-1 0,-1.68 0.4,-0.68 1.32,-0.68 h 4 q 1.04,0 1.44,0.44 0.44,0.44 0.8,1.6 l 2.72,8.4 q 0.36,1.2 0.76,1.64 0.44,0.44 1.2,0.44 h 0.44 q 0.76,0 1.16,-0.44 0.44,-0.44 0.8,-1.64 l 2.72,-8.4 q 0.36,-1.16 0.76,-1.6 0.44,-0.44 1.48,-0.44 h 4 q 0.92,0 1.32,0.68 0.4,0.68 0,1.68 l -4.36,11.12 q -0.88,2.24 -1.68,3.32 -0.8,1.08 -2.08,1.68 -0.68,0.32 -0.68,1.12 v 6 q 0,0.88 -0.56,1.44 -0.56,0.56 -1.44,0.56 z"
             id="path7703" /><path
             d="m -914.99722,-1324.8239 v -5.88 q 0,-4.32 1.04,-6.72 1.04,-2.4 2.96,-3.24 1.92,-0.88 5.2,-0.88 h 10.04 q 0.88,0 1.44,0.56 0.56,0.56 0.56,1.44 v 2.48 q 0,0.88 -0.56,1.44 -0.56,0.56 -1.44,0.56 h -7.76 q -2.64,0 -3.4,0.56 -0.76,0.56 -0.76,2.56 v 0.12 q 0,0.4 0.12,0.56 0.16,0.12 0.56,0.12 h 9.64 q 0.88,0 1.44,0.56 0.56,0.56 0.56,1.44 v 2.36 q 0,0.88 -0.56,1.44 -0.56,0.56 -1.44,0.56 h -9.64 q -0.68,0 -0.68,0.68 v 0.12 q 0,2.28 0.72,2.92 0.76,0.64 3.44,0.64 h 7.76 q 0.88,0 1.44,0.56 0.56,0.56 0.56,1.44 v 2.48 q 0,0.88 -0.56,1.44 -0.56,0.56 -1.44,0.56 h -10.04 q -4.92,0 -7.08,-2.28 -2.12,-2.28 -2.12,-8.6 z"
             id="path7705" /><path
             d="m -873.7172,-1313.9439 h -8.44 q -4.92,0 -7.08,-2.32 -2.12,-2.36 -2.12,-8.68 v -14.6 q 0,-0.88 0.56,-1.44 0.56,-0.56 1.44,-0.56 h 3.32 q 0.88,0 1.44,0.56 0.56,0.56 0.56,1.44 v 15.64 q 0,2.2 0.72,2.84 0.72,0.64 3.4,0.64 h 6.2 q 0.88,0 1.44,0.56 0.56,0.56 0.56,1.44 v 2.48 q 0,0.88 -0.56,1.44 -0.56,0.56 -1.44,0.56 z"
             id="path7707" /><path
             d="m -852.47719,-1313.9439 h -8.44 q -4.92,0 -7.08,-2.32 -2.12,-2.36 -2.12,-8.68 v -14.6 q 0,-0.88 0.56,-1.44 0.56,-0.56 1.44,-0.56 h 3.32 q 0.88,0 1.44,0.56 0.56,0.56 0.56,1.44 v 15.64 q 0,2.2 0.72,2.84 0.72,0.64 3.4,0.64 h 6.2 q 0.88,0 1.44,0.56 0.56,0.56 0.56,1.44 v 2.48 q 0,0.88 -0.56,1.44 -0.56,0.56 -1.44,0.56 z"
             id="path7709" /><path
             d="m -838.07719,-1341.7439 q -6,0 -8.6,2.72 -2.6,2.72 -2.6,9.88 v 2.8 q 0,7.16 2.6,9.88 2.6,2.72 8.6,2.72 h 3.2 q 6,0 8.6,-2.72 2.6,-2.72 2.6,-9.88 v -2.8 q 0,-7.16 -2.6,-9.88 -2.6,-2.72 -8.6,-2.72 z m 7.08,12.72 v 2.56 q 0,3.8 -0.8,5.04 -0.76,1.2 -3.16,1.2 h -3.04 q -2.4,0 -3.2,-1.2 -0.76,-1.24 -0.76,-5.04 v -2.56 q 0,-3.8 0.76,-5 0.8,-1.24 3.2,-1.24 h 3.04 q 2.4,0 3.16,1.24 0.8,1.2 0.8,5 z"
             id="path7711" /><path
             d="m -802.63716,-1318.9039 -0.8,-11.84 q -0.04,-0.8 -0.2,-1.04 -0.16,-0.28 -0.48,-0.28 h -0.08 q -0.32,0 -0.48,0.28 -0.16,0.24 -0.2,1.04 l -0.8,11.84 q -0.2,3.08 -1.88,4.12 -1.64,1.04 -5.32,1.04 h -0.08 q -3.72,0 -5.24,-1.16 -1.48,-1.2 -1.72,-4.28 l -1.56,-20.08 q -0.08,-1.08 0.48,-1.68 0.56,-0.6 1.48,-0.6 h 3.28 q 0.88,0 1.4,0.56 0.52,0.52 0.6,1.44 l 1,17.2 q 0.08,1.44 0.16,1.8 0.12,0.32 0.52,0.32 h 0.04 q 0.4,0 0.52,-0.36 0.12,-0.36 0.2,-1.76 l 0.88,-11.68 q 0.2,-2.6 1.8,-3.56 1.64,-0.96 4.88,-0.96 h 0.16 q 3.24,0 4.84,0.96 1.64,0.96 1.84,3.56 l 0.88,11.68 q 0.08,1.4 0.2,1.76 0.12,0.36 0.52,0.36 h 0.04 q 0.4,0 0.48,-0.32 0.12,-0.32 0.2,-1.8 l 1,-17.2 q 0.08,-0.92 0.6,-1.44 0.52,-0.56 1.4,-0.56 h 3.28 q 0.92,0 1.48,0.6 0.56,0.6 0.48,1.68 l -1.56,20.08 q -0.24,3.08 -1.76,4.28 -1.48,1.16 -5.2,1.16 h -0.08 q -3.64,0 -5.32,-1.04 -1.68,-1.04 -1.88,-4.12 z"
             id="path7713" /></g><g
           aria-label="FRIDAY"
           transform="matrix(0.97174896,0,0,0.97174896,613.75899,942.09279)"
           id="text12995"
           style="font-weight:bold;font-size:40px;line-height:0.85;font-family:Eurosoft-Bold;-inkscape-font-specification:'Eurosoft-Bold Bold';text-align:center;white-space:pre;shape-inside:url(#rect12997);display:inline;fill:#ffffff"><path
             d="m -925.05716,-1313.9439 q -0.88,0 -1.44,-0.56 -0.56,-0.56 -0.56,-1.44 v -15 q 0,-3.24 0.52,-5.32 0.56,-2.12 1.76,-3.28 1.2,-1.16 2.8,-1.56 1.64,-0.44 4.12,-0.44 h 10.04 q 0.88,0 1.44,0.56 0.56,0.56 0.56,1.44 v 2.48 q 0,0.88 -0.56,1.44 -0.56,0.56 -1.44,0.56 h -7.76 q -2.6,0 -3.4,0.64 -0.76,0.6 -0.76,2.52 v 1.28 q 0,0.68 0.68,0.68 h 9.24 q 0.88,0 1.44,0.56 0.56,0.56 0.56,1.44 v 2.48 q 0,0.88 -0.56,1.44 -0.56,0.56 -1.44,0.56 h -9.24 q -0.68,0 -0.68,0.68 v 6.84 q 0,0.88 -0.56,1.44 -0.56,0.56 -1.44,0.56 z"
             id="path7716" /><path
             d="m -898.41718,-1313.9439 h -3.2 q -0.88,0 -1.44,-0.56 -0.56,-0.56 -0.56,-1.44 v -23.6 q 0,-0.88 0.56,-1.44 0.56,-0.56 1.44,-0.56 h 9.88 q 6.32,0 9.16,2.08 2.84,2.08 2.84,7.12 v 0.64 q 0,2.84 -1.04,4.56 -1.04,1.68 -3.36,2.88 -0.32,0.16 -0.44,0.32 -0.12,0.16 -0.08,0.36 0.04,0.2 0.28,0.56 l 4.32,6.32 q 0.68,0.92 0.32,1.84 -0.36,0.92 -1.48,0.92 h -3.52 q -1.12,0 -1.8,-0.32 -0.68,-0.32 -0.92,-0.64 -0.24,-0.32 -0.84,-1.28 l -3.6,-5.88 q -0.28,-0.52 -0.52,-0.64 -0.24,-0.16 -0.76,-0.16 h -2.56 q -0.4,0 -0.56,0.16 -0.12,0.12 -0.12,0.52 v 6.24 q 0,0.88 -0.56,1.44 -0.56,0.56 -1.44,0.56 z m 2.68,-21.12 q -0.4,0 -0.56,0.16 -0.12,0.12 -0.12,0.52 v 4.72 q 0,0.4 0.12,0.56 0.16,0.12 0.56,0.12 h 3.88 q 2.84,0 3.8,-0.6 1,-0.64 1,-2.36 v -0.16 q 0,-1.72 -1,-2.32 -0.96,-0.64 -3.8,-0.64 z"
             id="path7718" /><path
             d="m -871.53716,-1313.9439 h -3.32 q -0.88,0 -1.44,-0.56 -0.56,-0.56 -0.56,-1.44 v -23.6 q 0,-0.88 0.56,-1.44 0.56,-0.56 1.44,-0.56 h 3.32 q 0.88,0 1.44,0.56 0.56,0.56 0.56,1.44 v 23.6 q 0,0.88 -0.56,1.44 -0.56,0.56 -1.44,0.56 z"
             id="path7720" /><path
             d="m -865.93713,-1315.9439 v -23.6 q 0,-0.88 0.56,-1.44 0.56,-0.56 1.44,-0.56 h 10.88 q 6,0 8.6,2.72 2.6,2.72 2.6,9.88 v 2.4 q 0,7.16 -2.6,9.88 -2.6,2.72 -8.6,2.72 h -10.88 q -0.88,0 -1.44,-0.56 -0.56,-0.56 -0.56,-1.44 z m 7.88,-19.12 q -0.4,0 -0.56,0.16 -0.12,0.12 -0.12,0.52 v 13.28 q 0,0.4 0.12,0.56 0.16,0.12 0.56,0.12 h 4.88 q 2.4,0 3.2,-1.24 0.8,-1.24 0.8,-5.08 v -2 q 0,-3.84 -0.8,-5.08 -0.8,-1.24 -3.2,-1.24 z"
             id="path7722" /><path
             d="m -840.5771,-1316.3039 4.76,-19.92 q 0.72,-3 2.16,-4.24 1.44,-1.28 4.08,-1.28 h 4.28 q 2.64,0 4.08,1.28 1.44,1.24 2.16,4.24 l 4.76,19.92 q 0.24,1.04 -0.2,1.72 -0.44,0.64 -1.6,0.64 h -2.88 q -1.28,0 -1.8,-0.44 -0.48,-0.48 -0.76,-1.6 l -0.8,-3.44 q -0.16,-0.64 -0.76,-0.64 h -8.68 q -0.6,0 -0.76,0.64 l -0.8,3.44 q -0.28,1.12 -0.8,1.6 -0.48,0.44 -1.76,0.44 h -2.88 q -1.16,0 -1.6,-0.64 -0.44,-0.68 -0.2,-1.72 z m 16.16,-10.2 q 0.6,0 0.48,-0.68 l -1.12,-6 q -0.24,-1.32 -0.64,-1.68 -0.4,-0.4 -1.44,-0.4 h -0.6 q -1,0 -1.4,0.4 -0.4,0.36 -0.68,1.68 l -1.12,6 q -0.12,0.68 0.48,0.68 z"
             id="path7724" /><path
             d="m -805.01712,-1313.9439 q -0.88,0 -1.44,-0.56 -0.56,-0.56 -0.56,-1.44 v -6 q 0,-0.8 -0.68,-1.12 -1.28,-0.6 -2.08,-1.68 -0.8,-1.08 -1.68,-3.32 l -4.36,-11.12 q -0.4,-1 0,-1.68 0.4,-0.68 1.32,-0.68 h 4 q 1.04,0 1.44,0.44 0.44,0.44 0.8,1.6 l 2.72,8.4 q 0.36,1.2 0.76,1.64 0.44,0.44 1.2,0.44 h 0.44 q 0.76,0 1.16,-0.44 0.44,-0.44 0.8,-1.64 l 2.72,-8.4 q 0.36,-1.16 0.76,-1.6 0.44,-0.44 1.48,-0.44 h 4 q 0.92,0 1.32,0.68 0.4,0.68 0,1.68 l -4.36,11.12 q -0.88,2.24 -1.68,3.32 -0.8,1.08 -2.08,1.68 -0.68,0.32 -0.68,1.12 v 6 q 0,0.88 -0.56,1.44 -0.56,0.56 -1.44,0.56 z"
             id="path7726" /></g><g
           aria-label="YELLOW  "
           transform="matrix(0.87772735,0,0,0.87772735,534.82774,797.95302)"
           id="text15206"
           style="font-weight:bold;font-size:40px;line-height:0.85;font-family:Eurosoft-Bold;-inkscape-font-specification:'Eurosoft-Bold Bold';text-align:center;white-space:pre;shape-inside:url(#rect15208);display:inline;fill:none;stroke:#ffbd00;filter:url(#filter15210)"><path
             d="m -930.11718,-1313.9439 q -0.88,0 -1.44,-0.56 -0.56,-0.56 -0.56,-1.44 v -6 q 0,-0.8 -0.68,-1.12 -1.28,-0.6 -2.08,-1.68 -0.8,-1.08 -1.68,-3.32 l -4.36,-11.12 q -0.4,-1 0,-1.68 0.4,-0.68 1.32,-0.68 h 4 q 1.04,0 1.44,0.44 0.44,0.44 0.8,1.6 l 2.72,8.4 q 0.36,1.2 0.76,1.64 0.44,0.44 1.2,0.44 h 0.44 q 0.76,0 1.16,-0.44 0.44,-0.44 0.8,-1.64 l 2.72,-8.4 q 0.36,-1.16 0.76,-1.6 0.44,-0.44 1.48,-0.44 h 4 q 0.92,0 1.32,0.68 0.4,0.68 0,1.68 l -4.36,11.12 q -0.88,2.24 -1.68,3.32 -0.8,1.08 -2.08,1.68 -0.68,0.32 -0.68,1.12 v 6 q 0,0.88 -0.56,1.44 -0.56,0.56 -1.44,0.56 z"
             id="path7729" /><path
             d="m -914.99722,-1324.8239 v -5.88 q 0,-4.32 1.04,-6.72 1.04,-2.4 2.96,-3.24 1.92,-0.88 5.2,-0.88 h 10.04 q 0.88,0 1.44,0.56 0.56,0.56 0.56,1.44 v 2.48 q 0,0.88 -0.56,1.44 -0.56,0.56 -1.44,0.56 h -7.76 q -2.64,0 -3.4,0.56 -0.76,0.56 -0.76,2.56 v 0.12 q 0,0.4 0.12,0.56 0.16,0.12 0.56,0.12 h 9.64 q 0.88,0 1.44,0.56 0.56,0.56 0.56,1.44 v 2.36 q 0,0.88 -0.56,1.44 -0.56,0.56 -1.44,0.56 h -9.64 q -0.68,0 -0.68,0.68 v 0.12 q 0,2.28 0.72,2.92 0.76,0.64 3.44,0.64 h 7.76 q 0.88,0 1.44,0.56 0.56,0.56 0.56,1.44 v 2.48 q 0,0.88 -0.56,1.44 -0.56,0.56 -1.44,0.56 h -10.04 q -4.92,0 -7.08,-2.28 -2.12,-2.28 -2.12,-8.6 z"
             id="path7731" /><path
             d="m -873.7172,-1313.9439 h -8.44 q -4.92,0 -7.08,-2.32 -2.12,-2.36 -2.12,-8.68 v -14.6 q 0,-0.88 0.56,-1.44 0.56,-0.56 1.44,-0.56 h 3.32 q 0.88,0 1.44,0.56 0.56,0.56 0.56,1.44 v 15.64 q 0,2.2 0.72,2.84 0.72,0.64 3.4,0.64 h 6.2 q 0.88,0 1.44,0.56 0.56,0.56 0.56,1.44 v 2.48 q 0,0.88 -0.56,1.44 -0.56,0.56 -1.44,0.56 z"
             id="path7733" /><path
             d="m -852.47719,-1313.9439 h -8.44 q -4.92,0 -7.08,-2.32 -2.12,-2.36 -2.12,-8.68 v -14.6 q 0,-0.88 0.56,-1.44 0.56,-0.56 1.44,-0.56 h 3.32 q 0.88,0 1.44,0.56 0.56,0.56 0.56,1.44 v 15.64 q 0,2.2 0.72,2.84 0.72,0.64 3.4,0.64 h 6.2 q 0.88,0 1.44,0.56 0.56,0.56 0.56,1.44 v 2.48 q 0,0.88 -0.56,1.44 -0.56,0.56 -1.44,0.56 z"
             id="path7735" /><path
             d="m -838.07719,-1341.7439 q -6,0 -8.6,2.72 -2.6,2.72 -2.6,9.88 v 2.8 q 0,7.16 2.6,9.88 2.6,2.72 8.6,2.72 h 3.2 q 6,0 8.6,-2.72 2.6,-2.72 2.6,-9.88 v -2.8 q 0,-7.16 -2.6,-9.88 -2.6,-2.72 -8.6,-2.72 z m 7.08,12.72 v 2.56 q 0,3.8 -0.8,5.04 -0.76,1.2 -3.16,1.2 h -3.04 q -2.4,0 -3.2,-1.2 -0.76,-1.24 -0.76,-5.04 v -2.56 q 0,-3.8 0.76,-5 0.8,-1.24 3.2,-1.24 h 3.04 q 2.4,0 3.16,1.24 0.8,1.2 0.8,5 z"
             id="path7737" /><path
             d="m -802.63716,-1318.9039 -0.8,-11.84 q -0.04,-0.8 -0.2,-1.04 -0.16,-0.28 -0.48,-0.28 h -0.08 q -0.32,0 -0.48,0.28 -0.16,0.24 -0.2,1.04 l -0.8,11.84 q -0.2,3.08 -1.88,4.12 -1.64,1.04 -5.32,1.04 h -0.08 q -3.72,0 -5.24,-1.16 -1.48,-1.2 -1.72,-4.28 l -1.56,-20.08 q -0.08,-1.08 0.48,-1.68 0.56,-0.6 1.48,-0.6 h 3.28 q 0.88,0 1.4,0.56 0.52,0.52 0.6,1.44 l 1,17.2 q 0.08,1.44 0.16,1.8 0.12,0.32 0.52,0.32 h 0.04 q 0.4,0 0.52,-0.36 0.12,-0.36 0.2,-1.76 l 0.88,-11.68 q 0.2,-2.6 1.8,-3.56 1.64,-0.96 4.88,-0.96 h 0.16 q 3.24,0 4.84,0.96 1.64,0.96 1.84,3.56 l 0.88,11.68 q 0.08,1.4 0.2,1.76 0.12,0.36 0.52,0.36 h 0.04 q 0.4,0 0.48,-0.32 0.12,-0.32 0.2,-1.8 l 1,-17.2 q 0.08,-0.92 0.6,-1.44 0.52,-0.56 1.4,-0.56 h 3.28 q 0.92,0 1.48,0.6 0.56,0.6 0.48,1.68 l -1.56,20.08 q -0.24,3.08 -1.76,4.28 -1.48,1.16 -5.2,1.16 h -0.08 q -3.64,0 -5.32,-1.04 -1.68,-1.04 -1.88,-4.12 z"
             id="path7739" /></g><g
           aria-label="YELLOW  "
           transform="matrix(0.87772735,0,0,0.87772735,534.82774,797.95302)"
           id="text546"
           style="font-weight:bold;font-size:40px;line-height:0.85;font-family:Eurosoft-Bold;-inkscape-font-specification:'Eurosoft-Bold Bold';text-align:center;white-space:pre;shape-inside:url(#rect548);display:inline;fill:none;stroke:#ffbd00;filter:url(#filter1106)"><path
             d="m -930.11718,-1313.9439 q -0.88,0 -1.44,-0.56 -0.56,-0.56 -0.56,-1.44 v -6 q 0,-0.8 -0.68,-1.12 -1.28,-0.6 -2.08,-1.68 -0.8,-1.08 -1.68,-3.32 l -4.36,-11.12 q -0.4,-1 0,-1.68 0.4,-0.68 1.32,-0.68 h 4 q 1.04,0 1.44,0.44 0.44,0.44 0.8,1.6 l 2.72,8.4 q 0.36,1.2 0.76,1.64 0.44,0.44 1.2,0.44 h 0.44 q 0.76,0 1.16,-0.44 0.44,-0.44 0.8,-1.64 l 2.72,-8.4 q 0.36,-1.16 0.76,-1.6 0.44,-0.44 1.48,-0.44 h 4 q 0.92,0 1.32,0.68 0.4,0.68 0,1.68 l -4.36,11.12 q -0.88,2.24 -1.68,3.32 -0.8,1.08 -2.08,1.68 -0.68,0.32 -0.68,1.12 v 6 q 0,0.88 -0.56,1.44 -0.56,0.56 -1.44,0.56 z"
             id="path7742" /><path
             d="m -914.99722,-1324.8239 v -5.88 q 0,-4.32 1.04,-6.72 1.04,-2.4 2.96,-3.24 1.92,-0.88 5.2,-0.88 h 10.04 q 0.88,0 1.44,0.56 0.56,0.56 0.56,1.44 v 2.48 q 0,0.88 -0.56,1.44 -0.56,0.56 -1.44,0.56 h -7.76 q -2.64,0 -3.4,0.56 -0.76,0.56 -0.76,2.56 v 0.12 q 0,0.4 0.12,0.56 0.16,0.12 0.56,0.12 h 9.64 q 0.88,0 1.44,0.56 0.56,0.56 0.56,1.44 v 2.36 q 0,0.88 -0.56,1.44 -0.56,0.56 -1.44,0.56 h -9.64 q -0.68,0 -0.68,0.68 v 0.12 q 0,2.28 0.72,2.92 0.76,0.64 3.44,0.64 h 7.76 q 0.88,0 1.44,0.56 0.56,0.56 0.56,1.44 v 2.48 q 0,0.88 -0.56,1.44 -0.56,0.56 -1.44,0.56 h -10.04 q -4.92,0 -7.08,-2.28 -2.12,-2.28 -2.12,-8.6 z"
             id="path7744" /><path
             d="m -873.7172,-1313.9439 h -8.44 q -4.92,0 -7.08,-2.32 -2.12,-2.36 -2.12,-8.68 v -14.6 q 0,-0.88 0.56,-1.44 0.56,-0.56 1.44,-0.56 h 3.32 q 0.88,0 1.44,0.56 0.56,0.56 0.56,1.44 v 15.64 q 0,2.2 0.72,2.84 0.72,0.64 3.4,0.64 h 6.2 q 0.88,0 1.44,0.56 0.56,0.56 0.56,1.44 v 2.48 q 0,0.88 -0.56,1.44 -0.56,0.56 -1.44,0.56 z"
             id="path7746" /><path
             d="m -852.47719,-1313.9439 h -8.44 q -4.92,0 -7.08,-2.32 -2.12,-2.36 -2.12,-8.68 v -14.6 q 0,-0.88 0.56,-1.44 0.56,-0.56 1.44,-0.56 h 3.32 q 0.88,0 1.44,0.56 0.56,0.56 0.56,1.44 v 15.64 q 0,2.2 0.72,2.84 0.72,0.64 3.4,0.64 h 6.2 q 0.88,0 1.44,0.56 0.56,0.56 0.56,1.44 v 2.48 q 0,0.88 -0.56,1.44 -0.56,0.56 -1.44,0.56 z"
             id="path7748" /><path
             d="m -838.07719,-1341.7439 q -6,0 -8.6,2.72 -2.6,2.72 -2.6,9.88 v 2.8 q 0,7.16 2.6,9.88 2.6,2.72 8.6,2.72 h 3.2 q 6,0 8.6,-2.72 2.6,-2.72 2.6,-9.88 v -2.8 q 0,-7.16 -2.6,-9.88 -2.6,-2.72 -8.6,-2.72 z m 7.08,12.72 v 2.56 q 0,3.8 -0.8,5.04 -0.76,1.2 -3.16,1.2 h -3.04 q -2.4,0 -3.2,-1.2 -0.76,-1.24 -0.76,-5.04 v -2.56 q 0,-3.8 0.76,-5 0.8,-1.24 3.2,-1.24 h 3.04 q 2.4,0 3.16,1.24 0.8,1.2 0.8,5 z"
             id="path7750" /><path
             d="m -802.63716,-1318.9039 -0.8,-11.84 q -0.04,-0.8 -0.2,-1.04 -0.16,-0.28 -0.48,-0.28 h -0.08 q -0.32,0 -0.48,0.28 -0.16,0.24 -0.2,1.04 l -0.8,11.84 q -0.2,3.08 -1.88,4.12 -1.64,1.04 -5.32,1.04 h -0.08 q -3.72,0 -5.24,-1.16 -1.48,-1.2 -1.72,-4.28 l -1.56,-20.08 q -0.08,-1.08 0.48,-1.68 0.56,-0.6 1.48,-0.6 h 3.28 q 0.88,0 1.4,0.56 0.52,0.52 0.6,1.44 l 1,17.2 q 0.08,1.44 0.16,1.8 0.12,0.32 0.52,0.32 h 0.04 q 0.4,0 0.52,-0.36 0.12,-0.36 0.2,-1.76 l 0.88,-11.68 q 0.2,-2.6 1.8,-3.56 1.64,-0.96 4.88,-0.96 h 0.16 q 3.24,0 4.84,0.96 1.64,0.96 1.84,3.56 l 0.88,11.68 q 0.08,1.4 0.2,1.76 0.12,0.36 0.52,0.36 h 0.04 q 0.4,0 0.48,-0.32 0.12,-0.32 0.2,-1.8 l 1,-17.2 q 0.08,-0.92 0.6,-1.44 0.52,-0.56 1.4,-0.56 h 3.28 q 0.92,0 1.48,0.6 0.56,0.6 0.48,1.68 l -1.56,20.08 q -0.24,3.08 -1.76,4.28 -1.48,1.16 -5.2,1.16 h -0.08 q -3.64,0 -5.32,-1.04 -1.68,-1.04 -1.88,-4.12 z"
             id="path7752" /></g><g
           aria-label="YELLOW  "
           transform="matrix(0.87772735,0,0,0.87772735,534.82774,797.95302)"
           id="text1110"
           style="font-weight:bold;font-size:40px;line-height:0.85;font-family:Eurosoft-Bold;-inkscape-font-specification:'Eurosoft-Bold Bold';text-align:center;white-space:pre;shape-inside:url(#rect1112);display:inline;fill:none;stroke:#ffbd00"><path
             d="m -930.11718,-1313.9439 q -0.88,0 -1.44,-0.56 -0.56,-0.56 -0.56,-1.44 v -6 q 0,-0.8 -0.68,-1.12 -1.28,-0.6 -2.08,-1.68 -0.8,-1.08 -1.68,-3.32 l -4.36,-11.12 q -0.4,-1 0,-1.68 0.4,-0.68 1.32,-0.68 h 4 q 1.04,0 1.44,0.44 0.44,0.44 0.8,1.6 l 2.72,8.4 q 0.36,1.2 0.76,1.64 0.44,0.44 1.2,0.44 h 0.44 q 0.76,0 1.16,-0.44 0.44,-0.44 0.8,-1.64 l 2.72,-8.4 q 0.36,-1.16 0.76,-1.6 0.44,-0.44 1.48,-0.44 h 4 q 0.92,0 1.32,0.68 0.4,0.68 0,1.68 l -4.36,11.12 q -0.88,2.24 -1.68,3.32 -0.8,1.08 -2.08,1.68 -0.68,0.32 -0.68,1.12 v 6 q 0,0.88 -0.56,1.44 -0.56,0.56 -1.44,0.56 z"
             id="path7755" /><path
             d="m -914.99722,-1324.8239 v -5.88 q 0,-4.32 1.04,-6.72 1.04,-2.4 2.96,-3.24 1.92,-0.88 5.2,-0.88 h 10.04 q 0.88,0 1.44,0.56 0.56,0.56 0.56,1.44 v 2.48 q 0,0.88 -0.56,1.44 -0.56,0.56 -1.44,0.56 h -7.76 q -2.64,0 -3.4,0.56 -0.76,0.56 -0.76,2.56 v 0.12 q 0,0.4 0.12,0.56 0.16,0.12 0.56,0.12 h 9.64 q 0.88,0 1.44,0.56 0.56,0.56 0.56,1.44 v 2.36 q 0,0.88 -0.56,1.44 -0.56,0.56 -1.44,0.56 h -9.64 q -0.68,0 -0.68,0.68 v 0.12 q 0,2.28 0.72,2.92 0.76,0.64 3.44,0.64 h 7.76 q 0.88,0 1.44,0.56 0.56,0.56 0.56,1.44 v 2.48 q 0,0.88 -0.56,1.44 -0.56,0.56 -1.44,0.56 h -10.04 q -4.92,0 -7.08,-2.28 -2.12,-2.28 -2.12,-8.6 z"
             id="path7757" /><path
             d="m -873.7172,-1313.9439 h -8.44 q -4.92,0 -7.08,-2.32 -2.12,-2.36 -2.12,-8.68 v -14.6 q 0,-0.88 0.56,-1.44 0.56,-0.56 1.44,-0.56 h 3.32 q 0.88,0 1.44,0.56 0.56,0.56 0.56,1.44 v 15.64 q 0,2.2 0.72,2.84 0.72,0.64 3.4,0.64 h 6.2 q 0.88,0 1.44,0.56 0.56,0.56 0.56,1.44 v 2.48 q 0,0.88 -0.56,1.44 -0.56,0.56 -1.44,0.56 z"
             id="path7759" /><path
             d="m -852.47719,-1313.9439 h -8.44 q -4.92,0 -7.08,-2.32 -2.12,-2.36 -2.12,-8.68 v -14.6 q 0,-0.88 0.56,-1.44 0.56,-0.56 1.44,-0.56 h 3.32 q 0.88,0 1.44,0.56 0.56,0.56 0.56,1.44 v 15.64 q 0,2.2 0.72,2.84 0.72,0.64 3.4,0.64 h 6.2 q 0.88,0 1.44,0.56 0.56,0.56 0.56,1.44 v 2.48 q 0,0.88 -0.56,1.44 -0.56,0.56 -1.44,0.56 z"
             id="path7761" /><path
             d="m -838.07719,-1341.7439 q -6,0 -8.6,2.72 -2.6,2.72 -2.6,9.88 v 2.8 q 0,7.16 2.6,9.88 2.6,2.72 8.6,2.72 h 3.2 q 6,0 8.6,-2.72 2.6,-2.72 2.6,-9.88 v -2.8 q 0,-7.16 -2.6,-9.88 -2.6,-2.72 -8.6,-2.72 z m 7.08,12.72 v 2.56 q 0,3.8 -0.8,5.04 -0.76,1.2 -3.16,1.2 h -3.04 q -2.4,0 -3.2,-1.2 -0.76,-1.24 -0.76,-5.04 v -2.56 q 0,-3.8 0.76,-5 0.8,-1.24 3.2,-1.24 h 3.04 q 2.4,0 3.16,1.24 0.8,1.2 0.8,5 z"
             id="path7763" /><path
             d="m -802.63716,-1318.9039 -0.8,-11.84 q -0.04,-0.8 -0.2,-1.04 -0.16,-0.28 -0.48,-0.28 h -0.08 q -0.32,0 -0.48,0.28 -0.16,0.24 -0.2,1.04 l -0.8,11.84 q -0.2,3.08 -1.88,4.12 -1.64,1.04 -5.32,1.04 h -0.08 q -3.72,0 -5.24,-1.16 -1.48,-1.2 -1.72,-4.28 l -1.56,-20.08 q -0.08,-1.08 0.48,-1.68 0.56,-0.6 1.48,-0.6 h 3.28 q 0.88,0 1.4,0.56 0.52,0.52 0.6,1.44 l 1,17.2 q 0.08,1.44 0.16,1.8 0.12,0.32 0.52,0.32 h 0.04 q 0.4,0 0.52,-0.36 0.12,-0.36 0.2,-1.76 l 0.88,-11.68 q 0.2,-2.6 1.8,-3.56 1.64,-0.96 4.88,-0.96 h 0.16 q 3.24,0 4.84,0.96 1.64,0.96 1.84,3.56 l 0.88,11.68 q 0.08,1.4 0.2,1.76 0.12,0.36 0.52,0.36 h 0.04 q 0.4,0 0.48,-0.32 0.12,-0.32 0.2,-1.8 l 1,-17.2 q 0.08,-0.92 0.6,-1.44 0.52,-0.56 1.4,-0.56 h 3.28 q 0.92,0 1.48,0.6 0.56,0.6 0.48,1.68 l -1.56,20.08 q -0.24,3.08 -1.76,4.28 -1.48,1.16 -5.2,1.16 h -0.08 q -3.64,0 -5.32,-1.04 -1.68,-1.04 -1.88,-4.12 z"
             id="path7765" /></g></g><path
         id="rect14600"
         style="fill:#ce9901;stroke-width:8.59999;filter:url(#filter14792)"
         transform="matrix(0.62780579,0,0,0.62780579,54.792352,23.262098)"
         d="m 215.20212,52.578896 h 56.63736 v 2.17041 h -56.63736 z" /><g
         id="g14525"
         style="stroke:#ffbd00;stroke-opacity:1"
         transform="matrix(0.62780579,0,0,0.62780579,270.87462,62.662658)"><path
           style="fill:#ffffff;fill-opacity:1;stroke:#ffbd00;stroke-width:1.516;stroke-dasharray:none;stroke-opacity:1"
           d="m -128.98437,-9.095052 h 56.637366"
           id="path14520" /></g><path
         style="fill:#ffffff;fill-opacity:1;stroke:#ffbd00;stroke-width:0.951754;stroke-dasharray:none;stroke-opacity:1"
         d="M 65.057733,56.952731 H 100.615"
         id="path14522" /><path
         id="rect15834"
         style="fill:#ce9901;stroke-width:8.59999;filter:url(#filter14792)"
         transform="matrix(0.62780579,0,0,0.62780579,54.792352,23.262098)"
         d="m 16.351204,52.578896 h 56.637363 v 2.17041 H 16.351204 Z" /><g
         id="g15144"
         transform="translate(-13.115666)"><path
           id="rect1880-1"
           style="fill:none;stroke:#ffbd00;stroke-width:0.278128"
           d="m 132.10283,75.521268 h 52.43304 c 2.04036,0 3.68296,1.642598 3.68296,3.682957 0,2.040358 -1.6426,3.682957 -3.68296,3.682957 h -52.43304 c -2.04035,0 -3.68295,-1.642599 -3.68295,-3.682957 0,-2.040359 1.6426,-3.682957 3.68295,-3.682957 z"
           sodipodi:nodetypes="sssssss" /><path
           id="rect3791-2"
           style="fill:none;stroke:#ffbd00;stroke-width:0.401108;filter:url(#filter3793-5)"
           d="m 126.2868,83.275925 h 75.65549 c 2.94254,0 5.31145,2.368905 5.31145,5.311447 0,2.942542 -2.36891,5.311448 -5.31145,5.311448 H 126.2868 c -2.94254,0 -5.31145,-2.368906 -5.31145,-5.311448 0,-2.942542 2.36891,-5.311447 5.31145,-5.311447 z"
           transform="matrix(0.69339986,0,0,0.69339986,44.535584,17.777753)"
           sodipodi:nodetypes="sssssss" /><path
           id="rect3803-7"
           style="fill:none;stroke:#ffbd00;stroke-width:0.278128"
           d="m 132.10283,75.521268 h 52.42019 c 2.04036,0 3.68296,1.642598 3.68296,3.682957 0,2.040358 -1.6426,3.682957 -3.68296,3.682957 h -52.42019 c -2.04035,0 -3.68295,-1.642599 -3.68295,-3.682957 0,-2.040359 1.6426,-3.682957 3.68295,-3.682957 z"
           sodipodi:nodetypes="sssssss" /><path
           id="rect3797-7"
           style="fill:none;stroke:#ffbd00;stroke-width:0.401108;filter:url(#filter3801-5)"
           d="m 126.2868,83.275925 h 75.76893 c 2.94254,0 5.31145,2.368905 5.31145,5.311447 0,2.942542 -2.36891,5.311448 -5.31145,5.311448 H 126.2868 c -2.94254,0 -5.31145,-2.368906 -5.31145,-5.311448 0,-2.942542 2.36891,-5.311447 5.31145,-5.311447 z"
           transform="matrix(0.69339986,0,0,0.69339986,44.535584,17.777753)"
           sodipodi:nodetypes="sssssss" /><g
           aria-label="CONFIRA"
           transform="matrix(0.2686451,0,0,0.2686451,52.744606,-29.644736)"
           id="text3857"
           style="font-weight:bold;font-size:16px;line-height:0;font-family:Eurosoft-Bold;-inkscape-font-specification:'Eurosoft-Bold Bold';text-align:center;text-anchor:middle;white-space:pre;shape-inside:url(#rect3859);display:inline;opacity:1;fill:#ffffff;fill-opacity:1;stroke-width:1.516"><g
             aria-label="CONFIRA AS PROMOÇÕES"
             transform="matrix(0.93666741,0,0,0.93666741,-19.584311,61.836727)"
             id="text13211"
             style="font-family:Inter;-inkscape-font-specification:'Inter Bold';shape-inside:url(#rect13213);display:inline;opacity:1;fill:#ffbd00"><path
               d="m 348.09378,364.68642 h -2.48864 q -0.0682,-0.48296 -0.27841,-0.85796 -0.21022,-0.38068 -0.53977,-0.64772 -0.32955,-0.26705 -0.76136,-0.40909 -0.42614,-0.14205 -0.92614,-0.14205 -0.90341,0 -1.57386,0.44886 -0.67046,0.44319 -1.03978,1.29546 -0.36931,0.84659 -0.36931,2.05682 0,1.24431 0.36931,2.09091 0.375,0.84659 1.04546,1.2784 0.67045,0.43182 1.55113,0.43182 0.49432,0 0.91478,-0.13068 0.42613,-0.13068 0.75568,-0.38068 0.32954,-0.25568 0.54545,-0.61932 0.22159,-0.36364 0.30682,-0.82954 l 2.48864,0.0114 q -0.0966,0.80114 -0.48296,1.54545 -0.38068,0.73864 -1.02841,1.32387 -0.64204,0.57954 -1.53409,0.92045 -0.88636,0.33523 -2.00568,0.33523 -1.55682,0 -2.78409,-0.70455 -1.22159,-0.70454 -1.93182,-2.03977 -0.70454,-1.33523 -0.70454,-3.23295 0,-1.90341 0.71591,-3.23864 0.71591,-1.33523 1.94318,-2.03409 1.22727,-0.70455 2.76136,-0.70455 1.01137,0 1.875,0.28409 0.86932,0.2841 1.53977,0.82955 0.67046,0.53977 1.09091,1.32386 0.42614,0.78409 0.54546,1.79546 z"
               id="path16071" /><path
               d="m 360.554,366.43074 q 0,1.90341 -0.72159,3.23863 -0.71591,1.33523 -1.95454,2.03978 -1.23296,0.69886 -2.77273,0.69886 -1.55114,0 -2.78409,-0.70455 -1.23296,-0.70454 -1.94887,-2.03977 -0.71591,-1.33523 -0.71591,-3.23295 0,-1.90341 0.71591,-3.23864 0.71591,-1.33523 1.94887,-2.03409 1.23295,-0.70455 2.78409,-0.70455 1.53977,0 2.77273,0.70455 1.23863,0.69886 1.95454,2.03409 0.72159,1.33523 0.72159,3.23864 z m -2.49432,0 q 0,-1.23296 -0.36931,-2.07955 -0.36364,-0.84659 -1.02841,-1.28409 -0.66478,-0.4375 -1.55682,-0.4375 -0.89205,0 -1.55682,0.4375 -0.66477,0.4375 -1.03409,1.28409 -0.36364,0.84659 -0.36364,2.07955 0,1.23295 0.36364,2.07954 0.36932,0.84659 1.03409,1.28409 0.66477,0.4375 1.55682,0.4375 0.89204,0 1.55682,-0.4375 0.66477,-0.4375 1.02841,-1.28409 0.36931,-0.84659 0.36931,-2.07954 z"
               id="path16073" /><path
               d="m 372.10513,360.61255 v 11.63637 h -2.125 l -5.0625,-7.32387 h -0.0852 v 7.32387 h -2.46023 v -11.63637 h 2.15909 l 5.02273,7.31819 h 0.10227 v -7.31819 z"
               id="path16075" /><path
               d="m 374.13353,372.24892 v -11.63637 h 7.70454 v 2.02841 h -5.24432 v 2.77273 h 4.73296 v 2.02841 h -4.73296 v 4.80682 z"
               id="path16077" /><path
               d="m 385.95169,360.61255 v 11.63637 h -2.46022 v -11.63637 z"
               id="path16079" /><path
               d="m 387.98011,372.24892 v -11.63637 h 4.59091 q 1.31818,0 2.25,0.4716 0.9375,0.4659 1.42614,1.32386 0.49432,0.85227 0.49432,2.00568 0,1.15909 -0.5,1.99432 -0.5,0.82954 -1.44887,1.27273 -0.94318,0.44318 -2.28409,0.44318 h -3.07386 v -1.97727 h 2.67614 q 0.70454,0 1.17045,-0.19319 0.46591,-0.19318 0.69318,-0.57954 0.23296,-0.38637 0.23296,-0.96023 0,-0.57954 -0.23296,-0.97727 -0.22727,-0.39773 -0.69886,-0.60227 -0.46591,-0.21023 -1.17614,-0.21023 h -1.65909 v 9.625 z m 6.28409,-5.29546 2.89205,5.29546 h -2.71591 l -2.82954,-5.29546 z"
               id="path16081" /><path
               d="m 400.4858,372.24892 h -2.63637 l 4.01705,-11.63637 h 3.17045 l 4.01137,11.63637 h -2.63637 l -2.91477,-8.97727 h -0.0909 z m -0.16478,-4.57387 h 6.22728 v 1.92046 h -6.22728 z"
               id="path16083" /><path
               d="m 416.16194,372.24892 h -2.63636 l 4.01704,-11.63637 h 3.17046 l 4.01136,11.63637 h -2.63636 l -2.91477,-8.97727 h -0.0909 z m -0.16477,-4.57387 h 6.22727 v 1.92046 h -6.22727 z"
               id="path16085" /><path
               d="m 432.16194,363.95915 q -0.0682,-0.6875 -0.58523,-1.06819 -0.51705,-0.38068 -1.40341,-0.38068 -0.60227,0 -1.01704,0.17046 -0.41478,0.16477 -0.63637,0.46022 -0.21591,0.29546 -0.21591,0.67046 -0.0114,0.3125 0.13068,0.54545 0.14773,0.23296 0.40341,0.40341 0.25569,0.16477 0.59091,0.28977 0.33523,0.11932 0.71591,0.20455 l 1.04546,0.25 q 0.76136,0.17045 1.39772,0.45455 0.63637,0.28409 1.10228,0.69886 0.46591,0.41477 0.72159,0.97727 0.26136,0.5625 0.26704,1.28977 -0.006,1.06819 -0.54545,1.85228 -0.53409,0.77841 -1.54546,1.21022 -1.00568,0.42614 -2.42613,0.42614 -1.40909,0 -2.45455,-0.43182 -1.03977,-0.43182 -1.625,-1.27841 -0.57954,-0.85227 -0.60795,-2.10795 h 2.38068 q 0.0398,0.58523 0.33523,0.97727 0.30113,0.38637 0.80113,0.58523 0.50568,0.19318 1.14205,0.19318 0.625,0 1.08523,-0.18182 0.4659,-0.18182 0.72159,-0.50568 0.25568,-0.32386 0.25568,-0.74432 0,-0.39204 -0.23296,-0.65909 -0.22727,-0.26704 -0.67045,-0.45454 -0.4375,-0.1875 -1.07386,-0.34091 l -1.26705,-0.31818 q -1.47159,-0.35796 -2.32386,-1.11932 -0.85228,-0.76137 -0.84659,-2.05114 -0.006,-1.05682 0.5625,-1.84659 0.57386,-0.78977 1.57386,-1.23295 1,-0.44319 2.27273,-0.44319 1.29545,0 2.26136,0.44319 0.97159,0.44318 1.51136,1.23295 0.53978,0.78977 0.55682,1.82955 z"
               id="path16087" /><path
               d="m 440.03694,372.24892 v -11.63637 h 4.59091 q 1.32386,0 2.25568,0.50569 0.93182,0.5 1.42045,1.39204 0.49432,0.88637 0.49432,2.04546 0,1.15909 -0.5,2.04545 -0.5,0.88636 -1.44886,1.38068 -0.94318,0.49432 -2.28409,0.49432 h -2.92614 v -1.97159 h 2.52841 q 0.71023,0 1.17045,-0.24432 0.46591,-0.25 0.69319,-0.6875 0.23295,-0.44318 0.23295,-1.01704 0,-0.57955 -0.23295,-1.01137 -0.22728,-0.4375 -0.69319,-0.67613 -0.46591,-0.24432 -1.18181,-0.24432 h -1.6591 v 9.625 z"
               id="path16089" /><path
               d="m 450.40058,372.24892 v -11.63637 h 4.59091 q 1.31819,0 2.25,0.4716 0.9375,0.4659 1.42614,1.32386 0.49432,0.85227 0.49432,2.00568 0,1.15909 -0.5,1.99432 -0.5,0.82954 -1.44887,1.27273 -0.94318,0.44318 -2.28409,0.44318 h -3.07386 v -1.97727 h 2.67614 q 0.70454,0 1.17045,-0.19319 0.46591,-0.19318 0.69318,-0.57954 0.23296,-0.38637 0.23296,-0.96023 0,-0.57954 -0.23296,-0.97727 -0.22727,-0.39773 -0.69886,-0.60227 -0.46591,-0.21023 -1.17614,-0.21023 h -1.65909 v 9.625 z m 6.2841,-5.29546 2.89204,5.29546 h -2.71591 l -2.82954,-5.29546 z"
               id="path16091" /><path
               d="m 471.59377,366.43074 q 0,1.90341 -0.72159,3.23863 -0.71591,1.33523 -1.95455,2.03978 -1.23295,0.69886 -2.77273,0.69886 -1.55113,0 -2.78409,-0.70455 -1.23295,-0.70454 -1.94886,-2.03977 -0.71591,-1.33523 -0.71591,-3.23295 0,-1.90341 0.71591,-3.23864 0.71591,-1.33523 1.94886,-2.03409 1.23296,-0.70455 2.78409,-0.70455 1.53978,0 2.77273,0.70455 1.23864,0.69886 1.95455,2.03409 0.72159,1.33523 0.72159,3.23864 z m -2.49432,0 q 0,-1.23296 -0.36932,-2.07955 -0.36364,-0.84659 -1.02841,-1.28409 -0.66477,-0.4375 -1.55682,-0.4375 -0.89204,0 -1.55682,0.4375 -0.66477,0.4375 -1.03409,1.28409 -0.36363,0.84659 -0.36363,2.07955 0,1.23295 0.36363,2.07954 0.36932,0.84659 1.03409,1.28409 0.66478,0.4375 1.55682,0.4375 0.89205,0 1.55682,-0.4375 0.66477,-0.4375 1.02841,-1.28409 0.36932,-0.84659 0.36932,-2.07954 z"
               id="path16093" /><path
               d="m 473.41194,360.61255 h 3.03409 l 3.20454,7.81819 h 0.13637 l 3.20454,-7.81819 h 3.03409 v 11.63637 h -2.38636 v -7.57387 h -0.0966 l -3.01136,7.51705 h -1.625 l -3.01137,-7.54545 h -0.0966 v 7.60227 h -2.38636 z"
               id="path16095" /><path
               d="m 498.74147,366.43074 q 0,1.90341 -0.72159,3.23863 -0.71591,1.33523 -1.95454,2.03978 -1.23296,0.69886 -2.77273,0.69886 -1.55114,0 -2.78409,-0.70455 -1.23296,-0.70454 -1.94887,-2.03977 -0.71591,-1.33523 -0.71591,-3.23295 0,-1.90341 0.71591,-3.23864 0.71591,-1.33523 1.94887,-2.03409 1.23295,-0.70455 2.78409,-0.70455 1.53977,0 2.77273,0.70455 1.23863,0.69886 1.95454,2.03409 0.72159,1.33523 0.72159,3.23864 z m -2.49432,0 q 0,-1.23296 -0.36931,-2.07955 -0.36364,-0.84659 -1.02841,-1.28409 -0.66478,-0.4375 -1.55682,-0.4375 -0.89205,0 -1.55682,0.4375 -0.66477,0.4375 -1.03409,1.28409 -0.36364,0.84659 -0.36364,2.07955 0,1.23295 0.36364,2.07954 0.36932,0.84659 1.03409,1.28409 0.66477,0.4375 1.55682,0.4375 0.89204,0 1.55682,-0.4375 0.66477,-0.4375 1.02841,-1.28409 0.36931,-0.84659 0.36931,-2.07954 z"
               id="path16097" /><path
               d="m 510.82669,364.68642 h -2.48864 q -0.0682,-0.48296 -0.27841,-0.85796 -0.21022,-0.38068 -0.53977,-0.64772 -0.32955,-0.26705 -0.76136,-0.40909 -0.42614,-0.14205 -0.92614,-0.14205 -0.90341,0 -1.57386,0.44886 -0.67046,0.44319 -1.03978,1.29546 -0.36931,0.84659 -0.36931,2.05682 0,1.24431 0.36931,2.09091 0.375,0.84659 1.04546,1.2784 0.67045,0.43182 1.55113,0.43182 0.49432,0 0.91478,-0.13068 0.42613,-0.13068 0.75568,-0.38068 0.32954,-0.25568 0.54545,-0.61932 0.22159,-0.36364 0.30682,-0.82954 l 2.48864,0.0114 q -0.0966,0.80114 -0.48296,1.54545 -0.38068,0.73864 -1.02841,1.32387 -0.64204,0.57954 -1.53409,0.92045 -0.88636,0.33523 -2.00568,0.33523 -1.55682,0 -2.78409,-0.70455 -1.22159,-0.70454 -1.93182,-2.03977 -0.70454,-1.33523 -0.70454,-3.23295 0,-1.90341 0.71591,-3.23864 0.71591,-1.33523 1.94318,-2.03409 1.22727,-0.70455 2.76136,-0.70455 1.01137,0 1.875,0.28409 0.86932,0.2841 1.53977,0.82955 0.67046,0.53977 1.09091,1.32386 0.42614,0.78409 0.54546,1.79546 z m -5.65909,7.52841 h 1.11363 l -0.0909,0.49432 q 0.58523,0.0909 0.95455,0.4375 0.375,0.34659 0.38068,0.94318 0.006,0.84659 -0.78409,1.34659 -0.78977,0.50568 -2.21591,0.50568 l -0.0227,-1.07955 q 0.71591,0 1.11932,-0.17613 0.40909,-0.17046 0.42614,-0.53409 0.0114,-0.34659 -0.26705,-0.52841 -0.27841,-0.18182 -0.86931,-0.25568 z"
               id="path16099" /><path
               d="m 523.28691,366.43074 q 0,1.90341 -0.72159,3.23863 -0.71591,1.33523 -1.95454,2.03978 -1.23296,0.69886 -2.77273,0.69886 -1.55114,0 -2.78409,-0.70455 -1.23296,-0.70454 -1.94887,-2.03977 -0.7159,-1.33523 -0.7159,-3.23295 0,-1.90341 0.7159,-3.23864 0.71591,-1.33523 1.94887,-2.03409 1.23295,-0.70455 2.78409,-0.70455 1.53977,0 2.77273,0.70455 1.23863,0.69886 1.95454,2.03409 0.72159,1.33523 0.72159,3.23864 z m -2.49432,0 q 0,-1.23296 -0.36931,-2.07955 -0.36364,-0.84659 -1.02841,-1.28409 -0.66478,-0.4375 -1.55682,-0.4375 -0.89205,0 -1.55682,0.4375 -0.66477,0.4375 -1.03409,1.28409 -0.36364,0.84659 -0.36364,2.07955 0,1.23295 0.36364,2.07954 0.36932,0.84659 1.03409,1.28409 0.66477,0.4375 1.55682,0.4375 0.89204,0 1.55682,-0.4375 0.66477,-0.4375 1.02841,-1.28409 0.36931,-0.84659 0.36931,-2.07954 z m -4.58522,-6.96591 -1.34091,-0.017 q 0,-1.08523 0.53409,-1.66477 0.53409,-0.57955 1.3125,-0.58523 0.39773,0 0.68182,0.13068 0.28409,0.125 0.51704,0.29546 0.23296,0.17045 0.44318,0.30113 0.21023,0.125 0.45455,0.125 0.32955,-0.006 0.5,-0.24431 0.17614,-0.24432 0.17614,-0.63637 l 1.32386,0.0398 q -0.0114,1.07386 -0.54545,1.65909 -0.5341,0.57954 -1.30682,0.58522 -0.42046,0.006 -0.71023,-0.125 -0.28409,-0.13068 -0.5,-0.29545 -0.21591,-0.17046 -0.42045,-0.30114 -0.20455,-0.13068 -0.46023,-0.13068 -0.29546,0 -0.47727,0.23296 -0.18182,0.23295 -0.18182,0.63068 z"
               id="path16101" /><path
               d="m 525.10508,372.24892 v -11.63637 h 7.84091 v 2.02841 h -5.38068 v 2.77273 h 4.97727 v 2.02841 h -4.97727 v 2.77841 h 5.40341 v 2.02841 z"
               id="path16103" /><path
               d="m 541.21873,363.95915 q -0.0682,-0.6875 -0.58523,-1.06819 -0.51704,-0.38068 -1.40341,-0.38068 -0.60227,0 -1.01704,0.17046 -0.41477,0.16477 -0.63636,0.46022 -0.21591,0.29546 -0.21591,0.67046 -0.0114,0.3125 0.13068,0.54545 0.14773,0.23296 0.40341,0.40341 0.25568,0.16477 0.59091,0.28977 0.33522,0.11932 0.71591,0.20455 l 1.04545,0.25 q 0.76136,0.17045 1.39773,0.45455 0.63636,0.28409 1.10227,0.69886 0.46591,0.41477 0.72159,0.97727 0.26136,0.5625 0.26705,1.28977 -0.006,1.06819 -0.54546,1.85228 -0.53409,0.77841 -1.54545,1.21022 -1.00568,0.42614 -2.42614,0.42614 -1.40909,0 -2.45454,-0.43182 -1.03978,-0.43182 -1.625,-1.27841 -0.57955,-0.85227 -0.60796,-2.10795 h 2.38068 q 0.0398,0.58523 0.33523,0.97727 0.30114,0.38637 0.80114,0.58523 0.50568,0.19318 1.14204,0.19318 0.625,0 1.08523,-0.18182 0.46591,-0.18182 0.72159,-0.50568 0.25568,-0.32386 0.25568,-0.74432 0,-0.39204 -0.23295,-0.65909 -0.22728,-0.26704 -0.67046,-0.45454 -0.4375,-0.1875 -1.07386,-0.34091 l -1.26705,-0.31818 q -1.47159,-0.35796 -2.32386,-1.11932 -0.85227,-0.76137 -0.84659,-2.05114 -0.006,-1.05682 0.5625,-1.84659 0.57386,-0.78977 1.57386,-1.23295 1,-0.44319 2.27273,-0.44319 1.29545,0 2.26136,0.44319 0.97159,0.44318 1.51137,1.23295 0.53977,0.78977 0.55682,1.82955 z"
               id="path16105" /></g></g><g
           aria-label="CONFIRA"
           transform="matrix(0.2686451,0,0,0.2686451,52.744606,-29.644736)"
           id="g15150"
           style="font-weight:bold;font-size:16px;line-height:0;font-family:Eurosoft-Bold;-inkscape-font-specification:'Eurosoft-Bold Bold';text-align:center;text-anchor:middle;white-space:pre;shape-inside:url(#rect3859);display:inline;opacity:1;fill:#ffffff;fill-opacity:1;stroke-width:1.516;filter:url(#filter15154)"><g
             aria-label="CONFIRA AS PROMOÇÕES"
             transform="matrix(0.93666741,0,0,0.93666741,-19.584311,61.836727)"
             id="text15148"
             style="font-family:Inter;-inkscape-font-specification:'Inter Bold';shape-inside:url(#rect15152);display:inline;opacity:1;fill:#ffbd00"><path
               d="m 348.09378,364.68642 h -2.48864 q -0.0682,-0.48296 -0.27841,-0.85796 -0.21022,-0.38068 -0.53977,-0.64772 -0.32955,-0.26705 -0.76136,-0.40909 -0.42614,-0.14205 -0.92614,-0.14205 -0.90341,0 -1.57386,0.44886 -0.67046,0.44319 -1.03978,1.29546 -0.36931,0.84659 -0.36931,2.05682 0,1.24431 0.36931,2.09091 0.375,0.84659 1.04546,1.2784 0.67045,0.43182 1.55113,0.43182 0.49432,0 0.91478,-0.13068 0.42613,-0.13068 0.75568,-0.38068 0.32954,-0.25568 0.54545,-0.61932 0.22159,-0.36364 0.30682,-0.82954 l 2.48864,0.0114 q -0.0966,0.80114 -0.48296,1.54545 -0.38068,0.73864 -1.02841,1.32387 -0.64204,0.57954 -1.53409,0.92045 -0.88636,0.33523 -2.00568,0.33523 -1.55682,0 -2.78409,-0.70455 -1.22159,-0.70454 -1.93182,-2.03977 -0.70454,-1.33523 -0.70454,-3.23295 0,-1.90341 0.71591,-3.23864 0.71591,-1.33523 1.94318,-2.03409 1.22727,-0.70455 2.76136,-0.70455 1.01137,0 1.875,0.28409 0.86932,0.2841 1.53977,0.82955 0.67046,0.53977 1.09091,1.32386 0.42614,0.78409 0.54546,1.79546 z"
               id="path16108" /><path
               d="m 360.554,366.43074 q 0,1.90341 -0.72159,3.23863 -0.71591,1.33523 -1.95454,2.03978 -1.23296,0.69886 -2.77273,0.69886 -1.55114,0 -2.78409,-0.70455 -1.23296,-0.70454 -1.94887,-2.03977 -0.71591,-1.33523 -0.71591,-3.23295 0,-1.90341 0.71591,-3.23864 0.71591,-1.33523 1.94887,-2.03409 1.23295,-0.70455 2.78409,-0.70455 1.53977,0 2.77273,0.70455 1.23863,0.69886 1.95454,2.03409 0.72159,1.33523 0.72159,3.23864 z m -2.49432,0 q 0,-1.23296 -0.36931,-2.07955 -0.36364,-0.84659 -1.02841,-1.28409 -0.66478,-0.4375 -1.55682,-0.4375 -0.89205,0 -1.55682,0.4375 -0.66477,0.4375 -1.03409,1.28409 -0.36364,0.84659 -0.36364,2.07955 0,1.23295 0.36364,2.07954 0.36932,0.84659 1.03409,1.28409 0.66477,0.4375 1.55682,0.4375 0.89204,0 1.55682,-0.4375 0.66477,-0.4375 1.02841,-1.28409 0.36931,-0.84659 0.36931,-2.07954 z"
               id="path16110" /><path
               d="m 372.10513,360.61255 v 11.63637 h -2.125 l -5.0625,-7.32387 h -0.0852 v 7.32387 h -2.46023 v -11.63637 h 2.15909 l 5.02273,7.31819 h 0.10227 v -7.31819 z"
               id="path16112" /><path
               d="m 374.13353,372.24892 v -11.63637 h 7.70454 v 2.02841 h -5.24432 v 2.77273 h 4.73296 v 2.02841 h -4.73296 v 4.80682 z"
               id="path16114" /><path
               d="m 385.95169,360.61255 v 11.63637 h -2.46022 v -11.63637 z"
               id="path16116" /><path
               d="m 387.98011,372.24892 v -11.63637 h 4.59091 q 1.31818,0 2.25,0.4716 0.9375,0.4659 1.42614,1.32386 0.49432,0.85227 0.49432,2.00568 0,1.15909 -0.5,1.99432 -0.5,0.82954 -1.44887,1.27273 -0.94318,0.44318 -2.28409,0.44318 h -3.07386 v -1.97727 h 2.67614 q 0.70454,0 1.17045,-0.19319 0.46591,-0.19318 0.69318,-0.57954 0.23296,-0.38637 0.23296,-0.96023 0,-0.57954 -0.23296,-0.97727 -0.22727,-0.39773 -0.69886,-0.60227 -0.46591,-0.21023 -1.17614,-0.21023 h -1.65909 v 9.625 z m 6.28409,-5.29546 2.89205,5.29546 h -2.71591 l -2.82954,-5.29546 z"
               id="path16118" /><path
               d="m 400.4858,372.24892 h -2.63637 l 4.01705,-11.63637 h 3.17045 l 4.01137,11.63637 h -2.63637 l -2.91477,-8.97727 h -0.0909 z m -0.16478,-4.57387 h 6.22728 v 1.92046 h -6.22728 z"
               id="path16120" /><path
               d="m 416.16194,372.24892 h -2.63636 l 4.01704,-11.63637 h 3.17046 l 4.01136,11.63637 h -2.63636 l -2.91477,-8.97727 h -0.0909 z m -0.16477,-4.57387 h 6.22727 v 1.92046 h -6.22727 z"
               id="path16122" /><path
               d="m 432.16194,363.95915 q -0.0682,-0.6875 -0.58523,-1.06819 -0.51705,-0.38068 -1.40341,-0.38068 -0.60227,0 -1.01704,0.17046 -0.41478,0.16477 -0.63637,0.46022 -0.21591,0.29546 -0.21591,0.67046 -0.0114,0.3125 0.13068,0.54545 0.14773,0.23296 0.40341,0.40341 0.25569,0.16477 0.59091,0.28977 0.33523,0.11932 0.71591,0.20455 l 1.04546,0.25 q 0.76136,0.17045 1.39772,0.45455 0.63637,0.28409 1.10228,0.69886 0.46591,0.41477 0.72159,0.97727 0.26136,0.5625 0.26704,1.28977 -0.006,1.06819 -0.54545,1.85228 -0.53409,0.77841 -1.54546,1.21022 -1.00568,0.42614 -2.42613,0.42614 -1.40909,0 -2.45455,-0.43182 -1.03977,-0.43182 -1.625,-1.27841 -0.57954,-0.85227 -0.60795,-2.10795 h 2.38068 q 0.0398,0.58523 0.33523,0.97727 0.30113,0.38637 0.80113,0.58523 0.50568,0.19318 1.14205,0.19318 0.625,0 1.08523,-0.18182 0.4659,-0.18182 0.72159,-0.50568 0.25568,-0.32386 0.25568,-0.74432 0,-0.39204 -0.23296,-0.65909 -0.22727,-0.26704 -0.67045,-0.45454 -0.4375,-0.1875 -1.07386,-0.34091 l -1.26705,-0.31818 q -1.47159,-0.35796 -2.32386,-1.11932 -0.85228,-0.76137 -0.84659,-2.05114 -0.006,-1.05682 0.5625,-1.84659 0.57386,-0.78977 1.57386,-1.23295 1,-0.44319 2.27273,-0.44319 1.29545,0 2.26136,0.44319 0.97159,0.44318 1.51136,1.23295 0.53978,0.78977 0.55682,1.82955 z"
               id="path16124" /><path
               d="m 440.03694,372.24892 v -11.63637 h 4.59091 q 1.32386,0 2.25568,0.50569 0.93182,0.5 1.42045,1.39204 0.49432,0.88637 0.49432,2.04546 0,1.15909 -0.5,2.04545 -0.5,0.88636 -1.44886,1.38068 -0.94318,0.49432 -2.28409,0.49432 h -2.92614 v -1.97159 h 2.52841 q 0.71023,0 1.17045,-0.24432 0.46591,-0.25 0.69319,-0.6875 0.23295,-0.44318 0.23295,-1.01704 0,-0.57955 -0.23295,-1.01137 -0.22728,-0.4375 -0.69319,-0.67613 -0.46591,-0.24432 -1.18181,-0.24432 h -1.6591 v 9.625 z"
               id="path16126" /><path
               d="m 450.40058,372.24892 v -11.63637 h 4.59091 q 1.31819,0 2.25,0.4716 0.9375,0.4659 1.42614,1.32386 0.49432,0.85227 0.49432,2.00568 0,1.15909 -0.5,1.99432 -0.5,0.82954 -1.44887,1.27273 -0.94318,0.44318 -2.28409,0.44318 h -3.07386 v -1.97727 h 2.67614 q 0.70454,0 1.17045,-0.19319 0.46591,-0.19318 0.69318,-0.57954 0.23296,-0.38637 0.23296,-0.96023 0,-0.57954 -0.23296,-0.97727 -0.22727,-0.39773 -0.69886,-0.60227 -0.46591,-0.21023 -1.17614,-0.21023 h -1.65909 v 9.625 z m 6.2841,-5.29546 2.89204,5.29546 h -2.71591 l -2.82954,-5.29546 z"
               id="path16128" /><path
               d="m 471.59377,366.43074 q 0,1.90341 -0.72159,3.23863 -0.71591,1.33523 -1.95455,2.03978 -1.23295,0.69886 -2.77273,0.69886 -1.55113,0 -2.78409,-0.70455 -1.23295,-0.70454 -1.94886,-2.03977 -0.71591,-1.33523 -0.71591,-3.23295 0,-1.90341 0.71591,-3.23864 0.71591,-1.33523 1.94886,-2.03409 1.23296,-0.70455 2.78409,-0.70455 1.53978,0 2.77273,0.70455 1.23864,0.69886 1.95455,2.03409 0.72159,1.33523 0.72159,3.23864 z m -2.49432,0 q 0,-1.23296 -0.36932,-2.07955 -0.36364,-0.84659 -1.02841,-1.28409 -0.66477,-0.4375 -1.55682,-0.4375 -0.89204,0 -1.55682,0.4375 -0.66477,0.4375 -1.03409,1.28409 -0.36363,0.84659 -0.36363,2.07955 0,1.23295 0.36363,2.07954 0.36932,0.84659 1.03409,1.28409 0.66478,0.4375 1.55682,0.4375 0.89205,0 1.55682,-0.4375 0.66477,-0.4375 1.02841,-1.28409 0.36932,-0.84659 0.36932,-2.07954 z"
               id="path16130" /><path
               d="m 473.41194,360.61255 h 3.03409 l 3.20454,7.81819 h 0.13637 l 3.20454,-7.81819 h 3.03409 v 11.63637 h -2.38636 v -7.57387 h -0.0966 l -3.01136,7.51705 h -1.625 l -3.01137,-7.54545 h -0.0966 v 7.60227 h -2.38636 z"
               id="path16132" /><path
               d="m 498.74147,366.43074 q 0,1.90341 -0.72159,3.23863 -0.71591,1.33523 -1.95454,2.03978 -1.23296,0.69886 -2.77273,0.69886 -1.55114,0 -2.78409,-0.70455 -1.23296,-0.70454 -1.94887,-2.03977 -0.71591,-1.33523 -0.71591,-3.23295 0,-1.90341 0.71591,-3.23864 0.71591,-1.33523 1.94887,-2.03409 1.23295,-0.70455 2.78409,-0.70455 1.53977,0 2.77273,0.70455 1.23863,0.69886 1.95454,2.03409 0.72159,1.33523 0.72159,3.23864 z m -2.49432,0 q 0,-1.23296 -0.36931,-2.07955 -0.36364,-0.84659 -1.02841,-1.28409 -0.66478,-0.4375 -1.55682,-0.4375 -0.89205,0 -1.55682,0.4375 -0.66477,0.4375 -1.03409,1.28409 -0.36364,0.84659 -0.36364,2.07955 0,1.23295 0.36364,2.07954 0.36932,0.84659 1.03409,1.28409 0.66477,0.4375 1.55682,0.4375 0.89204,0 1.55682,-0.4375 0.66477,-0.4375 1.02841,-1.28409 0.36931,-0.84659 0.36931,-2.07954 z"
               id="path16134" /><path
               d="m 510.82669,364.68642 h -2.48864 q -0.0682,-0.48296 -0.27841,-0.85796 -0.21022,-0.38068 -0.53977,-0.64772 -0.32955,-0.26705 -0.76136,-0.40909 -0.42614,-0.14205 -0.92614,-0.14205 -0.90341,0 -1.57386,0.44886 -0.67046,0.44319 -1.03978,1.29546 -0.36931,0.84659 -0.36931,2.05682 0,1.24431 0.36931,2.09091 0.375,0.84659 1.04546,1.2784 0.67045,0.43182 1.55113,0.43182 0.49432,0 0.91478,-0.13068 0.42613,-0.13068 0.75568,-0.38068 0.32954,-0.25568 0.54545,-0.61932 0.22159,-0.36364 0.30682,-0.82954 l 2.48864,0.0114 q -0.0966,0.80114 -0.48296,1.54545 -0.38068,0.73864 -1.02841,1.32387 -0.64204,0.57954 -1.53409,0.92045 -0.88636,0.33523 -2.00568,0.33523 -1.55682,0 -2.78409,-0.70455 -1.22159,-0.70454 -1.93182,-2.03977 -0.70454,-1.33523 -0.70454,-3.23295 0,-1.90341 0.71591,-3.23864 0.71591,-1.33523 1.94318,-2.03409 1.22727,-0.70455 2.76136,-0.70455 1.01137,0 1.875,0.28409 0.86932,0.2841 1.53977,0.82955 0.67046,0.53977 1.09091,1.32386 0.42614,0.78409 0.54546,1.79546 z m -5.65909,7.52841 h 1.11363 l -0.0909,0.49432 q 0.58523,0.0909 0.95455,0.4375 0.375,0.34659 0.38068,0.94318 0.006,0.84659 -0.78409,1.34659 -0.78977,0.50568 -2.21591,0.50568 l -0.0227,-1.07955 q 0.71591,0 1.11932,-0.17613 0.40909,-0.17046 0.42614,-0.53409 0.0114,-0.34659 -0.26705,-0.52841 -0.27841,-0.18182 -0.86931,-0.25568 z"
               id="path16136" /><path
               d="m 523.28691,366.43074 q 0,1.90341 -0.72159,3.23863 -0.71591,1.33523 -1.95454,2.03978 -1.23296,0.69886 -2.77273,0.69886 -1.55114,0 -2.78409,-0.70455 -1.23296,-0.70454 -1.94887,-2.03977 -0.7159,-1.33523 -0.7159,-3.23295 0,-1.90341 0.7159,-3.23864 0.71591,-1.33523 1.94887,-2.03409 1.23295,-0.70455 2.78409,-0.70455 1.53977,0 2.77273,0.70455 1.23863,0.69886 1.95454,2.03409 0.72159,1.33523 0.72159,3.23864 z m -2.49432,0 q 0,-1.23296 -0.36931,-2.07955 -0.36364,-0.84659 -1.02841,-1.28409 -0.66478,-0.4375 -1.55682,-0.4375 -0.89205,0 -1.55682,0.4375 -0.66477,0.4375 -1.03409,1.28409 -0.36364,0.84659 -0.36364,2.07955 0,1.23295 0.36364,2.07954 0.36932,0.84659 1.03409,1.28409 0.66477,0.4375 1.55682,0.4375 0.89204,0 1.55682,-0.4375 0.66477,-0.4375 1.02841,-1.28409 0.36931,-0.84659 0.36931,-2.07954 z m -4.58522,-6.96591 -1.34091,-0.017 q 0,-1.08523 0.53409,-1.66477 0.53409,-0.57955 1.3125,-0.58523 0.39773,0 0.68182,0.13068 0.28409,0.125 0.51704,0.29546 0.23296,0.17045 0.44318,0.30113 0.21023,0.125 0.45455,0.125 0.32955,-0.006 0.5,-0.24431 0.17614,-0.24432 0.17614,-0.63637 l 1.32386,0.0398 q -0.0114,1.07386 -0.54545,1.65909 -0.5341,0.57954 -1.30682,0.58522 -0.42046,0.006 -0.71023,-0.125 -0.28409,-0.13068 -0.5,-0.29545 -0.21591,-0.17046 -0.42045,-0.30114 -0.20455,-0.13068 -0.46023,-0.13068 -0.29546,0 -0.47727,0.23296 -0.18182,0.23295 -0.18182,0.63068 z"
               id="path16138" /><path
               d="m 525.10508,372.24892 v -11.63637 h 7.84091 v 2.02841 h -5.38068 v 2.77273 h 4.97727 v 2.02841 h -4.97727 v 2.77841 h 5.40341 v 2.02841 z"
               id="path16140" /><path
               d="m 541.21873,363.95915 q -0.0682,-0.6875 -0.58523,-1.06819 -0.51704,-0.38068 -1.40341,-0.38068 -0.60227,0 -1.01704,0.17046 -0.41477,0.16477 -0.63636,0.46022 -0.21591,0.29546 -0.21591,0.67046 -0.0114,0.3125 0.13068,0.54545 0.14773,0.23296 0.40341,0.40341 0.25568,0.16477 0.59091,0.28977 0.33522,0.11932 0.71591,0.20455 l 1.04545,0.25 q 0.76136,0.17045 1.39773,0.45455 0.63636,0.28409 1.10227,0.69886 0.46591,0.41477 0.72159,0.97727 0.26136,0.5625 0.26705,1.28977 -0.006,1.06819 -0.54546,1.85228 -0.53409,0.77841 -1.54545,1.21022 -1.00568,0.42614 -2.42614,0.42614 -1.40909,0 -2.45454,-0.43182 -1.03978,-0.43182 -1.625,-1.27841 -0.57955,-0.85227 -0.60796,-2.10795 h 2.38068 q 0.0398,0.58523 0.33523,0.97727 0.30114,0.38637 0.80114,0.58523 0.50568,0.19318 1.14204,0.19318 0.625,0 1.08523,-0.18182 0.46591,-0.18182 0.72159,-0.50568 0.25568,-0.32386 0.25568,-0.74432 0,-0.39204 -0.23295,-0.65909 -0.22728,-0.26704 -0.67046,-0.45454 -0.4375,-0.1875 -1.07386,-0.34091 l -1.26705,-0.31818 q -1.47159,-0.35796 -2.32386,-1.11932 -0.85227,-0.76137 -0.84659,-2.05114 -0.006,-1.05682 0.5625,-1.84659 0.57386,-0.78977 1.57386,-1.23295 1,-0.44319 2.27273,-0.44319 1.29545,0 2.26136,0.44319 0.97159,0.44318 1.51137,1.23295 0.53977,0.78977 0.55682,1.82955 z"
               id="path16142" /></g></g></g></g></g></svg>
