<?xml version="1.0" encoding="UTF-8" standalone="no"?>
<!-- Created with Inkscape (http://www.inkscape.org/) -->

<svg
   width="1098"
   height="400"
   viewBox="0 0 290.5125 105.83333"
   version="1.1"
   id="svg5"
   inkscape:version="1.2.1 (9c6d41e410, 2022-07-14)"
   sodipodi:docname="03.svg"
   xml:space="preserve"
   xmlns:inkscape="http://www.inkscape.org/namespaces/inkscape"
   xmlns:sodipodi="http://sodipodi.sourceforge.net/DTD/sodipodi-0.dtd"
   xmlns="http://www.w3.org/2000/svg"
   xmlns:svg="http://www.w3.org/2000/svg"><sodipodi:namedview
     id="namedview7"
     pagecolor="#9e9e9e"
     bordercolor="#000000"
     borderopacity="0.25"
     inkscape:showpageshadow="false"
     inkscape:pageopacity="0"
     inkscape:pagecheckerboard="0"
     inkscape:deskcolor="#d1d1d1"
     inkscape:document-units="px"
     showgrid="false"
     inkscape:zoom="0.2102413"
     inkscape:cx="447.1053"
     inkscape:cy="-266.3606"
     inkscape:window-width="1366"
     inkscape:window-height="705"
     inkscape:window-x="-8"
     inkscape:window-y="-8"
     inkscape:window-maximized="1"
     inkscape:current-layer="layer1"
     showborder="false"
     borderlayer="true"
     inkscape:lockguides="true"
     showguides="false"><sodipodi:guide
       position="84.160488,34.100281"
       orientation="0,-1"
       id="guide4194"
       inkscape:locked="true" /><sodipodi:guide
       position="169.9663,67.791136"
       orientation="1,0"
       id="guide35137"
       inkscape:locked="true" /><sodipodi:guide
       position="170.90313,67.839404"
       orientation="1,0"
       id="guide35191"
       inkscape:locked="true" /></sodipodi:namedview><defs
     id="defs2"><rect
       x="332.95075"
       y="317.49233"
       width="322.24877"
       height="142.69318"
       id="rect3859" /><rect
       x="274.68437"
       y="-30.916856"
       width="564.82718"
       height="409.05379"
       id="rect54743" /><rect
       x="364.07837"
       y="57.596693"
       width="152.61022"
       height="35.314761"
       id="rect38797" /><rect
       x="19.025757"
       y="16.647538"
       width="744.38276"
       height="268.73882"
       id="rect1183" /><rect
       x="-312.78788"
       y="195.07201"
       width="739.92832"
       height="548.21962"
       id="rect419" /><clipPath
       clipPathUnits="userSpaceOnUse"
       id="clipPath4206"><rect
         style="fill:#ffffff;fill-opacity:1;stroke:none;stroke-width:3.50586"
         id="rect4208"
         width="290.51251"
         height="92.604164"
         x="-140.27725"
         y="7.2302418"
         transform="rotate(-90)" /></clipPath><rect
       x="19.025757"
       y="16.647538"
       width="744.38276"
       height="268.73882"
       id="rect2847" /><rect
       x="19.025757"
       y="16.647538"
       width="744.38276"
       height="268.73882"
       id="rect3633" /><rect
       x="19.025757"
       y="16.647538"
       width="744.38276"
       height="268.73882"
       id="rect3689" /><rect
       x="19.025757"
       y="16.647538"
       width="744.38276"
       height="268.73882"
       id="rect4166" /><rect
       x="19.025757"
       y="16.647538"
       width="744.38276"
       height="268.73882"
       id="rect4172" /><rect
       x="19.025757"
       y="16.647538"
       width="744.38276"
       height="268.73882"
       id="rect4192" /><rect
       x="19.025757"
       y="16.647537"
       width="744.38275"
       height="268.73883"
       id="rect1183-6" /><rect
       x="19.025757"
       y="16.647537"
       width="744.38275"
       height="268.73883"
       id="rect2847-4" /><rect
       x="19.025757"
       y="16.647537"
       width="744.38275"
       height="268.73883"
       id="rect3633-4" /><rect
       x="19.025757"
       y="16.647537"
       width="744.38275"
       height="268.73883"
       id="rect3689-4" /><rect
       x="19.025757"
       y="16.647537"
       width="744.38275"
       height="268.73883"
       id="rect4166-5" /><rect
       x="19.025757"
       y="16.647537"
       width="744.38275"
       height="268.73883"
       id="rect4172-8" /><rect
       x="19.025757"
       y="16.647537"
       width="744.38275"
       height="268.73883"
       id="rect4192-3" /><clipPath
       clipPathUnits="userSpaceOnUse"
       id="clipPath4289"><path
         d="M 0,792 H 612 V 0 H 0 Z"
         id="path4287" /></clipPath><rect
       x="-4964"
       y="1352"
       width="932"
       height="668"
       id="rect376" /><rect
       x="-4964"
       y="1352"
       width="932"
       height="668"
       id="rect1096" /><rect
       x="-4964"
       y="1352"
       width="932"
       height="668"
       id="rect1102" /><rect
       x="-4964"
       y="1352"
       width="932"
       height="668"
       id="rect1116" /><rect
       x="-4964"
       y="1352"
       width="932"
       height="668"
       id="rect1118" /><rect
       x="-4964"
       y="1352"
       width="932"
       height="668"
       id="rect1120" /><rect
       x="-4964"
       y="1352"
       width="932"
       height="668"
       id="rect1134" /><rect
       x="-4964"
       y="1352"
       width="932"
       height="668"
       id="rect1136" /><rect
       x="-4964"
       y="1352"
       width="932"
       height="668"
       id="rect1138" /><rect
       x="-4964"
       y="1352"
       width="932"
       height="668"
       id="rect1152" /><rect
       x="-95.854347"
       y="457.41022"
       width="650.8006"
       height="228.70512"
       id="rect23706" /><rect
       x="-95.854347"
       y="457.41022"
       width="650.8006"
       height="228.70512"
       id="rect23912" /><rect
       x="-95.854347"
       y="457.41022"
       width="650.8006"
       height="228.70512"
       id="rect23918" /><rect
       x="-95.854347"
       y="457.41022"
       width="650.8006"
       height="228.70512"
       id="rect23924" /><rect
       x="-95.854347"
       y="457.41022"
       width="650.8006"
       height="228.70512"
       id="rect23930" /><rect
       x="-95.854347"
       y="457.41022"
       width="650.8006"
       height="228.70512"
       id="rect23936" /><rect
       x="-95.854347"
       y="457.41022"
       width="650.8006"
       height="228.70512"
       id="rect23942" /><rect
       x="-95.854347"
       y="457.41022"
       width="650.8006"
       height="228.70512"
       id="rect23948" /><rect
       x="-95.854347"
       y="457.41022"
       width="650.8006"
       height="228.70512"
       id="rect24501" /><rect
       x="-95.854347"
       y="457.41022"
       width="650.8006"
       height="228.70512"
       id="rect24503" /><rect
       x="-95.854347"
       y="457.41022"
       width="650.8006"
       height="228.70512"
       id="rect24505" /><rect
       x="-95.854347"
       y="457.41022"
       width="650.8006"
       height="228.70512"
       id="rect24507" /><rect
       x="-95.854347"
       y="457.41022"
       width="650.8006"
       height="228.70512"
       id="rect24509" /><rect
       x="-95.854347"
       y="457.41022"
       width="650.8006"
       height="228.70512"
       id="rect24511" /><rect
       x="-95.854347"
       y="457.41022"
       width="650.8006"
       height="228.70512"
       id="rect24513" /><rect
       x="-95.854347"
       y="457.41022"
       width="650.8006"
       height="228.70512"
       id="rect24515" /><clipPath
       clipPathUnits="userSpaceOnUse"
       id="clipPath48913"><path
         style="fill:none;fill-opacity:1;stroke:#000000;stroke-width:0.2;stroke-opacity:1"
         d="m -176.64037,159.84396 c 0,0 16.57394,0.22246 15.7953,-9.56617 l -0.55617,-97.552643 c -0.77864,-5.228021 -10.23357,-9.566166 -10.23357,-9.566166 -2.16308,-4.660038 3.80985,-4.943925 2.66962,-8.453821 l -0.11123,-14.849804 c -1.50167,-8.565056 -28.26812,-6.955992 -28.26812,-6.955992 -31.36813,-0.222469 -28.00106,7.708157 -28.00106,7.708157 l -0.47747,12.823432 c -0.27854,1.79623 0.0797,2.108978 1.10144,3.275743 1.90137,2.174409 2.56293,3.398578 1.88201,6.178772 -0.21357,1.443794 -0.78006,1.392269 -1.94625,1.826083 -7.68009,2.871705 -8.18918,9.088236 -8.18918,9.088236 l -0.61733,93.252203 c -0.3337,14.46048 13.57061,13.23691 13.57061,13.23691 0,0 40.60054,0.6674 43.3814,-0.44494 z"
         id="path48915"
         sodipodi:nodetypes="cccccccccccccccc" /></clipPath><rect
       x="274.68437"
       y="-30.916856"
       width="564.82718"
       height="409.05379"
       id="rect55284" /><rect
       x="274.68437"
       y="-30.916856"
       width="564.82718"
       height="409.05379"
       id="rect55290" /><clipPath
       clipPathUnits="userSpaceOnUse"
       id="clipPath1891"><rect
         style="fill:#000000;fill-opacity:0.308129;stroke-width:4.24392"
         id="rect1893"
         width="285.75"
         height="357.1875"
         x="-344.11035"
         y="-55.986206" /></clipPath><clipPath
       clipPathUnits="userSpaceOnUse"
       id="clipPath1465"><path
         id="path1467"
         style="fill:#f979b3;stroke-width:0.242802"
         d="m -62.181872,-52.99891 v 351.2129 H -190.12828 v -351.2129 z" /></clipPath><clipPath
       clipPathUnits="userSpaceOnUse"
       id="clipPath1565"><path
         id="path1567"
         style="fill:#f979b3;stroke-width:0.200838"
         d="M 8.5058595e-6,-1.4155273e-5 V 290.5125 H -105.83332 V -1.4155273e-5 Z" /></clipPath><rect
       x="-1308.1475"
       y="-1343.5029"
       width="897.14172"
       height="583.3631"
       id="rect4907" /><rect
       x="-1308.1475"
       y="-1343.5029"
       width="897.14172"
       height="583.3631"
       id="rect12997" /><rect
       x="-1308.1475"
       y="-1343.5029"
       width="897.14172"
       height="583.3631"
       id="rect15208" /><filter
       inkscape:collect="always"
       style="color-interpolation-filters:sRGB"
       id="filter15210"
       x="-0.071096878"
       y="-0.39428308"
       width="1.1421938"
       height="1.7885662"><feGaussianBlur
         inkscape:collect="always"
         stdDeviation="4.391636"
         id="feGaussianBlur15212" /></filter><rect
       x="-1308.1475"
       y="-1343.5029"
       width="897.14172"
       height="583.3631"
       id="rect548" /><filter
       inkscape:collect="always"
       style="color-interpolation-filters:sRGB"
       id="filter1106"
       x="-0.025679059"
       y="-0.14240876"
       width="1.0513581"
       height="1.2848175"><feGaussianBlur
         inkscape:collect="always"
         stdDeviation="1.4531022"
         id="feGaussianBlur1104" /></filter><rect
       x="-1308.1475"
       y="-1343.5029"
       width="897.14172"
       height="583.3631"
       id="rect1112" /><filter
       inkscape:collect="always"
       style="color-interpolation-filters:sRGB"
       id="filter14792"
       x="-0.093404064"
       y="-2.437401"
       width="1.1868081"
       height="5.8748021"><feGaussianBlur
         inkscape:collect="always"
         stdDeviation="2.2042331"
         id="feGaussianBlur14794" /></filter><clipPath
       clipPathUnits="userSpaceOnUse"
       id="clipPath6955"><path
         style="fill:none;fill-opacity:1;stroke:#ce9901;stroke-width:0.415998;stroke-dasharray:none;stroke-opacity:1"
         d="m -350.79752,-48.736177 -0.2067,27.078452 -1.13688,22.01416067 -1.757,41.13443933 -1.13688,23.357749 -0.16933,11.553158 -2.35742,0.260721 c -34.72665,5.504828 -67.29344,0.09124 -67.29344,0.09124 l -2.58915,0.05169 -1.30614,-32.937433 -1.30615,-29.206124 -1.03351,-26.059168 -1.3383,-33.767899 -0.0516,-4.18579 z"
         id="path6957"
         sodipodi:nodetypes="ccccccccccccccc" /></clipPath><clipPath
       clipPathUnits="userSpaceOnUse"
       id="clipPath1816"><path
         style="fill:none;stroke:#ffbd00;stroke-width:0.2;stroke-opacity:1"
         d="m -264.15312,18.142485 0.73081,-0.03654 0.0183,-15.1461428 c -7.66149,-5.3388637 -33.3089,-3.9880312 -47.71809,-2.84731561 -8.29106,1.25769681 -6.34399,5.00322001 -6.34399,5.00322001 l 0.0731,12.6431014 0.49329,0.840437 -0.63944,1.224116 0.10962,69.70149 c 0.1774,6.512901 2.45565,5.93676 9.02557,6.833121 0,0 15.95236,1.886442 31.42858,0.383196 4.11435,-0.30144 8.9185,-0.509818 11.59275,-1.803691 1.51383,-0.779698 2.23463,-2.295417 2.06997,-5.631871 l 0.14616,-69.500516 z"
         id="path1818"
         sodipodi:nodetypes="ccccccccccccccc" /></clipPath><clipPath
       clipPathUnits="userSpaceOnUse"
       id="clipPath7817"><path
         style="fill:none;fill-opacity:1;stroke:#ce9901;stroke-width:0.415999;stroke-dasharray:none;stroke-opacity:1"
         d="m 32.886679,0.7308151 c -6.588745,-0.25838214 -1.900118,1.3885487 -1.900118,1.3885487 0,0 3.404557,0.5429716 3.507912,7.2350694 L 34.640636,150.91332 c -0.103354,11.47217 -26.7295372,15.4323 -26.7295372,15.4323 -68.9889468,2.92326 -160.2532188,0 -160.2532188,0 -34.20215,-2.63093 -27.31211,-25.26582 -28.18909,-28.18908 l 0.73082,-129.7521663 c 0,0 -0.63786,-4.6772166 3.82011,-6.3580914 2.81364,-1.13276344 -2.19244,-1.16930417 -2.19244,-1.16930417 0,0 -0.73082,-0.95005966 0.65773,-2.37514913 0,0 -2.19244,-1.9732007 0.21925,-2.8136383 -1.61836,-1.9061001 -1.56069,-2.8660053 -0.0731,-4.7502982 l 0.14617,-34.8598825 c 0.5034,-1.234617 1.0273,-1.147603 2.26552,-1.315466 0,0 131.638223,-2.923259 202.965778,0 4.535421,-0.177387 3.757588,1.696228 3.808505,3.808506 v 32.3855742 l 0.86687,3.2352046 -1.678144,1.4156743 1.188559,2.6871747 z"
         id="path7819"
         sodipodi:nodetypes="cccccccccccccccccccccc" /></clipPath><clipPath
       clipPathUnits="userSpaceOnUse"
       id="clipPath9635"><path
         style="fill:none;fill-opacity:1;stroke:#ce9901;stroke-width:0.415999;stroke-dasharray:none;stroke-opacity:1"
         d="m -40.514323,341.47786 c 28.525392,45.88868 5.787761,133.11849 5.787761,133.11849 -11.16211,49.19597 2.842249,99.66169 4.909306,104.20922 16.536459,64.49219 -28.355628,91.49805 -28.355628,91.49805 -46.302086,7.85482 -125.566936,2.48047 -133.008346,0 -7.85482,-9.9219 -45.56844,-29.43262 -25.72469,-102.60645 0,0 15.75118,-56.62753 -4.09257,-134.76229 0,0 -9.4784,-57.35056 12.019,-90.83689 v -43.30488 c 0,0 -1.65364,-11.3688 11.78223,-14.88278 0,0 71.31347,-11.98894 146.140945,0 0,0 14.159341,0.82679 11.885578,17.15656 z"
         id="path9637"
         sodipodi:nodetypes="ccccccccccccc" /></clipPath><rect
       x="332.95075"
       y="317.49233"
       width="322.24877"
       height="142.69318"
       id="rect4924" /><clipPath
       clipPathUnits="userSpaceOnUse"
       id="clipPath6909"><path
         d="M 0,792 H 612 V 0 H 0 Z"
         id="path6907" /></clipPath><clipPath
       clipPathUnits="userSpaceOnUse"
       id="clipPath6955-4"><path
         style="fill:none;fill-opacity:1;stroke:#ce9901;stroke-width:0.415998;stroke-dasharray:none;stroke-opacity:1"
         d="m -350.79752,-48.736177 -0.2067,27.078452 -1.13688,22.01416067 -1.757,41.13443933 -1.13688,23.357749 -0.16933,11.553158 -2.35742,0.260721 c -34.72665,5.504828 -67.29344,0.09124 -67.29344,0.09124 l -2.58915,0.05169 -1.30614,-32.937433 -1.30615,-29.206124 -1.03351,-26.059168 -1.3383,-33.767899 -0.0516,-4.18579 z"
         id="path6957-4"
         sodipodi:nodetypes="ccccccccccccccc" /></clipPath><clipPath
       clipPathUnits="userSpaceOnUse"
       id="clipPath1816-9"><path
         style="fill:none;stroke:#ffbd00;stroke-width:0.2;stroke-opacity:1"
         d="m -264.15312,18.142485 0.73081,-0.03654 0.0183,-15.1461428 c -7.66149,-5.3388637 -33.3089,-3.9880312 -47.71809,-2.84731561 -8.29106,1.25769681 -6.34399,5.00322001 -6.34399,5.00322001 l 0.0731,12.6431014 0.49329,0.840437 -0.63944,1.224116 0.10962,69.70149 c 0.1774,6.512901 2.45565,5.93676 9.02557,6.833121 0,0 15.95236,1.886442 31.42858,0.383196 4.11435,-0.30144 8.9185,-0.509818 11.59275,-1.803691 1.51383,-0.779698 2.23463,-2.295417 2.06997,-5.631871 l 0.14616,-69.500516 z"
         id="path1818-0"
         sodipodi:nodetypes="ccccccccccccccc" /></clipPath><clipPath
       clipPathUnits="userSpaceOnUse"
       id="clipPath7817-6"><path
         style="fill:none;fill-opacity:1;stroke:#ce9901;stroke-width:0.415999;stroke-dasharray:none;stroke-opacity:1"
         d="m 32.886679,0.7308151 c -6.588745,-0.25838214 -1.900118,1.3885487 -1.900118,1.3885487 0,0 3.404557,0.5429716 3.507912,7.2350694 L 34.640636,150.91332 c -0.103354,11.47217 -26.7295372,15.4323 -26.7295372,15.4323 -68.9889468,2.92326 -160.2532188,0 -160.2532188,0 -34.20215,-2.63093 -27.31211,-25.26582 -28.18909,-28.18908 l 0.73082,-129.7521663 c 0,0 -0.63786,-4.6772166 3.82011,-6.3580914 2.81364,-1.13276344 -2.19244,-1.16930417 -2.19244,-1.16930417 0,0 -0.73082,-0.95005966 0.65773,-2.37514913 0,0 -2.19244,-1.9732007 0.21925,-2.8136383 -1.61836,-1.9061001 -1.56069,-2.8660053 -0.0731,-4.7502982 l 0.14617,-34.8598825 c 0.5034,-1.234617 1.0273,-1.147603 2.26552,-1.315466 0,0 131.638223,-2.923259 202.965778,0 4.535421,-0.177387 3.757588,1.696228 3.808505,3.808506 v 32.3855742 l 0.86687,3.2352046 -1.678144,1.4156743 1.188559,2.6871747 z"
         id="path7819-5"
         sodipodi:nodetypes="cccccccccccccccccccccc" /></clipPath><clipPath
       clipPathUnits="userSpaceOnUse"
       id="clipPath9635-8"><path
         style="fill:none;fill-opacity:1;stroke:#ce9901;stroke-width:0.415999;stroke-dasharray:none;stroke-opacity:1"
         d="m -40.514323,341.47786 c 28.525392,45.88868 5.787761,133.11849 5.787761,133.11849 -11.16211,49.19597 2.842249,99.66169 4.909306,104.20922 16.536459,64.49219 -28.355628,91.49805 -28.355628,91.49805 -46.302086,7.85482 -125.566936,2.48047 -133.008346,0 -7.85482,-9.9219 -45.56844,-29.43262 -25.72469,-102.60645 0,0 15.75118,-56.62753 -4.09257,-134.76229 0,0 -9.4784,-57.35056 12.019,-90.83689 v -43.30488 c 0,0 -1.65364,-11.3688 11.78223,-14.88278 0,0 71.31347,-11.98894 146.140945,0 0,0 14.159341,0.82679 11.885578,17.15656 z"
         id="path9637-5"
         sodipodi:nodetypes="ccccccccccccc" /></clipPath><filter
       inkscape:collect="always"
       style="color-interpolation-filters:sRGB"
       id="filter3793-5"
       x="-0.0070234629"
       y="-0.057044061"
       width="1.0140469"
       height="1.1140881"><feGaussianBlur
         inkscape:collect="always"
         stdDeviation="0.16892462"
         id="feGaussianBlur3795-2" /></filter><filter
       inkscape:collect="always"
       style="color-interpolation-filters:sRGB"
       id="filter3801-5"
       x="-0.022564328"
       y="-0.18350681"
       width="1.0451287"
       height="1.3670136"><feGaussianBlur
         inkscape:collect="always"
         stdDeviation="0.72867484"
         id="feGaussianBlur3799-7" /></filter><filter
       inkscape:collect="always"
       style="color-interpolation-filters:sRGB"
       id="filter15154"
       x="-0.0078621606"
       y="-0.086322153"
       width="1.0157243"
       height="1.1726443"><feGaussianBlur
         inkscape:collect="always"
         stdDeviation="0.63244491"
         id="feGaussianBlur15156" /></filter></defs><g
     inkscape:label="Camada 1"
     inkscape:groupmode="layer"
     id="layer1"><path
       id="rect3713"
       clip-path="url(#clipPath1565)"
       style="fill:#000000;fill-opacity:1;stroke-width:4.24392"
       transform="rotate(-90,7.465701e-6,2.465701e-6)"
       d="M -195.79166,-33.337509 H 89.958344 V 323.84999 H -195.79166 Z" /><g
       id="g1126"
       transform="matrix(0.61130116,0,0,0.61130116,281.61906,275.808)"><g
         aria-label="YELLOW 
"
         transform="matrix(0.87772735,0,0,0.87772735,534.82774,797.95302)"
         id="text4905"
         style="font-weight:bold;font-size:40px;line-height:0.85;font-family:Eurosoft-Bold;-inkscape-font-specification:'Eurosoft-Bold Bold';text-align:center;white-space:pre;shape-inside:url(#rect4907);display:inline;fill:none;stroke:#ffbd00"><path
           d="m -930.11718,-1313.9439 q -0.88,0 -1.44,-0.56 -0.56,-0.56 -0.56,-1.44 v -6 q 0,-0.8 -0.68,-1.12 -1.28,-0.6 -2.08,-1.68 -0.8,-1.08 -1.68,-3.32 l -4.36,-11.12 q -0.4,-1 0,-1.68 0.4,-0.68 1.32,-0.68 h 4 q 1.04,0 1.44,0.44 0.44,0.44 0.8,1.6 l 2.72,8.4 q 0.36,1.2 0.76,1.64 0.44,0.44 1.2,0.44 h 0.44 q 0.76,0 1.16,-0.44 0.44,-0.44 0.8,-1.64 l 2.72,-8.4 q 0.36,-1.16 0.76,-1.6 0.44,-0.44 1.48,-0.44 h 4 q 0.92,0 1.32,0.68 0.4,0.68 0,1.68 l -4.36,11.12 q -0.88,2.24 -1.68,3.32 -0.8,1.08 -2.08,1.68 -0.68,0.32 -0.68,1.12 v 6 q 0,0.88 -0.56,1.44 -0.56,0.56 -1.44,0.56 z"
           id="path7703" /><path
           d="m -914.99722,-1324.8239 v -5.88 q 0,-4.32 1.04,-6.72 1.04,-2.4 2.96,-3.24 1.92,-0.88 5.2,-0.88 h 10.04 q 0.88,0 1.44,0.56 0.56,0.56 0.56,1.44 v 2.48 q 0,0.88 -0.56,1.44 -0.56,0.56 -1.44,0.56 h -7.76 q -2.64,0 -3.4,0.56 -0.76,0.56 -0.76,2.56 v 0.12 q 0,0.4 0.12,0.56 0.16,0.12 0.56,0.12 h 9.64 q 0.88,0 1.44,0.56 0.56,0.56 0.56,1.44 v 2.36 q 0,0.88 -0.56,1.44 -0.56,0.56 -1.44,0.56 h -9.64 q -0.68,0 -0.68,0.68 v 0.12 q 0,2.28 0.72,2.92 0.76,0.64 3.44,0.64 h 7.76 q 0.88,0 1.44,0.56 0.56,0.56 0.56,1.44 v 2.48 q 0,0.88 -0.56,1.44 -0.56,0.56 -1.44,0.56 h -10.04 q -4.92,0 -7.08,-2.28 -2.12,-2.28 -2.12,-8.6 z"
           id="path7705" /><path
           d="m -873.7172,-1313.9439 h -8.44 q -4.92,0 -7.08,-2.32 -2.12,-2.36 -2.12,-8.68 v -14.6 q 0,-0.88 0.56,-1.44 0.56,-0.56 1.44,-0.56 h 3.32 q 0.88,0 1.44,0.56 0.56,0.56 0.56,1.44 v 15.64 q 0,2.2 0.72,2.84 0.72,0.64 3.4,0.64 h 6.2 q 0.88,0 1.44,0.56 0.56,0.56 0.56,1.44 v 2.48 q 0,0.88 -0.56,1.44 -0.56,0.56 -1.44,0.56 z"
           id="path7707" /><path
           d="m -852.47719,-1313.9439 h -8.44 q -4.92,0 -7.08,-2.32 -2.12,-2.36 -2.12,-8.68 v -14.6 q 0,-0.88 0.56,-1.44 0.56,-0.56 1.44,-0.56 h 3.32 q 0.88,0 1.44,0.56 0.56,0.56 0.56,1.44 v 15.64 q 0,2.2 0.72,2.84 0.72,0.64 3.4,0.64 h 6.2 q 0.88,0 1.44,0.56 0.56,0.56 0.56,1.44 v 2.48 q 0,0.88 -0.56,1.44 -0.56,0.56 -1.44,0.56 z"
           id="path7709" /><path
           d="m -838.07719,-1341.7439 q -6,0 -8.6,2.72 -2.6,2.72 -2.6,9.88 v 2.8 q 0,7.16 2.6,9.88 2.6,2.72 8.6,2.72 h 3.2 q 6,0 8.6,-2.72 2.6,-2.72 2.6,-9.88 v -2.8 q 0,-7.16 -2.6,-9.88 -2.6,-2.72 -8.6,-2.72 z m 7.08,12.72 v 2.56 q 0,3.8 -0.8,5.04 -0.76,1.2 -3.16,1.2 h -3.04 q -2.4,0 -3.2,-1.2 -0.76,-1.24 -0.76,-5.04 v -2.56 q 0,-3.8 0.76,-5 0.8,-1.24 3.2,-1.24 h 3.04 q 2.4,0 3.16,1.24 0.8,1.2 0.8,5 z"
           id="path7711" /><path
           d="m -802.63716,-1318.9039 -0.8,-11.84 q -0.04,-0.8 -0.2,-1.04 -0.16,-0.28 -0.48,-0.28 h -0.08 q -0.32,0 -0.48,0.28 -0.16,0.24 -0.2,1.04 l -0.8,11.84 q -0.2,3.08 -1.88,4.12 -1.64,1.04 -5.32,1.04 h -0.08 q -3.72,0 -5.24,-1.16 -1.48,-1.2 -1.72,-4.28 l -1.56,-20.08 q -0.08,-1.08 0.48,-1.68 0.56,-0.6 1.48,-0.6 h 3.28 q 0.88,0 1.4,0.56 0.52,0.52 0.6,1.44 l 1,17.2 q 0.08,1.44 0.16,1.8 0.12,0.32 0.52,0.32 h 0.04 q 0.4,0 0.52,-0.36 0.12,-0.36 0.2,-1.76 l 0.88,-11.68 q 0.2,-2.6 1.8,-3.56 1.64,-0.96 4.88,-0.96 h 0.16 q 3.24,0 4.84,0.96 1.64,0.96 1.84,3.56 l 0.88,11.68 q 0.08,1.4 0.2,1.76 0.12,0.36 0.52,0.36 h 0.04 q 0.4,0 0.48,-0.32 0.12,-0.32 0.2,-1.8 l 1,-17.2 q 0.08,-0.92 0.6,-1.44 0.52,-0.56 1.4,-0.56 h 3.28 q 0.92,0 1.48,0.6 0.56,0.6 0.48,1.68 l -1.56,20.08 q -0.24,3.08 -1.76,4.28 -1.48,1.16 -5.2,1.16 h -0.08 q -3.64,0 -5.32,-1.04 -1.68,-1.04 -1.88,-4.12 z"
           id="path7713" /></g><g
         aria-label="FRIDAY"
         transform="matrix(0.97174896,0,0,0.97174896,613.75899,942.09279)"
         id="text12995"
         style="font-weight:bold;font-size:40px;line-height:0.85;font-family:Eurosoft-Bold;-inkscape-font-specification:'Eurosoft-Bold Bold';text-align:center;white-space:pre;shape-inside:url(#rect12997);display:inline;fill:#ffffff"><path
           d="m -925.05716,-1313.9439 q -0.88,0 -1.44,-0.56 -0.56,-0.56 -0.56,-1.44 v -15 q 0,-3.24 0.52,-5.32 0.56,-2.12 1.76,-3.28 1.2,-1.16 2.8,-1.56 1.64,-0.44 4.12,-0.44 h 10.04 q 0.88,0 1.44,0.56 0.56,0.56 0.56,1.44 v 2.48 q 0,0.88 -0.56,1.44 -0.56,0.56 -1.44,0.56 h -7.76 q -2.6,0 -3.4,0.64 -0.76,0.6 -0.76,2.52 v 1.28 q 0,0.68 0.68,0.68 h 9.24 q 0.88,0 1.44,0.56 0.56,0.56 0.56,1.44 v 2.48 q 0,0.88 -0.56,1.44 -0.56,0.56 -1.44,0.56 h -9.24 q -0.68,0 -0.68,0.68 v 6.84 q 0,0.88 -0.56,1.44 -0.56,0.56 -1.44,0.56 z"
           id="path7716" /><path
           d="m -898.41718,-1313.9439 h -3.2 q -0.88,0 -1.44,-0.56 -0.56,-0.56 -0.56,-1.44 v -23.6 q 0,-0.88 0.56,-1.44 0.56,-0.56 1.44,-0.56 h 9.88 q 6.32,0 9.16,2.08 2.84,2.08 2.84,7.12 v 0.64 q 0,2.84 -1.04,4.56 -1.04,1.68 -3.36,2.88 -0.32,0.16 -0.44,0.32 -0.12,0.16 -0.08,0.36 0.04,0.2 0.28,0.56 l 4.32,6.32 q 0.68,0.92 0.32,1.84 -0.36,0.92 -1.48,0.92 h -3.52 q -1.12,0 -1.8,-0.32 -0.68,-0.32 -0.92,-0.64 -0.24,-0.32 -0.84,-1.28 l -3.6,-5.88 q -0.28,-0.52 -0.52,-0.64 -0.24,-0.16 -0.76,-0.16 h -2.56 q -0.4,0 -0.56,0.16 -0.12,0.12 -0.12,0.52 v 6.24 q 0,0.88 -0.56,1.44 -0.56,0.56 -1.44,0.56 z m 2.68,-21.12 q -0.4,0 -0.56,0.16 -0.12,0.12 -0.12,0.52 v 4.72 q 0,0.4 0.12,0.56 0.16,0.12 0.56,0.12 h 3.88 q 2.84,0 3.8,-0.6 1,-0.64 1,-2.36 v -0.16 q 0,-1.72 -1,-2.32 -0.96,-0.64 -3.8,-0.64 z"
           id="path7718" /><path
           d="m -871.53716,-1313.9439 h -3.32 q -0.88,0 -1.44,-0.56 -0.56,-0.56 -0.56,-1.44 v -23.6 q 0,-0.88 0.56,-1.44 0.56,-0.56 1.44,-0.56 h 3.32 q 0.88,0 1.44,0.56 0.56,0.56 0.56,1.44 v 23.6 q 0,0.88 -0.56,1.44 -0.56,0.56 -1.44,0.56 z"
           id="path7720" /><path
           d="m -865.93713,-1315.9439 v -23.6 q 0,-0.88 0.56,-1.44 0.56,-0.56 1.44,-0.56 h 10.88 q 6,0 8.6,2.72 2.6,2.72 2.6,9.88 v 2.4 q 0,7.16 -2.6,9.88 -2.6,2.72 -8.6,2.72 h -10.88 q -0.88,0 -1.44,-0.56 -0.56,-0.56 -0.56,-1.44 z m 7.88,-19.12 q -0.4,0 -0.56,0.16 -0.12,0.12 -0.12,0.52 v 13.28 q 0,0.4 0.12,0.56 0.16,0.12 0.56,0.12 h 4.88 q 2.4,0 3.2,-1.24 0.8,-1.24 0.8,-5.08 v -2 q 0,-3.84 -0.8,-5.08 -0.8,-1.24 -3.2,-1.24 z"
           id="path7722" /><path
           d="m -840.5771,-1316.3039 4.76,-19.92 q 0.72,-3 2.16,-4.24 1.44,-1.28 4.08,-1.28 h 4.28 q 2.64,0 4.08,1.28 1.44,1.24 2.16,4.24 l 4.76,19.92 q 0.24,1.04 -0.2,1.72 -0.44,0.64 -1.6,0.64 h -2.88 q -1.28,0 -1.8,-0.44 -0.48,-0.48 -0.76,-1.6 l -0.8,-3.44 q -0.16,-0.64 -0.76,-0.64 h -8.68 q -0.6,0 -0.76,0.64 l -0.8,3.44 q -0.28,1.12 -0.8,1.6 -0.48,0.44 -1.76,0.44 h -2.88 q -1.16,0 -1.6,-0.64 -0.44,-0.68 -0.2,-1.72 z m 16.16,-10.2 q 0.6,0 0.48,-0.68 l -1.12,-6 q -0.24,-1.32 -0.64,-1.68 -0.4,-0.4 -1.44,-0.4 h -0.6 q -1,0 -1.4,0.4 -0.4,0.36 -0.68,1.68 l -1.12,6 q -0.12,0.68 0.48,0.68 z"
           id="path7724" /><path
           d="m -805.01712,-1313.9439 q -0.88,0 -1.44,-0.56 -0.56,-0.56 -0.56,-1.44 v -6 q 0,-0.8 -0.68,-1.12 -1.28,-0.6 -2.08,-1.68 -0.8,-1.08 -1.68,-3.32 l -4.36,-11.12 q -0.4,-1 0,-1.68 0.4,-0.68 1.32,-0.68 h 4 q 1.04,0 1.44,0.44 0.44,0.44 0.8,1.6 l 2.72,8.4 q 0.36,1.2 0.76,1.64 0.44,0.44 1.2,0.44 h 0.44 q 0.76,0 1.16,-0.44 0.44,-0.44 0.8,-1.64 l 2.72,-8.4 q 0.36,-1.16 0.76,-1.6 0.44,-0.44 1.48,-0.44 h 4 q 0.92,0 1.32,0.68 0.4,0.68 0,1.68 l -4.36,11.12 q -0.88,2.24 -1.68,3.32 -0.8,1.08 -2.08,1.68 -0.68,0.32 -0.68,1.12 v 6 q 0,0.88 -0.56,1.44 -0.56,0.56 -1.44,0.56 z"
           id="path7726" /></g><g
         aria-label="YELLOW 
"
         transform="matrix(0.87772735,0,0,0.87772735,534.82774,797.95302)"
         id="text15206"
         style="font-weight:bold;font-size:40px;line-height:0.85;font-family:Eurosoft-Bold;-inkscape-font-specification:'Eurosoft-Bold Bold';text-align:center;white-space:pre;shape-inside:url(#rect15208);display:inline;fill:none;stroke:#ffbd00;filter:url(#filter15210)"><path
           d="m -930.11718,-1313.9439 q -0.88,0 -1.44,-0.56 -0.56,-0.56 -0.56,-1.44 v -6 q 0,-0.8 -0.68,-1.12 -1.28,-0.6 -2.08,-1.68 -0.8,-1.08 -1.68,-3.32 l -4.36,-11.12 q -0.4,-1 0,-1.68 0.4,-0.68 1.32,-0.68 h 4 q 1.04,0 1.44,0.44 0.44,0.44 0.8,1.6 l 2.72,8.4 q 0.36,1.2 0.76,1.64 0.44,0.44 1.2,0.44 h 0.44 q 0.76,0 1.16,-0.44 0.44,-0.44 0.8,-1.64 l 2.72,-8.4 q 0.36,-1.16 0.76,-1.6 0.44,-0.44 1.48,-0.44 h 4 q 0.92,0 1.32,0.68 0.4,0.68 0,1.68 l -4.36,11.12 q -0.88,2.24 -1.68,3.32 -0.8,1.08 -2.08,1.68 -0.68,0.32 -0.68,1.12 v 6 q 0,0.88 -0.56,1.44 -0.56,0.56 -1.44,0.56 z"
           id="path7729" /><path
           d="m -914.99722,-1324.8239 v -5.88 q 0,-4.32 1.04,-6.72 1.04,-2.4 2.96,-3.24 1.92,-0.88 5.2,-0.88 h 10.04 q 0.88,0 1.44,0.56 0.56,0.56 0.56,1.44 v 2.48 q 0,0.88 -0.56,1.44 -0.56,0.56 -1.44,0.56 h -7.76 q -2.64,0 -3.4,0.56 -0.76,0.56 -0.76,2.56 v 0.12 q 0,0.4 0.12,0.56 0.16,0.12 0.56,0.12 h 9.64 q 0.88,0 1.44,0.56 0.56,0.56 0.56,1.44 v 2.36 q 0,0.88 -0.56,1.44 -0.56,0.56 -1.44,0.56 h -9.64 q -0.68,0 -0.68,0.68 v 0.12 q 0,2.28 0.72,2.92 0.76,0.64 3.44,0.64 h 7.76 q 0.88,0 1.44,0.56 0.56,0.56 0.56,1.44 v 2.48 q 0,0.88 -0.56,1.44 -0.56,0.56 -1.44,0.56 h -10.04 q -4.92,0 -7.08,-2.28 -2.12,-2.28 -2.12,-8.6 z"
           id="path7731" /><path
           d="m -873.7172,-1313.9439 h -8.44 q -4.92,0 -7.08,-2.32 -2.12,-2.36 -2.12,-8.68 v -14.6 q 0,-0.88 0.56,-1.44 0.56,-0.56 1.44,-0.56 h 3.32 q 0.88,0 1.44,0.56 0.56,0.56 0.56,1.44 v 15.64 q 0,2.2 0.72,2.84 0.72,0.64 3.4,0.64 h 6.2 q 0.88,0 1.44,0.56 0.56,0.56 0.56,1.44 v 2.48 q 0,0.88 -0.56,1.44 -0.56,0.56 -1.44,0.56 z"
           id="path7733" /><path
           d="m -852.47719,-1313.9439 h -8.44 q -4.92,0 -7.08,-2.32 -2.12,-2.36 -2.12,-8.68 v -14.6 q 0,-0.88 0.56,-1.44 0.56,-0.56 1.44,-0.56 h 3.32 q 0.88,0 1.44,0.56 0.56,0.56 0.56,1.44 v 15.64 q 0,2.2 0.72,2.84 0.72,0.64 3.4,0.64 h 6.2 q 0.88,0 1.44,0.56 0.56,0.56 0.56,1.44 v 2.48 q 0,0.88 -0.56,1.44 -0.56,0.56 -1.44,0.56 z"
           id="path7735" /><path
           d="m -838.07719,-1341.7439 q -6,0 -8.6,2.72 -2.6,2.72 -2.6,9.88 v 2.8 q 0,7.16 2.6,9.88 2.6,2.72 8.6,2.72 h 3.2 q 6,0 8.6,-2.72 2.6,-2.72 2.6,-9.88 v -2.8 q 0,-7.16 -2.6,-9.88 -2.6,-2.72 -8.6,-2.72 z m 7.08,12.72 v 2.56 q 0,3.8 -0.8,5.04 -0.76,1.2 -3.16,1.2 h -3.04 q -2.4,0 -3.2,-1.2 -0.76,-1.24 -0.76,-5.04 v -2.56 q 0,-3.8 0.76,-5 0.8,-1.24 3.2,-1.24 h 3.04 q 2.4,0 3.16,1.24 0.8,1.2 0.8,5 z"
           id="path7737" /><path
           d="m -802.63716,-1318.9039 -0.8,-11.84 q -0.04,-0.8 -0.2,-1.04 -0.16,-0.28 -0.48,-0.28 h -0.08 q -0.32,0 -0.48,0.28 -0.16,0.24 -0.2,1.04 l -0.8,11.84 q -0.2,3.08 -1.88,4.12 -1.64,1.04 -5.32,1.04 h -0.08 q -3.72,0 -5.24,-1.16 -1.48,-1.2 -1.72,-4.28 l -1.56,-20.08 q -0.08,-1.08 0.48,-1.68 0.56,-0.6 1.48,-0.6 h 3.28 q 0.88,0 1.4,0.56 0.52,0.52 0.6,1.44 l 1,17.2 q 0.08,1.44 0.16,1.8 0.12,0.32 0.52,0.32 h 0.04 q 0.4,0 0.52,-0.36 0.12,-0.36 0.2,-1.76 l 0.88,-11.68 q 0.2,-2.6 1.8,-3.56 1.64,-0.96 4.88,-0.96 h 0.16 q 3.24,0 4.84,0.96 1.64,0.96 1.84,3.56 l 0.88,11.68 q 0.08,1.4 0.2,1.76 0.12,0.36 0.52,0.36 h 0.04 q 0.4,0 0.48,-0.32 0.12,-0.32 0.2,-1.8 l 1,-17.2 q 0.08,-0.92 0.6,-1.44 0.52,-0.56 1.4,-0.56 h 3.28 q 0.92,0 1.48,0.6 0.56,0.6 0.48,1.68 l -1.56,20.08 q -0.24,3.08 -1.76,4.28 -1.48,1.16 -5.2,1.16 h -0.08 q -3.64,0 -5.32,-1.04 -1.68,-1.04 -1.88,-4.12 z"
           id="path7739" /></g><g
         aria-label="YELLOW 
"
         transform="matrix(0.87772735,0,0,0.87772735,534.82774,797.95302)"
         id="text546"
         style="font-weight:bold;font-size:40px;line-height:0.85;font-family:Eurosoft-Bold;-inkscape-font-specification:'Eurosoft-Bold Bold';text-align:center;white-space:pre;shape-inside:url(#rect548);display:inline;fill:none;stroke:#ffbd00;filter:url(#filter1106)"><path
           d="m -930.11718,-1313.9439 q -0.88,0 -1.44,-0.56 -0.56,-0.56 -0.56,-1.44 v -6 q 0,-0.8 -0.68,-1.12 -1.28,-0.6 -2.08,-1.68 -0.8,-1.08 -1.68,-3.32 l -4.36,-11.12 q -0.4,-1 0,-1.68 0.4,-0.68 1.32,-0.68 h 4 q 1.04,0 1.44,0.44 0.44,0.44 0.8,1.6 l 2.72,8.4 q 0.36,1.2 0.76,1.64 0.44,0.44 1.2,0.44 h 0.44 q 0.76,0 1.16,-0.44 0.44,-0.44 0.8,-1.64 l 2.72,-8.4 q 0.36,-1.16 0.76,-1.6 0.44,-0.44 1.48,-0.44 h 4 q 0.92,0 1.32,0.68 0.4,0.68 0,1.68 l -4.36,11.12 q -0.88,2.24 -1.68,3.32 -0.8,1.08 -2.08,1.68 -0.68,0.32 -0.68,1.12 v 6 q 0,0.88 -0.56,1.44 -0.56,0.56 -1.44,0.56 z"
           id="path7742" /><path
           d="m -914.99722,-1324.8239 v -5.88 q 0,-4.32 1.04,-6.72 1.04,-2.4 2.96,-3.24 1.92,-0.88 5.2,-0.88 h 10.04 q 0.88,0 1.44,0.56 0.56,0.56 0.56,1.44 v 2.48 q 0,0.88 -0.56,1.44 -0.56,0.56 -1.44,0.56 h -7.76 q -2.64,0 -3.4,0.56 -0.76,0.56 -0.76,2.56 v 0.12 q 0,0.4 0.12,0.56 0.16,0.12 0.56,0.12 h 9.64 q 0.88,0 1.44,0.56 0.56,0.56 0.56,1.44 v 2.36 q 0,0.88 -0.56,1.44 -0.56,0.56 -1.44,0.56 h -9.64 q -0.68,0 -0.68,0.68 v 0.12 q 0,2.28 0.72,2.92 0.76,0.64 3.44,0.64 h 7.76 q 0.88,0 1.44,0.56 0.56,0.56 0.56,1.44 v 2.48 q 0,0.88 -0.56,1.44 -0.56,0.56 -1.44,0.56 h -10.04 q -4.92,0 -7.08,-2.28 -2.12,-2.28 -2.12,-8.6 z"
           id="path7744" /><path
           d="m -873.7172,-1313.9439 h -8.44 q -4.92,0 -7.08,-2.32 -2.12,-2.36 -2.12,-8.68 v -14.6 q 0,-0.88 0.56,-1.44 0.56,-0.56 1.44,-0.56 h 3.32 q 0.88,0 1.44,0.56 0.56,0.56 0.56,1.44 v 15.64 q 0,2.2 0.72,2.84 0.72,0.64 3.4,0.64 h 6.2 q 0.88,0 1.44,0.56 0.56,0.56 0.56,1.44 v 2.48 q 0,0.88 -0.56,1.44 -0.56,0.56 -1.44,0.56 z"
           id="path7746" /><path
           d="m -852.47719,-1313.9439 h -8.44 q -4.92,0 -7.08,-2.32 -2.12,-2.36 -2.12,-8.68 v -14.6 q 0,-0.88 0.56,-1.44 0.56,-0.56 1.44,-0.56 h 3.32 q 0.88,0 1.44,0.56 0.56,0.56 0.56,1.44 v 15.64 q 0,2.2 0.72,2.84 0.72,0.64 3.4,0.64 h 6.2 q 0.88,0 1.44,0.56 0.56,0.56 0.56,1.44 v 2.48 q 0,0.88 -0.56,1.44 -0.56,0.56 -1.44,0.56 z"
           id="path7748" /><path
           d="m -838.07719,-1341.7439 q -6,0 -8.6,2.72 -2.6,2.72 -2.6,9.88 v 2.8 q 0,7.16 2.6,9.88 2.6,2.72 8.6,2.72 h 3.2 q 6,0 8.6,-2.72 2.6,-2.72 2.6,-9.88 v -2.8 q 0,-7.16 -2.6,-9.88 -2.6,-2.72 -8.6,-2.72 z m 7.08,12.72 v 2.56 q 0,3.8 -0.8,5.04 -0.76,1.2 -3.16,1.2 h -3.04 q -2.4,0 -3.2,-1.2 -0.76,-1.24 -0.76,-5.04 v -2.56 q 0,-3.8 0.76,-5 0.8,-1.24 3.2,-1.24 h 3.04 q 2.4,0 3.16,1.24 0.8,1.2 0.8,5 z"
           id="path7750" /><path
           d="m -802.63716,-1318.9039 -0.8,-11.84 q -0.04,-0.8 -0.2,-1.04 -0.16,-0.28 -0.48,-0.28 h -0.08 q -0.32,0 -0.48,0.28 -0.16,0.24 -0.2,1.04 l -0.8,11.84 q -0.2,3.08 -1.88,4.12 -1.64,1.04 -5.32,1.04 h -0.08 q -3.72,0 -5.24,-1.16 -1.48,-1.2 -1.72,-4.28 l -1.56,-20.08 q -0.08,-1.08 0.48,-1.68 0.56,-0.6 1.48,-0.6 h 3.28 q 0.88,0 1.4,0.56 0.52,0.52 0.6,1.44 l 1,17.2 q 0.08,1.44 0.16,1.8 0.12,0.32 0.52,0.32 h 0.04 q 0.4,0 0.52,-0.36 0.12,-0.36 0.2,-1.76 l 0.88,-11.68 q 0.2,-2.6 1.8,-3.56 1.64,-0.96 4.88,-0.96 h 0.16 q 3.24,0 4.84,0.96 1.64,0.96 1.84,3.56 l 0.88,11.68 q 0.08,1.4 0.2,1.76 0.12,0.36 0.52,0.36 h 0.04 q 0.4,0 0.48,-0.32 0.12,-0.32 0.2,-1.8 l 1,-17.2 q 0.08,-0.92 0.6,-1.44 0.52,-0.56 1.4,-0.56 h 3.28 q 0.92,0 1.48,0.6 0.56,0.6 0.48,1.68 l -1.56,20.08 q -0.24,3.08 -1.76,4.28 -1.48,1.16 -5.2,1.16 h -0.08 q -3.64,0 -5.32,-1.04 -1.68,-1.04 -1.88,-4.12 z"
           id="path7752" /></g><g
         aria-label="YELLOW 
"
         transform="matrix(0.87772735,0,0,0.87772735,534.82774,797.95302)"
         id="text1110"
         style="font-weight:bold;font-size:40px;line-height:0.85;font-family:Eurosoft-Bold;-inkscape-font-specification:'Eurosoft-Bold Bold';text-align:center;white-space:pre;shape-inside:url(#rect1112);display:inline;fill:none;stroke:#ffbd00"><path
           d="m -930.11718,-1313.9439 q -0.88,0 -1.44,-0.56 -0.56,-0.56 -0.56,-1.44 v -6 q 0,-0.8 -0.68,-1.12 -1.28,-0.6 -2.08,-1.68 -0.8,-1.08 -1.68,-3.32 l -4.36,-11.12 q -0.4,-1 0,-1.68 0.4,-0.68 1.32,-0.68 h 4 q 1.04,0 1.44,0.44 0.44,0.44 0.8,1.6 l 2.72,8.4 q 0.36,1.2 0.76,1.64 0.44,0.44 1.2,0.44 h 0.44 q 0.76,0 1.16,-0.44 0.44,-0.44 0.8,-1.64 l 2.72,-8.4 q 0.36,-1.16 0.76,-1.6 0.44,-0.44 1.48,-0.44 h 4 q 0.92,0 1.32,0.68 0.4,0.68 0,1.68 l -4.36,11.12 q -0.88,2.24 -1.68,3.32 -0.8,1.08 -2.08,1.68 -0.68,0.32 -0.68,1.12 v 6 q 0,0.88 -0.56,1.44 -0.56,0.56 -1.44,0.56 z"
           id="path7755" /><path
           d="m -914.99722,-1324.8239 v -5.88 q 0,-4.32 1.04,-6.72 1.04,-2.4 2.96,-3.24 1.92,-0.88 5.2,-0.88 h 10.04 q 0.88,0 1.44,0.56 0.56,0.56 0.56,1.44 v 2.48 q 0,0.88 -0.56,1.44 -0.56,0.56 -1.44,0.56 h -7.76 q -2.64,0 -3.4,0.56 -0.76,0.56 -0.76,2.56 v 0.12 q 0,0.4 0.12,0.56 0.16,0.12 0.56,0.12 h 9.64 q 0.88,0 1.44,0.56 0.56,0.56 0.56,1.44 v 2.36 q 0,0.88 -0.56,1.44 -0.56,0.56 -1.44,0.56 h -9.64 q -0.68,0 -0.68,0.68 v 0.12 q 0,2.28 0.72,2.92 0.76,0.64 3.44,0.64 h 7.76 q 0.88,0 1.44,0.56 0.56,0.56 0.56,1.44 v 2.48 q 0,0.88 -0.56,1.44 -0.56,0.56 -1.44,0.56 h -10.04 q -4.92,0 -7.08,-2.28 -2.12,-2.28 -2.12,-8.6 z"
           id="path7757" /><path
           d="m -873.7172,-1313.9439 h -8.44 q -4.92,0 -7.08,-2.32 -2.12,-2.36 -2.12,-8.68 v -14.6 q 0,-0.88 0.56,-1.44 0.56,-0.56 1.44,-0.56 h 3.32 q 0.88,0 1.44,0.56 0.56,0.56 0.56,1.44 v 15.64 q 0,2.2 0.72,2.84 0.72,0.64 3.4,0.64 h 6.2 q 0.88,0 1.44,0.56 0.56,0.56 0.56,1.44 v 2.48 q 0,0.88 -0.56,1.44 -0.56,0.56 -1.44,0.56 z"
           id="path7759" /><path
           d="m -852.47719,-1313.9439 h -8.44 q -4.92,0 -7.08,-2.32 -2.12,-2.36 -2.12,-8.68 v -14.6 q 0,-0.88 0.56,-1.44 0.56,-0.56 1.44,-0.56 h 3.32 q 0.88,0 1.44,0.56 0.56,0.56 0.56,1.44 v 15.64 q 0,2.2 0.72,2.84 0.72,0.64 3.4,0.64 h 6.2 q 0.88,0 1.44,0.56 0.56,0.56 0.56,1.44 v 2.48 q 0,0.88 -0.56,1.44 -0.56,0.56 -1.44,0.56 z"
           id="path7761" /><path
           d="m -838.07719,-1341.7439 q -6,0 -8.6,2.72 -2.6,2.72 -2.6,9.88 v 2.8 q 0,7.16 2.6,9.88 2.6,2.72 8.6,2.72 h 3.2 q 6,0 8.6,-2.72 2.6,-2.72 2.6,-9.88 v -2.8 q 0,-7.16 -2.6,-9.88 -2.6,-2.72 -8.6,-2.72 z m 7.08,12.72 v 2.56 q 0,3.8 -0.8,5.04 -0.76,1.2 -3.16,1.2 h -3.04 q -2.4,0 -3.2,-1.2 -0.76,-1.24 -0.76,-5.04 v -2.56 q 0,-3.8 0.76,-5 0.8,-1.24 3.2,-1.24 h 3.04 q 2.4,0 3.16,1.24 0.8,1.2 0.8,5 z"
           id="path7763" /><path
           d="m -802.63716,-1318.9039 -0.8,-11.84 q -0.04,-0.8 -0.2,-1.04 -0.16,-0.28 -0.48,-0.28 h -0.08 q -0.32,0 -0.48,0.28 -0.16,0.24 -0.2,1.04 l -0.8,11.84 q -0.2,3.08 -1.88,4.12 -1.64,1.04 -5.32,1.04 h -0.08 q -3.72,0 -5.24,-1.16 -1.48,-1.2 -1.72,-4.28 l -1.56,-20.08 q -0.08,-1.08 0.48,-1.68 0.56,-0.6 1.48,-0.6 h 3.28 q 0.88,0 1.4,0.56 0.52,0.52 0.6,1.44 l 1,17.2 q 0.08,1.44 0.16,1.8 0.12,0.32 0.52,0.32 h 0.04 q 0.4,0 0.52,-0.36 0.12,-0.36 0.2,-1.76 l 0.88,-11.68 q 0.2,-2.6 1.8,-3.56 1.64,-0.96 4.88,-0.96 h 0.16 q 3.24,0 4.84,0.96 1.64,0.96 1.84,3.56 l 0.88,11.68 q 0.08,1.4 0.2,1.76 0.12,0.36 0.52,0.36 h 0.04 q 0.4,0 0.48,-0.32 0.12,-0.32 0.2,-1.8 l 1,-17.2 q 0.08,-0.92 0.6,-1.44 0.52,-0.56 1.4,-0.56 h 3.28 q 0.92,0 1.48,0.6 0.56,0.6 0.48,1.68 l -1.56,20.08 q -0.24,3.08 -1.76,4.28 -1.48,1.16 -5.2,1.16 h -0.08 q -3.64,0 -5.32,-1.04 -1.68,-1.04 -1.88,-4.12 z"
           id="path7765" /></g></g><path
       id="rect14600"
       style="fill:#ce9901;stroke-width:8.59999;filter:url(#filter14792)"
       transform="matrix(0.62780579,0,0,0.62780579,54.792352,23.262098)"
       d="m 215.20212,52.578896 h 56.63736 v 2.17041 h -56.63736 z" /><g
       id="g14525"
       style="stroke:#ffbd00;stroke-opacity:1"
       transform="matrix(0.62780579,0,0,0.62780579,270.87462,62.662658)"><path
         style="fill:#ffffff;fill-opacity:1;stroke:#ffbd00;stroke-width:1.516;stroke-dasharray:none;stroke-opacity:1"
         d="m -128.98437,-9.095052 h 56.637366"
         id="path14520" /></g><path
       style="fill:#ffffff;fill-opacity:1;stroke:#ffbd00;stroke-width:0.951754;stroke-dasharray:none;stroke-opacity:1"
       d="M 65.057733,56.952731 H 100.615"
       id="path14522" /><path
       id="rect15834"
       style="fill:#ce9901;stroke-width:8.59999;filter:url(#filter14792)"
       transform="matrix(0.62780579,0,0,0.62780579,54.792352,23.262098)"
       d="m 16.351204,52.578896 h 56.637363 v 2.17041 H 16.351204 Z" /><g
       id="g15144"
       transform="translate(-13.115666)"><path
         id="rect1880-1"
         style="fill:none;stroke:#ffbd00;stroke-width:0.278128"
         d="m 132.10283,75.521268 h 52.43304 c 2.04036,0 3.68296,1.642598 3.68296,3.682957 0,2.040358 -1.6426,3.682957 -3.68296,3.682957 h -52.43304 c -2.04035,0 -3.68295,-1.642599 -3.68295,-3.682957 0,-2.040359 1.6426,-3.682957 3.68295,-3.682957 z"
         sodipodi:nodetypes="sssssss" /><path
         id="rect3791-2"
         style="fill:none;stroke:#ffbd00;stroke-width:0.401108;filter:url(#filter3793-5)"
         d="m 126.2868,83.275925 h 75.65549 c 2.94254,0 5.31145,2.368905 5.31145,5.311447 0,2.942542 -2.36891,5.311448 -5.31145,5.311448 H 126.2868 c -2.94254,0 -5.31145,-2.368906 -5.31145,-5.311448 0,-2.942542 2.36891,-5.311447 5.31145,-5.311447 z"
         transform="matrix(0.69339986,0,0,0.69339986,44.535584,17.777753)"
         sodipodi:nodetypes="sssssss" /><path
         id="rect3803-7"
         style="fill:none;stroke:#ffbd00;stroke-width:0.278128"
         d="m 132.10283,75.521268 h 52.42019 c 2.04036,0 3.68296,1.642598 3.68296,3.682957 0,2.040358 -1.6426,3.682957 -3.68296,3.682957 h -52.42019 c -2.04035,0 -3.68295,-1.642599 -3.68295,-3.682957 0,-2.040359 1.6426,-3.682957 3.68295,-3.682957 z"
         sodipodi:nodetypes="sssssss" /><path
         id="rect3797-7"
         style="fill:none;stroke:#ffbd00;stroke-width:0.401108;filter:url(#filter3801-5)"
         d="m 126.2868,83.275925 h 75.76893 c 2.94254,0 5.31145,2.368905 5.31145,5.311447 0,2.942542 -2.36891,5.311448 -5.31145,5.311448 H 126.2868 c -2.94254,0 -5.31145,-2.368906 -5.31145,-5.311448 0,-2.942542 2.36891,-5.311447 5.31145,-5.311447 z"
         transform="matrix(0.69339986,0,0,0.69339986,44.535584,17.777753)"
         sodipodi:nodetypes="sssssss" /><g
         aria-label="CONFIRA"
         transform="matrix(0.2686451,0,0,0.2686451,52.744606,-29.644736)"
         id="text3857"
         style="font-weight:bold;font-size:16px;line-height:0;font-family:Eurosoft-Bold;-inkscape-font-specification:'Eurosoft-Bold Bold';text-align:center;text-anchor:middle;white-space:pre;shape-inside:url(#rect3859);display:inline;opacity:1;fill:#ffffff;fill-opacity:1;stroke-width:1.516"><g
           aria-label="CONFIRA AS PROMOÇÕES"
           transform="matrix(0.93666741,0,0,0.93666741,-19.584311,61.836727)"
           id="text13211"
           style="font-family:Inter;-inkscape-font-specification:'Inter Bold';shape-inside:url(#rect13213);display:inline;opacity:1;fill:#ffbd00"><path
             d="m 348.09378,364.68642 h -2.48864 q -0.0682,-0.48296 -0.27841,-0.85796 -0.21022,-0.38068 -0.53977,-0.64772 -0.32955,-0.26705 -0.76136,-0.40909 -0.42614,-0.14205 -0.92614,-0.14205 -0.90341,0 -1.57386,0.44886 -0.67046,0.44319 -1.03978,1.29546 -0.36931,0.84659 -0.36931,2.05682 0,1.24431 0.36931,2.09091 0.375,0.84659 1.04546,1.2784 0.67045,0.43182 1.55113,0.43182 0.49432,0 0.91478,-0.13068 0.42613,-0.13068 0.75568,-0.38068 0.32954,-0.25568 0.54545,-0.61932 0.22159,-0.36364 0.30682,-0.82954 l 2.48864,0.0114 q -0.0966,0.80114 -0.48296,1.54545 -0.38068,0.73864 -1.02841,1.32387 -0.64204,0.57954 -1.53409,0.92045 -0.88636,0.33523 -2.00568,0.33523 -1.55682,0 -2.78409,-0.70455 -1.22159,-0.70454 -1.93182,-2.03977 -0.70454,-1.33523 -0.70454,-3.23295 0,-1.90341 0.71591,-3.23864 0.71591,-1.33523 1.94318,-2.03409 1.22727,-0.70455 2.76136,-0.70455 1.01137,0 1.875,0.28409 0.86932,0.2841 1.53977,0.82955 0.67046,0.53977 1.09091,1.32386 0.42614,0.78409 0.54546,1.79546 z"
             id="path16071" /><path
             d="m 360.554,366.43074 q 0,1.90341 -0.72159,3.23863 -0.71591,1.33523 -1.95454,2.03978 -1.23296,0.69886 -2.77273,0.69886 -1.55114,0 -2.78409,-0.70455 -1.23296,-0.70454 -1.94887,-2.03977 -0.71591,-1.33523 -0.71591,-3.23295 0,-1.90341 0.71591,-3.23864 0.71591,-1.33523 1.94887,-2.03409 1.23295,-0.70455 2.78409,-0.70455 1.53977,0 2.77273,0.70455 1.23863,0.69886 1.95454,2.03409 0.72159,1.33523 0.72159,3.23864 z m -2.49432,0 q 0,-1.23296 -0.36931,-2.07955 -0.36364,-0.84659 -1.02841,-1.28409 -0.66478,-0.4375 -1.55682,-0.4375 -0.89205,0 -1.55682,0.4375 -0.66477,0.4375 -1.03409,1.28409 -0.36364,0.84659 -0.36364,2.07955 0,1.23295 0.36364,2.07954 0.36932,0.84659 1.03409,1.28409 0.66477,0.4375 1.55682,0.4375 0.89204,0 1.55682,-0.4375 0.66477,-0.4375 1.02841,-1.28409 0.36931,-0.84659 0.36931,-2.07954 z"
             id="path16073" /><path
             d="m 372.10513,360.61255 v 11.63637 h -2.125 l -5.0625,-7.32387 h -0.0852 v 7.32387 h -2.46023 v -11.63637 h 2.15909 l 5.02273,7.31819 h 0.10227 v -7.31819 z"
             id="path16075" /><path
             d="m 374.13353,372.24892 v -11.63637 h 7.70454 v 2.02841 h -5.24432 v 2.77273 h 4.73296 v 2.02841 h -4.73296 v 4.80682 z"
             id="path16077" /><path
             d="m 385.95169,360.61255 v 11.63637 h -2.46022 v -11.63637 z"
             id="path16079" /><path
             d="m 387.98011,372.24892 v -11.63637 h 4.59091 q 1.31818,0 2.25,0.4716 0.9375,0.4659 1.42614,1.32386 0.49432,0.85227 0.49432,2.00568 0,1.15909 -0.5,1.99432 -0.5,0.82954 -1.44887,1.27273 -0.94318,0.44318 -2.28409,0.44318 h -3.07386 v -1.97727 h 2.67614 q 0.70454,0 1.17045,-0.19319 0.46591,-0.19318 0.69318,-0.57954 0.23296,-0.38637 0.23296,-0.96023 0,-0.57954 -0.23296,-0.97727 -0.22727,-0.39773 -0.69886,-0.60227 -0.46591,-0.21023 -1.17614,-0.21023 h -1.65909 v 9.625 z m 6.28409,-5.29546 2.89205,5.29546 h -2.71591 l -2.82954,-5.29546 z"
             id="path16081" /><path
             d="m 400.4858,372.24892 h -2.63637 l 4.01705,-11.63637 h 3.17045 l 4.01137,11.63637 h -2.63637 l -2.91477,-8.97727 h -0.0909 z m -0.16478,-4.57387 h 6.22728 v 1.92046 h -6.22728 z"
             id="path16083" /><path
             d="m 416.16194,372.24892 h -2.63636 l 4.01704,-11.63637 h 3.17046 l 4.01136,11.63637 h -2.63636 l -2.91477,-8.97727 h -0.0909 z m -0.16477,-4.57387 h 6.22727 v 1.92046 h -6.22727 z"
             id="path16085" /><path
             d="m 432.16194,363.95915 q -0.0682,-0.6875 -0.58523,-1.06819 -0.51705,-0.38068 -1.40341,-0.38068 -0.60227,0 -1.01704,0.17046 -0.41478,0.16477 -0.63637,0.46022 -0.21591,0.29546 -0.21591,0.67046 -0.0114,0.3125 0.13068,0.54545 0.14773,0.23296 0.40341,0.40341 0.25569,0.16477 0.59091,0.28977 0.33523,0.11932 0.71591,0.20455 l 1.04546,0.25 q 0.76136,0.17045 1.39772,0.45455 0.63637,0.28409 1.10228,0.69886 0.46591,0.41477 0.72159,0.97727 0.26136,0.5625 0.26704,1.28977 -0.006,1.06819 -0.54545,1.85228 -0.53409,0.77841 -1.54546,1.21022 -1.00568,0.42614 -2.42613,0.42614 -1.40909,0 -2.45455,-0.43182 -1.03977,-0.43182 -1.625,-1.27841 -0.57954,-0.85227 -0.60795,-2.10795 h 2.38068 q 0.0398,0.58523 0.33523,0.97727 0.30113,0.38637 0.80113,0.58523 0.50568,0.19318 1.14205,0.19318 0.625,0 1.08523,-0.18182 0.4659,-0.18182 0.72159,-0.50568 0.25568,-0.32386 0.25568,-0.74432 0,-0.39204 -0.23296,-0.65909 -0.22727,-0.26704 -0.67045,-0.45454 -0.4375,-0.1875 -1.07386,-0.34091 l -1.26705,-0.31818 q -1.47159,-0.35796 -2.32386,-1.11932 -0.85228,-0.76137 -0.84659,-2.05114 -0.006,-1.05682 0.5625,-1.84659 0.57386,-0.78977 1.57386,-1.23295 1,-0.44319 2.27273,-0.44319 1.29545,0 2.26136,0.44319 0.97159,0.44318 1.51136,1.23295 0.53978,0.78977 0.55682,1.82955 z"
             id="path16087" /><path
             d="m 440.03694,372.24892 v -11.63637 h 4.59091 q 1.32386,0 2.25568,0.50569 0.93182,0.5 1.42045,1.39204 0.49432,0.88637 0.49432,2.04546 0,1.15909 -0.5,2.04545 -0.5,0.88636 -1.44886,1.38068 -0.94318,0.49432 -2.28409,0.49432 h -2.92614 v -1.97159 h 2.52841 q 0.71023,0 1.17045,-0.24432 0.46591,-0.25 0.69319,-0.6875 0.23295,-0.44318 0.23295,-1.01704 0,-0.57955 -0.23295,-1.01137 -0.22728,-0.4375 -0.69319,-0.67613 -0.46591,-0.24432 -1.18181,-0.24432 h -1.6591 v 9.625 z"
             id="path16089" /><path
             d="m 450.40058,372.24892 v -11.63637 h 4.59091 q 1.31819,0 2.25,0.4716 0.9375,0.4659 1.42614,1.32386 0.49432,0.85227 0.49432,2.00568 0,1.15909 -0.5,1.99432 -0.5,0.82954 -1.44887,1.27273 -0.94318,0.44318 -2.28409,0.44318 h -3.07386 v -1.97727 h 2.67614 q 0.70454,0 1.17045,-0.19319 0.46591,-0.19318 0.69318,-0.57954 0.23296,-0.38637 0.23296,-0.96023 0,-0.57954 -0.23296,-0.97727 -0.22727,-0.39773 -0.69886,-0.60227 -0.46591,-0.21023 -1.17614,-0.21023 h -1.65909 v 9.625 z m 6.2841,-5.29546 2.89204,5.29546 h -2.71591 l -2.82954,-5.29546 z"
             id="path16091" /><path
             d="m 471.59377,366.43074 q 0,1.90341 -0.72159,3.23863 -0.71591,1.33523 -1.95455,2.03978 -1.23295,0.69886 -2.77273,0.69886 -1.55113,0 -2.78409,-0.70455 -1.23295,-0.70454 -1.94886,-2.03977 -0.71591,-1.33523 -0.71591,-3.23295 0,-1.90341 0.71591,-3.23864 0.71591,-1.33523 1.94886,-2.03409 1.23296,-0.70455 2.78409,-0.70455 1.53978,0 2.77273,0.70455 1.23864,0.69886 1.95455,2.03409 0.72159,1.33523 0.72159,3.23864 z m -2.49432,0 q 0,-1.23296 -0.36932,-2.07955 -0.36364,-0.84659 -1.02841,-1.28409 -0.66477,-0.4375 -1.55682,-0.4375 -0.89204,0 -1.55682,0.4375 -0.66477,0.4375 -1.03409,1.28409 -0.36363,0.84659 -0.36363,2.07955 0,1.23295 0.36363,2.07954 0.36932,0.84659 1.03409,1.28409 0.66478,0.4375 1.55682,0.4375 0.89205,0 1.55682,-0.4375 0.66477,-0.4375 1.02841,-1.28409 0.36932,-0.84659 0.36932,-2.07954 z"
             id="path16093" /><path
             d="m 473.41194,360.61255 h 3.03409 l 3.20454,7.81819 h 0.13637 l 3.20454,-7.81819 h 3.03409 v 11.63637 h -2.38636 v -7.57387 h -0.0966 l -3.01136,7.51705 h -1.625 l -3.01137,-7.54545 h -0.0966 v 7.60227 h -2.38636 z"
             id="path16095" /><path
             d="m 498.74147,366.43074 q 0,1.90341 -0.72159,3.23863 -0.71591,1.33523 -1.95454,2.03978 -1.23296,0.69886 -2.77273,0.69886 -1.55114,0 -2.78409,-0.70455 -1.23296,-0.70454 -1.94887,-2.03977 -0.71591,-1.33523 -0.71591,-3.23295 0,-1.90341 0.71591,-3.23864 0.71591,-1.33523 1.94887,-2.03409 1.23295,-0.70455 2.78409,-0.70455 1.53977,0 2.77273,0.70455 1.23863,0.69886 1.95454,2.03409 0.72159,1.33523 0.72159,3.23864 z m -2.49432,0 q 0,-1.23296 -0.36931,-2.07955 -0.36364,-0.84659 -1.02841,-1.28409 -0.66478,-0.4375 -1.55682,-0.4375 -0.89205,0 -1.55682,0.4375 -0.66477,0.4375 -1.03409,1.28409 -0.36364,0.84659 -0.36364,2.07955 0,1.23295 0.36364,2.07954 0.36932,0.84659 1.03409,1.28409 0.66477,0.4375 1.55682,0.4375 0.89204,0 1.55682,-0.4375 0.66477,-0.4375 1.02841,-1.28409 0.36931,-0.84659 0.36931,-2.07954 z"
             id="path16097" /><path
             d="m 510.82669,364.68642 h -2.48864 q -0.0682,-0.48296 -0.27841,-0.85796 -0.21022,-0.38068 -0.53977,-0.64772 -0.32955,-0.26705 -0.76136,-0.40909 -0.42614,-0.14205 -0.92614,-0.14205 -0.90341,0 -1.57386,0.44886 -0.67046,0.44319 -1.03978,1.29546 -0.36931,0.84659 -0.36931,2.05682 0,1.24431 0.36931,2.09091 0.375,0.84659 1.04546,1.2784 0.67045,0.43182 1.55113,0.43182 0.49432,0 0.91478,-0.13068 0.42613,-0.13068 0.75568,-0.38068 0.32954,-0.25568 0.54545,-0.61932 0.22159,-0.36364 0.30682,-0.82954 l 2.48864,0.0114 q -0.0966,0.80114 -0.48296,1.54545 -0.38068,0.73864 -1.02841,1.32387 -0.64204,0.57954 -1.53409,0.92045 -0.88636,0.33523 -2.00568,0.33523 -1.55682,0 -2.78409,-0.70455 -1.22159,-0.70454 -1.93182,-2.03977 -0.70454,-1.33523 -0.70454,-3.23295 0,-1.90341 0.71591,-3.23864 0.71591,-1.33523 1.94318,-2.03409 1.22727,-0.70455 2.76136,-0.70455 1.01137,0 1.875,0.28409 0.86932,0.2841 1.53977,0.82955 0.67046,0.53977 1.09091,1.32386 0.42614,0.78409 0.54546,1.79546 z m -5.65909,7.52841 h 1.11363 l -0.0909,0.49432 q 0.58523,0.0909 0.95455,0.4375 0.375,0.34659 0.38068,0.94318 0.006,0.84659 -0.78409,1.34659 -0.78977,0.50568 -2.21591,0.50568 l -0.0227,-1.07955 q 0.71591,0 1.11932,-0.17613 0.40909,-0.17046 0.42614,-0.53409 0.0114,-0.34659 -0.26705,-0.52841 -0.27841,-0.18182 -0.86931,-0.25568 z"
             id="path16099" /><path
             d="m 523.28691,366.43074 q 0,1.90341 -0.72159,3.23863 -0.71591,1.33523 -1.95454,2.03978 -1.23296,0.69886 -2.77273,0.69886 -1.55114,0 -2.78409,-0.70455 -1.23296,-0.70454 -1.94887,-2.03977 -0.7159,-1.33523 -0.7159,-3.23295 0,-1.90341 0.7159,-3.23864 0.71591,-1.33523 1.94887,-2.03409 1.23295,-0.70455 2.78409,-0.70455 1.53977,0 2.77273,0.70455 1.23863,0.69886 1.95454,2.03409 0.72159,1.33523 0.72159,3.23864 z m -2.49432,0 q 0,-1.23296 -0.36931,-2.07955 -0.36364,-0.84659 -1.02841,-1.28409 -0.66478,-0.4375 -1.55682,-0.4375 -0.89205,0 -1.55682,0.4375 -0.66477,0.4375 -1.03409,1.28409 -0.36364,0.84659 -0.36364,2.07955 0,1.23295 0.36364,2.07954 0.36932,0.84659 1.03409,1.28409 0.66477,0.4375 1.55682,0.4375 0.89204,0 1.55682,-0.4375 0.66477,-0.4375 1.02841,-1.28409 0.36931,-0.84659 0.36931,-2.07954 z m -4.58522,-6.96591 -1.34091,-0.017 q 0,-1.08523 0.53409,-1.66477 0.53409,-0.57955 1.3125,-0.58523 0.39773,0 0.68182,0.13068 0.28409,0.125 0.51704,0.29546 0.23296,0.17045 0.44318,0.30113 0.21023,0.125 0.45455,0.125 0.32955,-0.006 0.5,-0.24431 0.17614,-0.24432 0.17614,-0.63637 l 1.32386,0.0398 q -0.0114,1.07386 -0.54545,1.65909 -0.5341,0.57954 -1.30682,0.58522 -0.42046,0.006 -0.71023,-0.125 -0.28409,-0.13068 -0.5,-0.29545 -0.21591,-0.17046 -0.42045,-0.30114 -0.20455,-0.13068 -0.46023,-0.13068 -0.29546,0 -0.47727,0.23296 -0.18182,0.23295 -0.18182,0.63068 z"
             id="path16101" /><path
             d="m 525.10508,372.24892 v -11.63637 h 7.84091 v 2.02841 h -5.38068 v 2.77273 h 4.97727 v 2.02841 h -4.97727 v 2.77841 h 5.40341 v 2.02841 z"
             id="path16103" /><path
             d="m 541.21873,363.95915 q -0.0682,-0.6875 -0.58523,-1.06819 -0.51704,-0.38068 -1.40341,-0.38068 -0.60227,0 -1.01704,0.17046 -0.41477,0.16477 -0.63636,0.46022 -0.21591,0.29546 -0.21591,0.67046 -0.0114,0.3125 0.13068,0.54545 0.14773,0.23296 0.40341,0.40341 0.25568,0.16477 0.59091,0.28977 0.33522,0.11932 0.71591,0.20455 l 1.04545,0.25 q 0.76136,0.17045 1.39773,0.45455 0.63636,0.28409 1.10227,0.69886 0.46591,0.41477 0.72159,0.97727 0.26136,0.5625 0.26705,1.28977 -0.006,1.06819 -0.54546,1.85228 -0.53409,0.77841 -1.54545,1.21022 -1.00568,0.42614 -2.42614,0.42614 -1.40909,0 -2.45454,-0.43182 -1.03978,-0.43182 -1.625,-1.27841 -0.57955,-0.85227 -0.60796,-2.10795 h 2.38068 q 0.0398,0.58523 0.33523,0.97727 0.30114,0.38637 0.80114,0.58523 0.50568,0.19318 1.14204,0.19318 0.625,0 1.08523,-0.18182 0.46591,-0.18182 0.72159,-0.50568 0.25568,-0.32386 0.25568,-0.74432 0,-0.39204 -0.23295,-0.65909 -0.22728,-0.26704 -0.67046,-0.45454 -0.4375,-0.1875 -1.07386,-0.34091 l -1.26705,-0.31818 q -1.47159,-0.35796 -2.32386,-1.11932 -0.85227,-0.76137 -0.84659,-2.05114 -0.006,-1.05682 0.5625,-1.84659 0.57386,-0.78977 1.57386,-1.23295 1,-0.44319 2.27273,-0.44319 1.29545,0 2.26136,0.44319 0.97159,0.44318 1.51137,1.23295 0.53977,0.78977 0.55682,1.82955 z"
             id="path16105" /></g></g><g
         aria-label="CONFIRA"
         transform="matrix(0.2686451,0,0,0.2686451,52.744606,-29.644736)"
         id="g15150"
         style="font-weight:bold;font-size:16px;line-height:0;font-family:Eurosoft-Bold;-inkscape-font-specification:'Eurosoft-Bold Bold';text-align:center;text-anchor:middle;white-space:pre;shape-inside:url(#rect3859);display:inline;opacity:1;fill:#ffffff;fill-opacity:1;stroke-width:1.516;filter:url(#filter15154)"><g
           aria-label="CONFIRA AS PROMOÇÕES"
           transform="matrix(0.93666741,0,0,0.93666741,-19.584311,61.836727)"
           id="text15148"
           style="font-family:Inter;-inkscape-font-specification:'Inter Bold';shape-inside:url(#rect15152);display:inline;opacity:1;fill:#ffbd00"><path
             d="m 348.09378,364.68642 h -2.48864 q -0.0682,-0.48296 -0.27841,-0.85796 -0.21022,-0.38068 -0.53977,-0.64772 -0.32955,-0.26705 -0.76136,-0.40909 -0.42614,-0.14205 -0.92614,-0.14205 -0.90341,0 -1.57386,0.44886 -0.67046,0.44319 -1.03978,1.29546 -0.36931,0.84659 -0.36931,2.05682 0,1.24431 0.36931,2.09091 0.375,0.84659 1.04546,1.2784 0.67045,0.43182 1.55113,0.43182 0.49432,0 0.91478,-0.13068 0.42613,-0.13068 0.75568,-0.38068 0.32954,-0.25568 0.54545,-0.61932 0.22159,-0.36364 0.30682,-0.82954 l 2.48864,0.0114 q -0.0966,0.80114 -0.48296,1.54545 -0.38068,0.73864 -1.02841,1.32387 -0.64204,0.57954 -1.53409,0.92045 -0.88636,0.33523 -2.00568,0.33523 -1.55682,0 -2.78409,-0.70455 -1.22159,-0.70454 -1.93182,-2.03977 -0.70454,-1.33523 -0.70454,-3.23295 0,-1.90341 0.71591,-3.23864 0.71591,-1.33523 1.94318,-2.03409 1.22727,-0.70455 2.76136,-0.70455 1.01137,0 1.875,0.28409 0.86932,0.2841 1.53977,0.82955 0.67046,0.53977 1.09091,1.32386 0.42614,0.78409 0.54546,1.79546 z"
             id="path16108" /><path
             d="m 360.554,366.43074 q 0,1.90341 -0.72159,3.23863 -0.71591,1.33523 -1.95454,2.03978 -1.23296,0.69886 -2.77273,0.69886 -1.55114,0 -2.78409,-0.70455 -1.23296,-0.70454 -1.94887,-2.03977 -0.71591,-1.33523 -0.71591,-3.23295 0,-1.90341 0.71591,-3.23864 0.71591,-1.33523 1.94887,-2.03409 1.23295,-0.70455 2.78409,-0.70455 1.53977,0 2.77273,0.70455 1.23863,0.69886 1.95454,2.03409 0.72159,1.33523 0.72159,3.23864 z m -2.49432,0 q 0,-1.23296 -0.36931,-2.07955 -0.36364,-0.84659 -1.02841,-1.28409 -0.66478,-0.4375 -1.55682,-0.4375 -0.89205,0 -1.55682,0.4375 -0.66477,0.4375 -1.03409,1.28409 -0.36364,0.84659 -0.36364,2.07955 0,1.23295 0.36364,2.07954 0.36932,0.84659 1.03409,1.28409 0.66477,0.4375 1.55682,0.4375 0.89204,0 1.55682,-0.4375 0.66477,-0.4375 1.02841,-1.28409 0.36931,-0.84659 0.36931,-2.07954 z"
             id="path16110" /><path
             d="m 372.10513,360.61255 v 11.63637 h -2.125 l -5.0625,-7.32387 h -0.0852 v 7.32387 h -2.46023 v -11.63637 h 2.15909 l 5.02273,7.31819 h 0.10227 v -7.31819 z"
             id="path16112" /><path
             d="m 374.13353,372.24892 v -11.63637 h 7.70454 v 2.02841 h -5.24432 v 2.77273 h 4.73296 v 2.02841 h -4.73296 v 4.80682 z"
             id="path16114" /><path
             d="m 385.95169,360.61255 v 11.63637 h -2.46022 v -11.63637 z"
             id="path16116" /><path
             d="m 387.98011,372.24892 v -11.63637 h 4.59091 q 1.31818,0 2.25,0.4716 0.9375,0.4659 1.42614,1.32386 0.49432,0.85227 0.49432,2.00568 0,1.15909 -0.5,1.99432 -0.5,0.82954 -1.44887,1.27273 -0.94318,0.44318 -2.28409,0.44318 h -3.07386 v -1.97727 h 2.67614 q 0.70454,0 1.17045,-0.19319 0.46591,-0.19318 0.69318,-0.57954 0.23296,-0.38637 0.23296,-0.96023 0,-0.57954 -0.23296,-0.97727 -0.22727,-0.39773 -0.69886,-0.60227 -0.46591,-0.21023 -1.17614,-0.21023 h -1.65909 v 9.625 z m 6.28409,-5.29546 2.89205,5.29546 h -2.71591 l -2.82954,-5.29546 z"
             id="path16118" /><path
             d="m 400.4858,372.24892 h -2.63637 l 4.01705,-11.63637 h 3.17045 l 4.01137,11.63637 h -2.63637 l -2.91477,-8.97727 h -0.0909 z m -0.16478,-4.57387 h 6.22728 v 1.92046 h -6.22728 z"
             id="path16120" /><path
             d="m 416.16194,372.24892 h -2.63636 l 4.01704,-11.63637 h 3.17046 l 4.01136,11.63637 h -2.63636 l -2.91477,-8.97727 h -0.0909 z m -0.16477,-4.57387 h 6.22727 v 1.92046 h -6.22727 z"
             id="path16122" /><path
             d="m 432.16194,363.95915 q -0.0682,-0.6875 -0.58523,-1.06819 -0.51705,-0.38068 -1.40341,-0.38068 -0.60227,0 -1.01704,0.17046 -0.41478,0.16477 -0.63637,0.46022 -0.21591,0.29546 -0.21591,0.67046 -0.0114,0.3125 0.13068,0.54545 0.14773,0.23296 0.40341,0.40341 0.25569,0.16477 0.59091,0.28977 0.33523,0.11932 0.71591,0.20455 l 1.04546,0.25 q 0.76136,0.17045 1.39772,0.45455 0.63637,0.28409 1.10228,0.69886 0.46591,0.41477 0.72159,0.97727 0.26136,0.5625 0.26704,1.28977 -0.006,1.06819 -0.54545,1.85228 -0.53409,0.77841 -1.54546,1.21022 -1.00568,0.42614 -2.42613,0.42614 -1.40909,0 -2.45455,-0.43182 -1.03977,-0.43182 -1.625,-1.27841 -0.57954,-0.85227 -0.60795,-2.10795 h 2.38068 q 0.0398,0.58523 0.33523,0.97727 0.30113,0.38637 0.80113,0.58523 0.50568,0.19318 1.14205,0.19318 0.625,0 1.08523,-0.18182 0.4659,-0.18182 0.72159,-0.50568 0.25568,-0.32386 0.25568,-0.74432 0,-0.39204 -0.23296,-0.65909 -0.22727,-0.26704 -0.67045,-0.45454 -0.4375,-0.1875 -1.07386,-0.34091 l -1.26705,-0.31818 q -1.47159,-0.35796 -2.32386,-1.11932 -0.85228,-0.76137 -0.84659,-2.05114 -0.006,-1.05682 0.5625,-1.84659 0.57386,-0.78977 1.57386,-1.23295 1,-0.44319 2.27273,-0.44319 1.29545,0 2.26136,0.44319 0.97159,0.44318 1.51136,1.23295 0.53978,0.78977 0.55682,1.82955 z"
             id="path16124" /><path
             d="m 440.03694,372.24892 v -11.63637 h 4.59091 q 1.32386,0 2.25568,0.50569 0.93182,0.5 1.42045,1.39204 0.49432,0.88637 0.49432,2.04546 0,1.15909 -0.5,2.04545 -0.5,0.88636 -1.44886,1.38068 -0.94318,0.49432 -2.28409,0.49432 h -2.92614 v -1.97159 h 2.52841 q 0.71023,0 1.17045,-0.24432 0.46591,-0.25 0.69319,-0.6875 0.23295,-0.44318 0.23295,-1.01704 0,-0.57955 -0.23295,-1.01137 -0.22728,-0.4375 -0.69319,-0.67613 -0.46591,-0.24432 -1.18181,-0.24432 h -1.6591 v 9.625 z"
             id="path16126" /><path
             d="m 450.40058,372.24892 v -11.63637 h 4.59091 q 1.31819,0 2.25,0.4716 0.9375,0.4659 1.42614,1.32386 0.49432,0.85227 0.49432,2.00568 0,1.15909 -0.5,1.99432 -0.5,0.82954 -1.44887,1.27273 -0.94318,0.44318 -2.28409,0.44318 h -3.07386 v -1.97727 h 2.67614 q 0.70454,0 1.17045,-0.19319 0.46591,-0.19318 0.69318,-0.57954 0.23296,-0.38637 0.23296,-0.96023 0,-0.57954 -0.23296,-0.97727 -0.22727,-0.39773 -0.69886,-0.60227 -0.46591,-0.21023 -1.17614,-0.21023 h -1.65909 v 9.625 z m 6.2841,-5.29546 2.89204,5.29546 h -2.71591 l -2.82954,-5.29546 z"
             id="path16128" /><path
             d="m 471.59377,366.43074 q 0,1.90341 -0.72159,3.23863 -0.71591,1.33523 -1.95455,2.03978 -1.23295,0.69886 -2.77273,0.69886 -1.55113,0 -2.78409,-0.70455 -1.23295,-0.70454 -1.94886,-2.03977 -0.71591,-1.33523 -0.71591,-3.23295 0,-1.90341 0.71591,-3.23864 0.71591,-1.33523 1.94886,-2.03409 1.23296,-0.70455 2.78409,-0.70455 1.53978,0 2.77273,0.70455 1.23864,0.69886 1.95455,2.03409 0.72159,1.33523 0.72159,3.23864 z m -2.49432,0 q 0,-1.23296 -0.36932,-2.07955 -0.36364,-0.84659 -1.02841,-1.28409 -0.66477,-0.4375 -1.55682,-0.4375 -0.89204,0 -1.55682,0.4375 -0.66477,0.4375 -1.03409,1.28409 -0.36363,0.84659 -0.36363,2.07955 0,1.23295 0.36363,2.07954 0.36932,0.84659 1.03409,1.28409 0.66478,0.4375 1.55682,0.4375 0.89205,0 1.55682,-0.4375 0.66477,-0.4375 1.02841,-1.28409 0.36932,-0.84659 0.36932,-2.07954 z"
             id="path16130" /><path
             d="m 473.41194,360.61255 h 3.03409 l 3.20454,7.81819 h 0.13637 l 3.20454,-7.81819 h 3.03409 v 11.63637 h -2.38636 v -7.57387 h -0.0966 l -3.01136,7.51705 h -1.625 l -3.01137,-7.54545 h -0.0966 v 7.60227 h -2.38636 z"
             id="path16132" /><path
             d="m 498.74147,366.43074 q 0,1.90341 -0.72159,3.23863 -0.71591,1.33523 -1.95454,2.03978 -1.23296,0.69886 -2.77273,0.69886 -1.55114,0 -2.78409,-0.70455 -1.23296,-0.70454 -1.94887,-2.03977 -0.71591,-1.33523 -0.71591,-3.23295 0,-1.90341 0.71591,-3.23864 0.71591,-1.33523 1.94887,-2.03409 1.23295,-0.70455 2.78409,-0.70455 1.53977,0 2.77273,0.70455 1.23863,0.69886 1.95454,2.03409 0.72159,1.33523 0.72159,3.23864 z m -2.49432,0 q 0,-1.23296 -0.36931,-2.07955 -0.36364,-0.84659 -1.02841,-1.28409 -0.66478,-0.4375 -1.55682,-0.4375 -0.89205,0 -1.55682,0.4375 -0.66477,0.4375 -1.03409,1.28409 -0.36364,0.84659 -0.36364,2.07955 0,1.23295 0.36364,2.07954 0.36932,0.84659 1.03409,1.28409 0.66477,0.4375 1.55682,0.4375 0.89204,0 1.55682,-0.4375 0.66477,-0.4375 1.02841,-1.28409 0.36931,-0.84659 0.36931,-2.07954 z"
             id="path16134" /><path
             d="m 510.82669,364.68642 h -2.48864 q -0.0682,-0.48296 -0.27841,-0.85796 -0.21022,-0.38068 -0.53977,-0.64772 -0.32955,-0.26705 -0.76136,-0.40909 -0.42614,-0.14205 -0.92614,-0.14205 -0.90341,0 -1.57386,0.44886 -0.67046,0.44319 -1.03978,1.29546 -0.36931,0.84659 -0.36931,2.05682 0,1.24431 0.36931,2.09091 0.375,0.84659 1.04546,1.2784 0.67045,0.43182 1.55113,0.43182 0.49432,0 0.91478,-0.13068 0.42613,-0.13068 0.75568,-0.38068 0.32954,-0.25568 0.54545,-0.61932 0.22159,-0.36364 0.30682,-0.82954 l 2.48864,0.0114 q -0.0966,0.80114 -0.48296,1.54545 -0.38068,0.73864 -1.02841,1.32387 -0.64204,0.57954 -1.53409,0.92045 -0.88636,0.33523 -2.00568,0.33523 -1.55682,0 -2.78409,-0.70455 -1.22159,-0.70454 -1.93182,-2.03977 -0.70454,-1.33523 -0.70454,-3.23295 0,-1.90341 0.71591,-3.23864 0.71591,-1.33523 1.94318,-2.03409 1.22727,-0.70455 2.76136,-0.70455 1.01137,0 1.875,0.28409 0.86932,0.2841 1.53977,0.82955 0.67046,0.53977 1.09091,1.32386 0.42614,0.78409 0.54546,1.79546 z m -5.65909,7.52841 h 1.11363 l -0.0909,0.49432 q 0.58523,0.0909 0.95455,0.4375 0.375,0.34659 0.38068,0.94318 0.006,0.84659 -0.78409,1.34659 -0.78977,0.50568 -2.21591,0.50568 l -0.0227,-1.07955 q 0.71591,0 1.11932,-0.17613 0.40909,-0.17046 0.42614,-0.53409 0.0114,-0.34659 -0.26705,-0.52841 -0.27841,-0.18182 -0.86931,-0.25568 z"
             id="path16136" /><path
             d="m 523.28691,366.43074 q 0,1.90341 -0.72159,3.23863 -0.71591,1.33523 -1.95454,2.03978 -1.23296,0.69886 -2.77273,0.69886 -1.55114,0 -2.78409,-0.70455 -1.23296,-0.70454 -1.94887,-2.03977 -0.7159,-1.33523 -0.7159,-3.23295 0,-1.90341 0.7159,-3.23864 0.71591,-1.33523 1.94887,-2.03409 1.23295,-0.70455 2.78409,-0.70455 1.53977,0 2.77273,0.70455 1.23863,0.69886 1.95454,2.03409 0.72159,1.33523 0.72159,3.23864 z m -2.49432,0 q 0,-1.23296 -0.36931,-2.07955 -0.36364,-0.84659 -1.02841,-1.28409 -0.66478,-0.4375 -1.55682,-0.4375 -0.89205,0 -1.55682,0.4375 -0.66477,0.4375 -1.03409,1.28409 -0.36364,0.84659 -0.36364,2.07955 0,1.23295 0.36364,2.07954 0.36932,0.84659 1.03409,1.28409 0.66477,0.4375 1.55682,0.4375 0.89204,0 1.55682,-0.4375 0.66477,-0.4375 1.02841,-1.28409 0.36931,-0.84659 0.36931,-2.07954 z m -4.58522,-6.96591 -1.34091,-0.017 q 0,-1.08523 0.53409,-1.66477 0.53409,-0.57955 1.3125,-0.58523 0.39773,0 0.68182,0.13068 0.28409,0.125 0.51704,0.29546 0.23296,0.17045 0.44318,0.30113 0.21023,0.125 0.45455,0.125 0.32955,-0.006 0.5,-0.24431 0.17614,-0.24432 0.17614,-0.63637 l 1.32386,0.0398 q -0.0114,1.07386 -0.54545,1.65909 -0.5341,0.57954 -1.30682,0.58522 -0.42046,0.006 -0.71023,-0.125 -0.28409,-0.13068 -0.5,-0.29545 -0.21591,-0.17046 -0.42045,-0.30114 -0.20455,-0.13068 -0.46023,-0.13068 -0.29546,0 -0.47727,0.23296 -0.18182,0.23295 -0.18182,0.63068 z"
             id="path16138" /><path
             d="m 525.10508,372.24892 v -11.63637 h 7.84091 v 2.02841 h -5.38068 v 2.77273 h 4.97727 v 2.02841 h -4.97727 v 2.77841 h 5.40341 v 2.02841 z"
             id="path16140" /><path
             d="m 541.21873,363.95915 q -0.0682,-0.6875 -0.58523,-1.06819 -0.51704,-0.38068 -1.40341,-0.38068 -0.60227,0 -1.01704,0.17046 -0.41477,0.16477 -0.63636,0.46022 -0.21591,0.29546 -0.21591,0.67046 -0.0114,0.3125 0.13068,0.54545 0.14773,0.23296 0.40341,0.40341 0.25568,0.16477 0.59091,0.28977 0.33522,0.11932 0.71591,0.20455 l 1.04545,0.25 q 0.76136,0.17045 1.39773,0.45455 0.63636,0.28409 1.10227,0.69886 0.46591,0.41477 0.72159,0.97727 0.26136,0.5625 0.26705,1.28977 -0.006,1.06819 -0.54546,1.85228 -0.53409,0.77841 -1.54545,1.21022 -1.00568,0.42614 -2.42614,0.42614 -1.40909,0 -2.45454,-0.43182 -1.03978,-0.43182 -1.625,-1.27841 -0.57955,-0.85227 -0.60796,-2.10795 h 2.38068 q 0.0398,0.58523 0.33523,0.97727 0.30114,0.38637 0.80114,0.58523 0.50568,0.19318 1.14204,0.19318 0.625,0 1.08523,-0.18182 0.46591,-0.18182 0.72159,-0.50568 0.25568,-0.32386 0.25568,-0.74432 0,-0.39204 -0.23295,-0.65909 -0.22728,-0.26704 -0.67046,-0.45454 -0.4375,-0.1875 -1.07386,-0.34091 l -1.26705,-0.31818 q -1.47159,-0.35796 -2.32386,-1.11932 -0.85227,-0.76137 -0.84659,-2.05114 -0.006,-1.05682 0.5625,-1.84659 0.57386,-0.78977 1.57386,-1.23295 1,-0.44319 2.27273,-0.44319 1.29545,0 2.26136,0.44319 0.97159,0.44318 1.51137,1.23295 0.53977,0.78977 0.55682,1.82955 z"
             id="path16142" /></g></g></g></g><g
     id="g7535"
     transform="matrix(0.12883399,0,0,0.12883399,86.786654,28.852834)"
     style="fill:#ffffff"><g
       id="g6903"
       transform="matrix(0.35277777,0,0,-0.35277776,345.88666,217.04796)"
       style="fill:#ffffff"><g
         id="g6905"
         clip-path="url(#clipPath6909)"
         style="fill:#ffffff"><g
           id="g6911"
           transform="translate(214.9136,479.0034)"
           style="fill:#ffffff"><path
             d="m 0,0 c 0,-23.173 0.004,-46.346 -0.005,-69.519 -0.002,-3.824 0.416,-3.395 -3.514,-3.4 -11.271,-0.015 -22.541,-0.008 -33.811,-0.003 -2.505,10e-4 -2.516,0.014 -2.521,2.464 -0.008,4.555 10e-4,9.11 -0.003,13.665 -0.002,2.624 -0.007,2.631 -2.571,2.631 -18.943,0.003 -37.887,-0.002 -56.83,0.012 -0.861,0 -2.23,-0.39 -2.475,0.196 -0.4,0.952 0.907,1.492 1.535,2.123 10.43,10.478 20.913,20.903 31.319,31.405 1.336,1.348 2.66,1.966 4.587,1.937 7.192,-0.108 14.387,-0.046 21.581,-0.042 2.842,0.002 2.852,0.01 2.853,2.714 0.004,11.108 0.002,22.214 10e-4,33.321 0,0.4 0.016,0.8 -0.004,1.199 -0.056,1.104 -0.548,0.975 -1.185,0.406 -0.06,-0.053 -0.117,-0.109 -0.173,-0.166 -4.663,-4.823 -9.618,-9.36 -14.104,-14.358 -0.746,-0.832 -1.535,-1.626 -2.325,-2.418 -15.577,-15.615 -31.158,-31.228 -46.735,-46.843 -1.945,-1.949 -1.937,-1.956 -0.082,-3.981 2.694,-2.941 2.7,-2.947 -0.291,-5.718 -0.815,-0.756 -1.694,-1.443 -2.508,-2.201 -0.33,-0.307 -0.929,-0.604 -0.765,-1.097 0.183,-0.553 0.825,-0.262 1.253,-0.267 3.596,-0.042 7.195,-0.13 10.789,-0.036 1.924,0.05 3.602,-0.43 5.212,-1.407 7.923,-4.808 16.561,-7.594 25.664,-9.1 6.898,-1.141 13.604,0.019 20.285,1.541 2.916,0.664 3.02,0.633 3.027,-2.233 0.004,-1.997 0.099,-4.002 -0.03,-5.991 -0.107,-1.638 0.555,-2.031 2.072,-1.992 3.514,0.091 7.033,0.037 10.549,0.012 0.323,-0.003 0.875,0.268 0.946,-0.331 0.042,-0.349 -0.359,-0.442 -0.663,-0.549 -5.52,-1.933 -11.005,-3.824 -16.926,-4.426 -7.814,-0.795 -15.633,-0.576 -23.414,-0.297 -7.185,0.257 -14.146,2.279 -20.753,5.295 -5.869,2.68 -11.41,5.885 -16.441,9.938 -3.12,2.513 -5.734,5.552 -8.61,8.318 -1.794,1.726 -1.791,1.75 -3.599,-0.054 -4.242,-4.234 -8.468,-8.485 -12.718,-12.711 -0.365,-0.364 -0.674,-1.064 -1.294,-0.792 -0.2,0.088 -0.127,0.869 -0.127,1.333 -0.006,14.703 0.023,29.406 -0.046,44.109 -0.007,1.575 0.734,2.496 1.712,3.472 16.341,16.32 32.687,32.635 48.995,48.988 6.599,6.617 12.967,13.471 19.697,19.95 9.024,8.688 17.732,17.688 26.627,26.503 0.986,0.978 1.97,1.394 3.359,1.387 9.99,-0.05 19.982,-0.024 29.973,-0.029 2.474,-0.001 2.485,-0.012 2.485,-2.479 C 0.001,46.986 0,23.493 0,0"
             style="fill:#ffffff;fill-opacity:1;fill-rule:nonzero;stroke:none"
             id="path6913" /></g><g
           id="g6915"
           transform="translate(426.4355,482.5962)"
           style="fill:#ffffff"><path
             d="m 0,0 c 0,1.108 0.058,1.674 -0.01,2.225 -0.223,1.825 -1.628,2.12 -3.1,2.394 -1.744,0.323 -1.746,-0.952 -1.911,-2.017 -0.582,-3.769 -1.119,-7.546 -1.672,-11.32 -1.245,-8.489 -2.516,-16.975 -3.703,-25.472 -0.149,-1.07 -0.829,-2.416 0.44,-3.246 0.802,-0.524 3.349,0.564 4.018,1.594 0.297,0.459 0.518,0.998 0.647,1.532 0.354,1.465 0.711,2.935 0.944,4.423 0.948,6.042 1.872,12.088 2.756,18.14 C -0.993,-7.658 -0.479,-3.557 0,0 m -14.447,-48.58 c -5.238,0 -9.553,0.017 -13.868,-0.01 -1.318,-0.009 -1.87,0.006 -1.566,1.826 1.195,7.16 2.005,14.382 3.056,21.566 0.868,5.925 2.055,11.808 2.763,17.75 0.598,5.019 1.489,9.994 2.02,15.021 0.232,2.198 0.662,4.375 0.937,6.57 0.136,1.1 0.735,1.54 1.759,1.51 7.653,-0.222 15.311,0.404 22.966,-0.393 3.109,-0.324 6.125,-0.644 8.98,-2.028 2.978,-1.444 5.215,-5.195 4.831,-9.784 -0.379,-4.51 -0.94,-8.983 -1.597,-13.454 -0.715,-4.858 -1.274,-9.741 -2.051,-14.588 -0.7,-4.37 -1.366,-8.745 -2.243,-13.091 -1.165,-5.768 -5.134,-9.561 -10.922,-10.436 -5.326,-0.805 -10.663,-0.211 -15.065,-0.459"
             style="fill:#ffffff;fill-opacity:1;fill-rule:nonzero;stroke:none"
             id="path6917" /></g><g
           id="g6919"
           transform="translate(515.5557,485.1636)"
           style="fill:#ffffff"><path
             d="M 0,0 C 0.078,1.739 0.073,3.115 -1.588,3.429 -3.27,3.747 -4.304,2.837 -4.827,1.284 -4.954,0.908 -5.104,0.535 -5.173,0.147 c -0.482,-2.733 -0.994,-5.463 -1.408,-8.208 -1.101,-7.295 -2.183,-14.594 -3.217,-21.898 -0.434,-3.064 -0.747,-6.146 -1.078,-9.224 -0.115,-1.061 0.321,-1.954 1.369,-2.252 1.149,-0.327 2.244,-0.064 2.927,1.035 0.333,0.535 0.65,1.128 0.778,1.735 0.406,1.942 0.77,3.895 1.063,5.857 1.079,7.22 2.133,14.443 3.178,21.667 C -1.004,-7.293 -0.481,-3.44 0,0 m -11.066,-52.614 c -3.841,-0.208 -8.056,0.591 -11.702,3.359 -2.89,2.194 -4.767,5.02 -4.932,8.765 -0.234,5.327 0.439,10.568 1.345,15.809 0.818,4.732 1.334,9.515 2.041,14.267 0.555,3.735 1.117,7.467 2.173,11.114 1.886,6.509 6.23,10.571 12.554,12.515 6.669,2.05 13.349,2.136 19.717,-1.116 4.335,-2.214 6.458,-6.036 6.718,-10.809 0.217,-3.981 -0.61,-7.908 -1.101,-11.84 -0.637,-5.1 -1.46,-10.178 -2.231,-15.26 -0.713,-4.693 -1.175,-9.463 -2.787,-13.948 -2.456,-6.826 -7.827,-10.369 -14.539,-12.271 -2.186,-0.619 -4.402,-0.547 -7.256,-0.585"
             style="fill:#ffffff;fill-opacity:1;fill-rule:nonzero;stroke:none"
             id="path6921" /></g><g
           id="g6923"
           transform="translate(344.5215,470.4458)"
           style="fill:#ffffff"><path
             d="m 0,0 c -2.317,0 -4.635,0.014 -6.951,-0.005 -1.191,-0.01 -1.724,-0.005 -1.505,1.701 0.571,4.47 1.704,8.885 1.627,13.422 -0.016,0.874 0.753,2.18 -0.823,2.593 -2.037,0.535 -3.483,-0.052 -4.153,-1.776 -0.779,-2.007 -0.941,-4.16 -1.264,-6.268 -0.769,-5.004 -1.516,-10.012 -2.226,-15.025 -0.732,-5.175 -1.408,-10.357 -2.117,-15.535 -0.129,-0.941 -0.433,-1.879 -0.418,-2.815 0.021,-1.372 0.242,-2.832 1.968,-3.08 1.527,-0.219 2.625,0.582 3.133,2.013 0.876,2.471 1.218,5.076 1.526,7.652 0.187,1.571 0.646,3.098 0.625,4.715 -0.016,1.246 0.691,1.921 2.142,1.897 4.792,-0.08 9.588,-0.048 14.382,-0.019 1.236,0.007 1.598,-0.217 1.319,-1.655 -0.664,-3.414 -1.271,-6.834 -1.989,-10.243 -1.505,-7.159 -6.255,-11.405 -12.59,-13.858 -6.649,-2.574 -13.536,-2.486 -20.205,0.341 -4.198,1.779 -7.142,5.164 -7.184,10.367 -0.067,8.146 1.075,16.094 2.362,24.09 0.802,4.98 1.493,9.97 2.441,14.934 1.32,6.925 5.475,11.369 11.738,13.86 6.979,2.776 14.192,2.971 21.145,-0.045 6.085,-2.64 7.917,-6.47 7.561,-13.329 C 10.354,10.275 9.886,6.669 9.487,3.043 9.162,0.082 9.177,0.003 6.232,0 4.155,-0.002 2.077,0 0,0"
             style="fill:#ffffff;fill-opacity:1;fill-rule:nonzero;stroke:none"
             id="path6925" /></g><g
           id="g6927"
           transform="translate(375.6523,457.0283)"
           style="fill:#ffffff"><path
             d="m 0,0 c 3.564,0.04 3.137,-0.421 3.244,3.188 0.105,3.502 -0.003,6.999 0.369,10.509 0.393,3.712 0.024,7.489 0.576,11.211 0.045,0.307 -0.032,0.633 -0.052,0.95 C 3.637,25.745 3.692,25.256 3.586,24.936 3.012,23.2 2.449,21.456 1.969,19.691 0.38,13.858 -1.193,8.02 -2.729,2.172 -3.256,0.164 -3.11,0.042 -0.959,0.001 -0.64,-0.005 -0.319,0 0,0 m 5.288,41.229 c 3.515,0 7.029,-0.038 10.543,0.02 1.236,0.021 1.78,-0.236 1.94,-1.654 0.161,-1.424 0.319,-2.837 0.324,-4.268 0.063,-17.246 0.126,-34.494 0.178,-51.74 0.005,-1.597 0.042,-3.183 0.318,-4.764 0.219,-1.252 -0.19,-1.885 -1.648,-1.862 -4.791,0.074 -9.584,0.053 -14.376,0.01 -1.25,-0.011 -1.613,0.247 -1.386,1.641 0.407,2.506 0.059,5.082 0.517,7.622 0.259,1.435 -0.396,2.301 -2.161,2.298 -4.123,-0.008 -4.099,0.073 -4.988,-3.831 -0.475,-2.084 -1.077,-4.138 -1.56,-6.219 -0.253,-1.094 -0.768,-1.538 -1.962,-1.522 -4.951,0.066 -9.903,0.046 -14.855,0.015 -1.204,-0.008 -1.649,0.079 -1.208,1.572 1.937,6.572 3.649,13.211 5.52,19.803 3.894,13.717 7.871,27.411 11.709,41.145 0.399,1.426 1.039,1.758 2.313,1.746 3.594,-0.035 7.188,-0.012 10.782,-0.012"
             style="fill:#ffffff;fill-opacity:1;fill-rule:nonzero;stroke:none"
             id="path6929" /></g><g
           id="g6931"
           transform="translate(286.3472,457.0283)"
           style="fill:#ffffff"><path
             d="m 0,0 c 0.399,0 0.807,0.049 1.197,-0.009 1.728,-0.256 2.148,0.547 2.136,2.17 -0.056,7.415 0.288,14.818 0.912,22.208 0.04,0.475 0.352,1.296 -0.197,1.385 C 3.649,25.819 3.534,24.906 3.384,24.376 2.543,21.387 1.652,18.411 0.836,15.415 -0.375,10.96 -1.536,6.491 -2.724,2.029 -3.08,0.694 -2.885,-0.199 -1.198,-0.006 -0.803,0.039 -0.399,0 0,0 M 18.37,3.947 V -20.32 c 0,-2.685 0,-2.689 -2.771,-2.691 -4.315,-0.004 -8.629,0.014 -12.944,-0.011 -1.145,-0.006 -1.793,0.125 -1.484,1.605 0.57,2.732 0.014,5.574 0.651,8.326 0.245,1.054 -0.223,1.531 -1.411,1.611 -4.781,0.319 -5.251,-0.008 -6.152,-4.645 -0.347,-1.787 -0.793,-3.555 -1.178,-5.334 -0.226,-1.044 -0.668,-1.603 -1.917,-1.584 -5.033,0.077 -10.068,0.041 -15.101,0.025 -1.116,-0.003 -1.554,0.182 -1.158,1.523 2.441,8.245 4.787,16.517 7.139,24.788 2.81,9.875 5.594,19.758 8.385,29.639 0.663,2.348 1.338,4.693 1.95,7.055 0.251,0.97 0.865,1.242 1.756,1.242 7.431,-0.005 14.862,-0.023 22.293,0.013 1.55,0.008 1.271,-1.013 1.343,-1.946 C 18.612,28.38 18.002,17.443 18.37,3.947"
             style="fill:#ffffff;fill-opacity:1;fill-rule:nonzero;stroke:none"
             id="path6933" /></g><g
           id="g6935"
           transform="translate(468.1279,480.4399)"
           style="fill:#ffffff"><path
             d="m 0,0 c 0,0.319 0.031,0.642 -0.007,0.957 -0.057,0.48 0.249,1.02 -0.222,1.435 -0.184,-0.426 -0.425,-0.836 -0.542,-1.279 -1.783,-6.686 -3.884,-13.283 -5.466,-20.024 -1.127,-4.801 -1.164,-4.743 3.68,-4.533 1.296,0.056 1.609,0.539 1.613,1.721 C -0.92,-14.471 -0.467,-7.235 0,0 m 1.229,17.817 c 3.433,0 6.868,0.007 10.301,-0.002 2.344,-0.006 2.36,-0.017 2.368,-2.355 0.06,-15.488 0.024,-30.978 0.224,-46.465 0.058,-4.457 0.227,-8.921 0.33,-13.383 0.035,-1.526 -0.358,-2.106 -1.985,-2.07 -4.63,0.099 -9.265,0.097 -13.895,0 -1.55,-0.034 -1.793,0.625 -1.934,1.957 -0.276,2.577 0.708,5.017 0.58,7.583 -0.076,1.533 -0.458,2.05 -2.045,2.038 -3.875,-0.031 -3.878,0.051 -4.769,-3.686 -0.476,-2.001 -0.985,-3.995 -1.403,-6.008 -0.261,-1.257 -0.783,-1.902 -2.217,-1.878 -4.711,0.077 -9.424,0.068 -14.135,0.007 -1.675,-0.021 -2.051,0.462 -1.561,2.122 1.933,6.551 3.718,13.146 5.587,19.716 3.316,11.659 6.651,23.313 9.985,34.966 0.478,1.669 1.191,3.3 1.438,4.999 0.328,2.264 1.536,2.617 3.549,2.506 3.185,-0.175 6.387,-0.047 9.582,-0.047"
             style="fill:#ffffff;fill-opacity:1;fill-rule:nonzero;stroke:none"
             id="path6937" /></g><g
           id="g6939"
           transform="translate(79.6499,471.5825)"
           style="fill:#ffffff"><path
             d="m 0,0 c 0,4.717 -0.229,8.249 0.048,11.741 0.573,7.203 2.354,14.146 5.283,20.77 2.738,6.195 6.053,12.067 10.569,17.14 6.196,6.957 12.69,13.574 20.825,18.403 8.319,4.939 17.254,8.05 26.774,9.3 7.75,1.018 15.568,0.964 23.377,0.239 1.662,-0.154 3.292,-0.523 4.961,-0.584 0.283,-0.01 0.684,0.123 0.797,-0.274 0.1,-0.351 -0.217,-0.569 -0.438,-0.787 C 88.328,72.134 84.461,68.318 80.579,64.517 80.118,64.066 79.553,63.797 78.855,63.831 70.926,64.221 63.356,62.434 55.981,59.797 47.241,56.672 39.351,51.985 32.654,45.563 28.442,41.523 25.244,36.606 22.455,31.462 17.835,22.942 15.033,13.89 14.235,4.204 14.078,2.29 13.747,0.43 14.248,-1.476 14.488,-2.392 14.164,-3.18 13.404,-3.811 9.609,-6.958 5.824,-10.117 2.052,-13.291 1,-14.176 0.652,-14.255 0.442,-12.61 -0.144,-8.009 0.084,-3.402 0,0"
             style="fill:#ffffff;fill-opacity:1;fill-rule:nonzero;stroke:none"
             id="path6941" /></g><g
           id="g6943"
           transform="translate(254.7666,498.2573)"
           style="fill:#ffffff"><path
             d="m 0,0 c 5.512,0 11.025,0.002 16.537,-0.001 2.375,-0.001 2.336,-0.003 2.118,-2.326 -0.29,-3.077 -0.956,-6.095 -1.35,-9.152 -0.172,-1.33 -0.795,-1.505 -1.886,-1.483 -2.236,0.044 -4.474,-0.03 -6.71,0.028 -1.358,0.035 -1.915,-0.393 -2.111,-1.869 C 5.62,-22.174 4.614,-29.541 3.392,-36.879 2.378,-42.967 1.706,-49.111 0.87,-55.228 0.549,-57.582 0.243,-59.94 -0.166,-62.28 c -0.212,-1.21 -0.658,-2.069 -2.316,-2.014 -4.629,0.152 -9.266,0.072 -13.9,0.041 -1.351,-0.009 -1.832,0.065 -1.545,1.844 1.332,8.265 2.241,16.598 3.557,24.866 0.944,5.925 1.622,11.889 2.669,17.803 0.313,1.767 0.988,3.427 1.21,5.225 0.185,1.499 -0.311,1.594 -1.45,1.576 -2.316,-0.036 -4.636,0.053 -6.95,-0.034 -1.378,-0.052 -1.954,0.498 -1.777,1.808 0.466,3.447 0.947,6.892 1.477,10.329 0.182,1.179 1.217,0.815 1.934,0.819 C -12.064,0.014 -6.871,0 -1.678,0 Z"
             style="fill:#ffffff;fill-opacity:1;fill-rule:nonzero;stroke:none"
             id="path6945" /></g><g
           id="g6947"
           transform="translate(217.2993,443.8301)"
           style="fill:#ffffff"><path
             d="m 0,0 c 0,4.551 0.106,9.104 -0.035,13.651 -0.107,3.45 0.954,6.708 1.273,10.082 0.33,3.491 0.325,6.972 0.026,10.459 -0.276,3.218 -1.305,6.32 -1.285,9.595 0.059,10.298 0.015,20.597 0.04,30.896 0.002,0.478 -0.405,1.228 0.35,1.398 C 0.641,76.142 1.14,75.583 1.408,75.215 6.454,68.292 10.437,60.836 12.935,52.601 16.082,42.228 16.35,31.566 15.7,20.927 14.847,6.973 9.97,-5.665 1.633,-16.928 1.444,-17.184 1.23,-17.426 1,-17.645 0.783,-17.851 0.598,-18.218 0.231,-18.069 -0.135,-17.92 0.008,-17.531 0.007,-17.245 -0.004,-14.53 0,-11.816 0,-9.101 0,-6.067 0,-3.034 0,0"
             style="fill:#ffffff;fill-opacity:1;fill-rule:nonzero;stroke:none"
             id="path6949" /></g><g
           id="g6951"
           transform="translate(477.3652,501.1382)"
           style="fill:#ffffff"><path
             d="m 0,0 c -2.889,-0.148 -5.604,1.236 -8.427,2.247 -3.297,1.18 -6.452,1.364 -8.747,-1.93 -0.52,-0.747 -0.976,-0.677 -1.56,-0.31 -0.87,0.545 -1.705,1.141 -2.556,1.715 -2.83,1.906 -2.847,1.969 -0.602,4.518 2.89,3.281 6.145,5.862 10.896,5.235 2.372,-0.313 4.637,-1.07 6.831,-2.011 1.977,-0.847 3.947,-1.526 6.146,-0.843 1.01,0.313 2.076,0.591 2.556,1.573 0.661,1.353 1.269,1.327 2.314,0.374 C 7.961,9.556 9.253,8.745 10.439,7.813 10.988,7.383 11.574,7.03 11.001,6.077 8.998,2.747 4.146,-0.051 0,0"
             style="fill:#ffffff;fill-opacity:1;fill-rule:nonzero;stroke:none"
             id="path6953" /></g></g></g><text
       xml:space="preserve"
       style="font-variant:normal;font-weight:normal;font-stretch:normal;font-size:11.7098px;font-family:Impact;-inkscape-font-specification:Impact;writing-mode:lr-tb;fill:#ffffff;fill-opacity:1;fill-rule:nonzero;stroke:none;stroke-width:0.352778"
       id="text6957"
       x="435.74216"
       y="76.004387"><tspan
         x="435.74216 442.21765 448.61118 454.6651 456.72601 462.77997 469.18521 475.06351 479.51321 484.38446 492.78036 497.64575 503.98657 509.38477 515.77832"
         y="76.004387"
         sodipodi:role="line"
         id="tspan6955"
         style="fill:#ffffff;stroke-width:0.352778">DOS SUPLEMENTOS</tspan></text></g></svg>
