<?xml version="1.0" encoding="UTF-8" standalone="no"?>
<!-- Created with Inkscape (http://www.inkscape.org/) -->

<svg
   width="9.9580002mm"
   height="8.4840002mm"
   viewBox="0 0 9.9580002 8.4840002"
   version="1.1"
   id="svg5"
   inkscape:version="1.2.1 (9c6d41e410, 2022-07-14)"
   sodipodi:docname="arrow-icon-prev.svg"
   xmlns:inkscape="http://www.inkscape.org/namespaces/inkscape"
   xmlns:sodipodi="http://sodipodi.sourceforge.net/DTD/sodipodi-0.dtd"
   xmlns="http://www.w3.org/2000/svg"
   xmlns:svg="http://www.w3.org/2000/svg">
  <sodipodi:namedview
     id="namedview7"
     pagecolor="#ffffff"
     bordercolor="#000000"
     borderopacity="0.25"
     inkscape:showpageshadow="2"
     inkscape:pageopacity="0.0"
     inkscape:pagecheckerboard="0"
     inkscape:deskcolor="#d1d1d1"
     inkscape:document-units="mm"
     showgrid="false"
     inkscape:zoom="4.7572176"
     inkscape:cx="-0.21020691"
     inkscape:cy="36.365795"
     inkscape:window-width="1366"
     inkscape:window-height="705"
     inkscape:window-x="-8"
     inkscape:window-y="-8"
     inkscape:window-maximized="1"
     inkscape:current-layer="layer1" />
  <defs
     id="defs2" />
  <g
     inkscape:label="Camada 1"
     inkscape:groupmode="layer"
     id="layer1">
    <g
       aria-label="^
^"
       transform="rotate(-90,9.2210002,-0.73700009)"
       id="text236"
       style="font-weight:bold;font-size:16.9333px;line-height:0.3;font-family:Eurosoft-Bold;-inkscape-font-specification:'Eurosoft-Bold Bold';text-align:center;text-anchor:middle;fill:#ffffff;stroke-width:0.2">
      <path
         d="M 0.5759406,-5.4198708 0.2542079,-5.8432033 Q 2.0839693e-4,-6.1818693 2.0839693e-4,-6.5544019 q 0,-0.3725326 0.28786610307,-0.6095988 l 2.878661,-2.3198621 q 0.5757322,-0.4741324 1.0667979,-0.4741324 0.4910657,0 1.0667979,0.4741324 l 2.878661,2.3198621 q 0.3047994,0.2539995 0.3047994,0.6095988 0,0.3555993 -0.2709328,0.7111986 L 7.8911262,-5.4198708 Q 7.65406,-5.1150714 7.2815274,-5.0812048 6.9259281,-5.0642715 6.6211287,-5.2844044 L 4.6737992,-6.5205353 q -0.2709328,-0.169333 -0.4402658,-0.169333 -0.1523997,0 -0.4402658,0.169333 l -1.9473295,1.2361309 q -0.3047994,0.2201329 -0.677332,0.2031996 -0.3555993,-0.033867 -0.5926655,-0.338666 z"
         id="path3863" />
      <path
         d="M 0.5759406,-0.33988059 0.2542079,-0.76321309 Q 2.0839693e-4,-1.1018791 2.0839693e-4,-1.4744117 q 0,-0.3725326 0.28786610307,-0.6095988 l 2.878661,-2.3198621 q 0.5757322,-0.4741324 1.0667979,-0.4741324 0.4910657,0 1.0667979,0.4741324 l 2.878661,2.3198621 q 0.3047994,0.2539995 0.3047994,0.6095988 0,0.3555993 -0.2709328,0.71119861 l -0.3217327,0.4233325 q -0.2370662,0.3047994 -0.6095988,0.338666 -0.3555993,0.0169333 -0.6603987,-0.2031996 L 4.6737992,-1.4405451 q -0.2709328,-0.169333 -0.4402658,-0.169333 -0.1523997,0 -0.4402658,0.169333 l -1.9473295,1.23613091 q -0.3047994,0.2201329 -0.677332,0.2031996 -0.3555993,-0.0338666 -0.5926655,-0.338666 z"
         id="path3865" />
    </g>
  </g>
</svg>
