<?xml version="1.0" encoding="UTF-8" standalone="no"?>
<!-- Created with Inkscape (http://www.inkscape.org/) -->

<svg
   width="159.765mm"
   height="55.029999mm"
   viewBox="0 0 159.765 55.029999"
   version="1.1"
   id="svg5"
   inkscape:version="1.1.2 (b8e25be833, 2022-02-05)"
   sodipodi:docname="logo.svg"
   xmlns:inkscape="http://www.inkscape.org/namespaces/inkscape"
   xmlns:sodipodi="http://sodipodi.sourceforge.net/DTD/sodipodi-0.dtd"
   xmlns="http://www.w3.org/2000/svg"
   xmlns:svg="http://www.w3.org/2000/svg">
  <sodipodi:namedview
     id="namedview7"
     pagecolor="#ffffff"
     bordercolor="#666666"
     borderopacity="1.0"
     inkscape:pageshadow="2"
     inkscape:pageopacity="0.0"
     inkscape:pagecheckerboard="0"
     inkscape:document-units="mm"
     showgrid="false"
     inkscape:zoom="0.38039422"
     inkscape:cx="386.4412"
     inkscape:cy="194.53503"
     inkscape:window-width="1366"
     inkscape:window-height="697"
     inkscape:window-x="-8"
     inkscape:window-y="-8"
     inkscape:window-maximized="1"
     inkscape:current-layer="text1918" />
  <defs
     id="defs2">
    <rect
       x="-173.50421"
       y="407.47202"
       width="599.37817"
       height="299.68909"
       id="rect1706" />
    <clipPath
       clipPathUnits="userSpaceOnUse"
       id="clipPath1870">
      <path
         d="M 0,792 H 612 V 0 H 0 Z"
         id="path1868" />
    </clipPath>
  </defs>
  <g
     inkscape:label="Camada 1"
     inkscape:groupmode="layer"
     id="layer1">
    <text
       xml:space="preserve"
       transform="scale(0.26458333)"
       id="text1704"
       style="font-style:normal;font-variant:normal;font-weight:bold;font-stretch:normal;font-size:40px;line-height:1.25;font-family:'Product Sans';-inkscape-font-specification:'Product Sans Bold';white-space:pre;shape-inside:url(#rect1706);fill:#000000;fill-opacity:1;stroke:none" />
    <g
       id="g1862"
       inkscape:label="LOGO OFICIAL ATACADÃO DOS SUPLEMENTOS"
       transform="matrix(0.35277777,0,0,-0.35277777,-18.397933,280.76351)">
      <g
         id="g2268"
         transform="translate(-68.814333,94.03021)">
        <g
           id="g1872"
           transform="translate(256.31802,628.84795)"
           style="fill:#ffffff">
          <path
             d="m 0,0 c 0,-23.173 0.004,-46.346 -0.005,-69.519 -0.002,-3.824 0.416,-3.395 -3.514,-3.4 -11.271,-0.015 -22.541,-0.008 -33.811,-0.003 -2.505,10e-4 -2.516,0.014 -2.521,2.464 -0.008,4.555 10e-4,9.11 -0.003,13.665 -0.002,2.624 -0.007,2.631 -2.571,2.631 -18.943,0.003 -37.887,-0.002 -56.83,0.012 -0.861,0 -2.23,-0.39 -2.475,0.196 -0.4,0.952 0.907,1.492 1.535,2.123 10.43,10.478 20.913,20.903 31.319,31.405 1.336,1.348 2.66,1.966 4.587,1.937 7.192,-0.108 14.387,-0.046 21.581,-0.042 2.842,0.002 2.852,0.01 2.853,2.714 0.004,11.108 0.002,22.214 10e-4,33.321 0,0.4 0.016,0.8 -0.004,1.199 -0.056,1.104 -0.548,0.975 -1.185,0.406 -0.06,-0.053 -0.117,-0.109 -0.173,-0.166 -4.663,-4.823 -9.618,-9.36 -14.104,-14.358 -0.746,-0.832 -1.535,-1.626 -2.325,-2.418 -15.577,-15.615 -31.158,-31.228 -46.735,-46.843 -1.945,-1.949 -1.937,-1.956 -0.082,-3.981 2.694,-2.941 2.7,-2.947 -0.291,-5.718 -0.815,-0.756 -1.694,-1.443 -2.508,-2.201 -0.33,-0.307 -0.929,-0.604 -0.765,-1.097 0.183,-0.553 0.825,-0.262 1.253,-0.267 3.596,-0.042 7.195,-0.13 10.789,-0.036 1.924,0.05 3.602,-0.43 5.212,-1.407 7.923,-4.808 16.561,-7.594 25.664,-9.1 6.898,-1.141 13.604,0.019 20.285,1.541 2.916,0.664 3.02,0.633 3.027,-2.233 0.004,-1.997 0.099,-4.002 -0.03,-5.991 -0.107,-1.638 0.555,-2.031 2.072,-1.992 3.514,0.091 7.033,0.037 10.549,0.012 0.323,-0.003 0.875,0.268 0.946,-0.331 0.042,-0.349 -0.359,-0.442 -0.663,-0.549 -5.52,-1.933 -11.005,-3.824 -16.926,-4.426 -7.814,-0.795 -15.633,-0.576 -23.414,-0.297 -7.185,0.257 -14.146,2.279 -20.753,5.295 -5.869,2.68 -11.41,5.885 -16.441,9.938 -3.12,2.513 -5.734,5.552 -8.61,8.318 -1.794,1.726 -1.791,1.75 -3.599,-0.054 -4.242,-4.234 -8.468,-8.485 -12.718,-12.711 -0.365,-0.364 -0.674,-1.064 -1.294,-0.792 -0.2,0.088 -0.127,0.869 -0.127,1.333 -0.006,14.703 0.023,29.406 -0.046,44.109 -0.007,1.575 0.734,2.496 1.712,3.472 16.341,16.32 32.687,32.635 48.995,48.988 6.599,6.617 12.967,13.471 19.697,19.95 9.024,8.688 17.732,17.688 26.627,26.503 0.986,0.978 1.97,1.394 3.359,1.387 9.99,-0.05 19.982,-0.024 29.973,-0.029 2.474,-0.001 2.485,-0.012 2.485,-2.479 C 0.001,46.986 0,23.493 0,0"
             style="fill:#ffffff;fill-opacity:1;fill-rule:nonzero;stroke:none"
             id="path1874" />
        </g>
        <path
           d="m 467.83992,632.44075 c 0,1.108 0.058,1.674 -0.01,2.225 -0.223,1.825 -1.628,2.12 -3.1,2.394 -1.744,0.323 -1.746,-0.952 -1.911,-2.017 -0.582,-3.769 -1.119,-7.546 -1.672,-11.32 -1.245,-8.489 -2.516,-16.975 -3.703,-25.472 -0.149,-1.07 -0.829,-2.416 0.44,-3.246 0.802,-0.524 3.349,0.564 4.018,1.594 0.297,0.459 0.518,0.998 0.647,1.532 0.354,1.465 0.711,2.935 0.944,4.423 0.948,6.042 1.872,12.088 2.756,18.14 0.598,4.089 1.112,8.19 1.591,11.747 m -14.447,-48.58 c -5.238,0 -9.553,0.017 -13.868,-0.01 -1.318,-0.009 -1.87,0.006 -1.566,1.826 1.195,7.16 2.005,14.382 3.056,21.566 0.868,5.925 2.055,11.808 2.763,17.75 0.598,5.019 1.489,9.994 2.02,15.021 0.232,2.198 0.662,4.375 0.937,6.57 0.136,1.1 0.735,1.54 1.759,1.51 7.653,-0.222 15.311,0.404 22.966,-0.393 3.109,-0.324 6.125,-0.644 8.98,-2.028 2.978,-1.444 5.215,-5.195 4.831,-9.784 -0.379,-4.51 -0.94,-8.983 -1.597,-13.454 -0.715,-4.858 -1.274,-9.741 -2.051,-14.588 -0.7,-4.37 -1.366,-8.745 -2.243,-13.091 -1.165,-5.768 -5.134,-9.561 -10.922,-10.436 -5.326,-0.805 -10.663,-0.211 -15.065,-0.459"
           style="fill:#ffffff;fill-opacity:1;fill-rule:nonzero;stroke:none"
           id="path1878" />
        <path
           d="m 556.96012,635.00815 c 0.078,1.739 0.073,3.115 -1.588,3.429 -1.682,0.318 -2.716,-0.592 -3.239,-2.145 -0.127,-0.376 -0.277,-0.749 -0.346,-1.137 -0.482,-2.733 -0.994,-5.463 -1.408,-8.208 -1.101,-7.295 -2.183,-14.594 -3.217,-21.898 -0.434,-3.064 -0.747,-6.146 -1.078,-9.224 -0.115,-1.061 0.321,-1.954 1.369,-2.252 1.149,-0.327 2.244,-0.064 2.927,1.035 0.333,0.535 0.65,1.128 0.778,1.735 0.406,1.942 0.77,3.895 1.063,5.857 1.079,7.22 2.133,14.443 3.178,21.667 0.557,3.848 1.08,7.701 1.561,11.141 m -11.066,-52.614 c -3.841,-0.208 -8.056,0.591 -11.702,3.359 -2.89,2.194 -4.767,5.02 -4.932,8.765 -0.234,5.327 0.439,10.568 1.345,15.809 0.818,4.732 1.334,9.515 2.041,14.267 0.555,3.735 1.117,7.467 2.173,11.114 1.886,6.509 6.23,10.571 12.554,12.515 6.669,2.05 13.349,2.136 19.717,-1.116 4.335,-2.214 6.458,-6.036 6.718,-10.809 0.217,-3.981 -0.61,-7.908 -1.101,-11.84 -0.637,-5.1 -1.46,-10.178 -2.231,-15.26 -0.713,-4.693 -1.175,-9.463 -2.787,-13.948 -2.456,-6.826 -7.827,-10.369 -14.539,-12.271 -2.186,-0.619 -4.402,-0.547 -7.256,-0.585"
           style="fill:#ffffff;fill-opacity:1;fill-rule:nonzero;stroke:none"
           id="path1882" />
        <path
           d="m 385.92592,620.29035 c -2.317,0 -4.635,0.014 -6.951,-0.005 -1.191,-0.01 -1.724,-0.005 -1.505,1.701 0.571,4.47 1.704,8.885 1.627,13.422 -0.016,0.874 0.753,2.18 -0.823,2.593 -2.037,0.535 -3.483,-0.052 -4.153,-1.776 -0.779,-2.007 -0.941,-4.16 -1.264,-6.268 -0.769,-5.004 -1.516,-10.012 -2.226,-15.025 -0.732,-5.175 -1.408,-10.357 -2.117,-15.535 -0.129,-0.941 -0.433,-1.879 -0.418,-2.815 0.021,-1.372 0.242,-2.832 1.968,-3.08 1.527,-0.219 2.625,0.582 3.133,2.013 0.876,2.471 1.218,5.076 1.526,7.652 0.187,1.571 0.646,3.098 0.625,4.715 -0.016,1.246 0.691,1.921 2.142,1.897 4.792,-0.08 9.588,-0.048 14.382,-0.019 1.236,0.007 1.598,-0.217 1.319,-1.655 -0.664,-3.414 -1.271,-6.834 -1.989,-10.243 -1.505,-7.159 -6.255,-11.405 -12.59,-13.858 -6.649,-2.574 -13.536,-2.486 -20.205,0.341 -4.198,1.779 -7.142,5.164 -7.184,10.367 -0.067,8.146 1.075,16.094 2.362,24.09 0.802,4.98 1.493,9.97 2.441,14.934 1.32,6.925 5.475,11.369 11.738,13.86 6.979,2.776 14.192,2.971 21.145,-0.045 6.085,-2.64 7.917,-6.47 7.561,-13.329 -0.19,-3.657 -0.658,-7.263 -1.057,-10.889 -0.325,-2.961 -0.31,-3.04 -3.255,-3.043 -2.077,-0.002 -4.155,0 -6.232,0"
           style="fill:#ffffff;fill-opacity:1;fill-rule:nonzero;stroke:none"
           id="path1886" />
        <path
           d="m 417.05672,606.87285 c 3.564,0.04 3.137,-0.421 3.244,3.188 0.105,3.502 -0.003,6.999 0.369,10.509 0.393,3.712 0.024,7.489 0.576,11.211 0.045,0.307 -0.032,0.633 -0.052,0.95 -0.5,-0.113 -0.445,-0.602 -0.551,-0.922 -0.574,-1.736 -1.137,-3.48 -1.617,-5.245 -1.589,-5.833 -3.162,-11.671 -4.698,-17.519 -0.527,-2.008 -0.381,-2.13 1.77,-2.171 0.319,-0.006 0.64,-10e-4 0.959,-10e-4 m 5.288,41.229 c 3.515,0 7.029,-0.038 10.543,0.02 1.236,0.021 1.78,-0.236 1.94,-1.654 0.161,-1.424 0.319,-2.837 0.324,-4.268 0.063,-17.246 0.126,-34.494 0.178,-51.74 0.005,-1.597 0.042,-3.183 0.318,-4.764 0.219,-1.252 -0.19,-1.885 -1.648,-1.862 -4.791,0.074 -9.584,0.053 -14.376,0.01 -1.25,-0.011 -1.613,0.247 -1.386,1.641 0.407,2.506 0.059,5.082 0.517,7.622 0.259,1.435 -0.396,2.301 -2.161,2.298 -4.123,-0.008 -4.099,0.073 -4.988,-3.831 -0.475,-2.084 -1.077,-4.138 -1.56,-6.219 -0.253,-1.094 -0.768,-1.538 -1.962,-1.522 -4.951,0.066 -9.903,0.046 -14.855,0.015 -1.204,-0.008 -1.649,0.079 -1.208,1.572 1.937,6.572 3.649,13.211 5.52,19.803 3.894,13.717 7.871,27.411 11.709,41.145 0.399,1.426 1.039,1.758 2.313,1.746 3.594,-0.035 7.188,-0.012 10.782,-0.012"
           style="fill:#ffffff;fill-opacity:1;fill-rule:nonzero;stroke:none"
           id="path1890" />
        <path
           d="m 327.75162,606.87285 c 0.399,0 0.807,0.049 1.197,-0.009 1.728,-0.256 2.148,0.547 2.136,2.17 -0.056,7.415 0.288,14.818 0.912,22.208 0.04,0.475 0.352,1.296 -0.197,1.385 -0.399,0.065 -0.514,-0.848 -0.664,-1.378 -0.841,-2.989 -1.732,-5.965 -2.548,-8.961 -1.211,-4.455 -2.372,-8.924 -3.56,-13.386 -0.356,-1.335 -0.161,-2.228 1.526,-2.035 0.395,0.045 0.799,0.006 1.198,0.006 m 18.37,3.947 v -24.267 c 0,-2.685 0,-2.689 -2.771,-2.691 -4.315,-0.004 -8.629,0.014 -12.944,-0.011 -1.145,-0.006 -1.793,0.125 -1.484,1.605 0.57,2.732 0.014,5.574 0.651,8.326 0.245,1.054 -0.223,1.531 -1.411,1.611 -4.781,0.319 -5.251,-0.008 -6.152,-4.645 -0.347,-1.787 -0.793,-3.555 -1.178,-5.334 -0.226,-1.044 -0.668,-1.603 -1.917,-1.584 -5.033,0.077 -10.068,0.041 -15.101,0.025 -1.116,-0.003 -1.554,0.182 -1.158,1.523 2.441,8.245 4.787,16.517 7.139,24.788 2.81,9.875 5.594,19.758 8.385,29.639 0.663,2.348 1.338,4.693 1.95,7.055 0.251,0.97 0.865,1.242 1.756,1.242 7.431,-0.005 14.862,-0.023 22.293,0.013 1.55,0.008 1.271,-1.013 1.343,-1.946 0.841,-10.916 0.231,-21.853 0.599,-35.349"
           style="fill:#ffffff;fill-opacity:1;fill-rule:nonzero;stroke:none"
           id="path1894" />
        <path
           d="m 509.53232,630.28445 c 0,0.319 0.031,0.642 -0.007,0.957 -0.057,0.48 0.249,1.02 -0.222,1.435 -0.184,-0.426 -0.425,-0.836 -0.542,-1.279 -1.783,-6.686 -3.884,-13.283 -5.466,-20.024 -1.127,-4.801 -1.164,-4.743 3.68,-4.533 1.296,0.056 1.609,0.539 1.613,1.721 0.024,7.252 0.477,14.488 0.944,21.723 m 1.229,17.817 c 3.433,0 6.868,0.007 10.301,-0.002 2.344,-0.006 2.36,-0.017 2.368,-2.355 0.06,-15.488 0.024,-30.978 0.224,-46.465 0.058,-4.457 0.227,-8.921 0.33,-13.383 0.035,-1.526 -0.358,-2.106 -1.985,-2.07 -4.63,0.099 -9.265,0.097 -13.895,0 -1.55,-0.034 -1.793,0.625 -1.934,1.957 -0.276,2.577 0.708,5.017 0.58,7.583 -0.076,1.533 -0.458,2.05 -2.045,2.038 -3.875,-0.031 -3.878,0.051 -4.769,-3.686 -0.476,-2.001 -0.985,-3.995 -1.403,-6.008 -0.261,-1.257 -0.783,-1.902 -2.217,-1.878 -4.711,0.077 -9.424,0.068 -14.135,0.007 -1.675,-0.021 -2.051,0.462 -1.561,2.122 1.933,6.551 3.718,13.146 5.587,19.716 3.316,11.659 6.651,23.313 9.985,34.966 0.478,1.669 1.191,3.3 1.438,4.999 0.328,2.264 1.536,2.617 3.549,2.506 3.185,-0.175 6.387,-0.047 9.582,-0.047"
           style="fill:#ffffff;fill-opacity:1;fill-rule:nonzero;stroke:none"
           id="path1898" />
        <path
           d="m 121.05432,621.42705 c 0,4.717 -0.229,8.249 0.048,11.741 0.573,7.203 2.354,14.146 5.283,20.77 2.738,6.195 6.053,12.067 10.569,17.14 6.196,6.957 12.69,13.574 20.825,18.403 8.319,4.939 17.254,8.05 26.774,9.3 7.75,1.018 15.568,0.964 23.377,0.239 1.662,-0.154 3.292,-0.523 4.961,-0.584 0.283,-0.01 0.684,0.123 0.797,-0.274 0.1,-0.351 -0.217,-0.569 -0.438,-0.787 -3.868,-3.814 -7.735,-7.63 -11.617,-11.431 -0.461,-0.451 -1.026,-0.72 -1.724,-0.686 -7.929,0.39 -15.499,-1.397 -22.874,-4.034 -8.74,-3.125 -16.63,-7.812 -23.327,-14.234 -4.212,-4.04 -7.41,-8.957 -10.199,-14.101 -4.62,-8.52 -7.422,-17.572 -8.22,-27.258 -0.157,-1.914 -0.488,-3.774 0.013,-5.68 0.24,-0.916 -0.084,-1.704 -0.844,-2.335 -3.795,-3.147 -7.58,-6.306 -11.352,-9.48 -1.052,-0.885 -1.4,-0.964 -1.61,0.681 -0.586,4.601 -0.358,9.208 -0.442,12.61"
           style="fill:#ffffff;fill-opacity:1;fill-rule:nonzero;stroke:none"
           id="path1902" />
        <path
           d="m 296.17102,648.10185 c 5.512,0 11.025,0.002 16.537,-10e-4 2.375,-0.001 2.336,-0.003 2.118,-2.326 -0.29,-3.077 -0.956,-6.095 -1.35,-9.152 -0.172,-1.33 -0.795,-1.505 -1.886,-1.483 -2.236,0.044 -4.474,-0.03 -6.71,0.028 -1.358,0.035 -1.915,-0.393 -2.111,-1.869 -0.978,-7.371 -1.984,-14.738 -3.206,-22.076 -1.014,-6.088 -1.686,-12.232 -2.522,-18.349 -0.321,-2.354 -0.627,-4.712 -1.036,-7.052 -0.212,-1.21 -0.658,-2.069 -2.316,-2.014 -4.629,0.152 -9.266,0.072 -13.9,0.041 -1.351,-0.009 -1.832,0.065 -1.545,1.844 1.332,8.265 2.241,16.598 3.557,24.866 0.944,5.925 1.622,11.889 2.669,17.803 0.313,1.767 0.988,3.427 1.21,5.225 0.185,1.499 -0.311,1.594 -1.45,1.576 -2.316,-0.036 -4.636,0.053 -6.95,-0.034 -1.378,-0.052 -1.954,0.498 -1.777,1.808 0.466,3.447 0.947,6.892 1.477,10.329 0.182,1.179 1.217,0.815 1.934,0.819 5.193,0.031 10.386,0.017 15.579,0.017 z"
           style="fill:#ffffff;fill-opacity:1;fill-rule:nonzero;stroke:none"
           id="path1906" />
        <path
           d="m 258.70372,593.67465 c 0,4.551 0.106,9.104 -0.035,13.651 -0.107,3.45 0.954,6.708 1.273,10.082 0.33,3.491 0.325,6.972 0.026,10.459 -0.276,3.218 -1.305,6.32 -1.285,9.595 0.059,10.298 0.015,20.597 0.04,30.896 0.002,0.478 -0.405,1.228 0.35,1.398 0.272,0.061 0.771,-0.498 1.039,-0.866 5.046,-6.923 9.029,-14.379 11.527,-22.614 3.147,-10.373 3.415,-21.035 2.765,-31.674 -0.853,-13.954 -5.73,-26.592 -14.067,-37.855 -0.189,-0.256 -0.403,-0.498 -0.633,-0.717 -0.217,-0.206 -0.402,-0.573 -0.769,-0.424 -0.366,0.149 -0.223,0.538 -0.224,0.824 -0.011,2.715 -0.007,5.429 -0.007,8.144 0,3.034 0,6.067 0,9.101"
           style="fill:#ffffff;fill-opacity:1;fill-rule:nonzero;stroke:none"
           id="path1910" />
        <path
           d="m 518.76962,650.98275 c -2.889,-0.148 -5.604,1.236 -8.427,2.247 -3.297,1.18 -6.452,1.364 -8.747,-1.93 -0.52,-0.747 -0.976,-0.677 -1.56,-0.31 -0.87,0.545 -1.705,1.141 -2.556,1.715 -2.83,1.906 -2.847,1.969 -0.602,4.518 2.89,3.281 6.145,5.862 10.896,5.235 2.372,-0.313 4.637,-1.07 6.831,-2.011 1.977,-0.847 3.947,-1.526 6.146,-0.843 1.01,0.313 2.076,0.591 2.556,1.573 0.661,1.353 1.269,1.327 2.314,0.374 1.11,-1.012 2.402,-1.823 3.588,-2.755 0.549,-0.43 1.135,-0.783 0.562,-1.736 -2.003,-3.33 -6.855,-6.128 -11.001,-6.077"
           style="fill:#ffffff;fill-opacity:1;fill-rule:nonzero;stroke:none"
           id="path1914" />
        <g
           aria-label="DOS SUPLEMENTOS"
           transform="scale(1,-1)"
           id="text1918"
           style="font-size:33.193px;font-family:Impact;-inkscape-font-specification:Impact">
          <path
             d="m 297.47435,-575.89311 h 5.10537 q 4.94329,0 6.67749,0.45381 1.75042,0.45381 2.65804,1.49109 0.90762,1.03728 1.13452,2.31768 0.22691,1.26418 0.22691,4.99191 v 9.18967 q 0,3.53324 -0.34036,4.73259 -0.32415,1.18315 -1.15073,1.86387 -0.82659,0.6645 -2.04215,0.94003 -1.21556,0.25932 -3.6629,0.25932 h -8.60619 z m 6.82336,4.48948 v 17.26101 q 1.47489,0 1.81524,-0.58347 0.34036,-0.59968 0.34036,-3.2253 v -10.19453 q 0,-1.78282 -0.11345,-2.28526 -0.11345,-0.50243 -0.51864,-0.72934 -0.40519,-0.24311 -1.52351,-0.24311 z"
             id="path1579"
             style="fill:#ffffff" />
          <path
             d="m 331.42172,-560.52838 q 0,3.95463 -0.19449,5.6078 -0.17828,1.63696 -1.16694,2.99839 -0.97245,1.36143 -2.64182,2.09077 -1.66938,0.72934 -3.88981,0.72934 -2.10698,0 -3.79256,-0.68072 -1.66937,-0.69692 -2.69045,-2.07456 -1.02107,-1.37764 -1.21556,-2.99839 -0.19449,-1.62075 -0.19449,-5.67263 v -4.48949 q 0,-3.95463 0.17828,-5.59159 0.19449,-1.65317 1.16694,-3.0146 0.98866,-1.36143 2.65804,-2.09077 1.66937,-0.72934 3.8898,-0.72934 2.10698,0 3.77635,0.69693 1.68559,0.68071 2.70666,2.05835 1.02107,1.37764 1.21556,2.99839 0.19449,1.62075 0.19449,5.67263 z m -6.82336,-8.6224 q 0,-1.83145 -0.2107,-2.33389 -0.19449,-0.51864 -0.82658,-0.51864 -0.53485,0 -0.82659,0.4214 -0.27552,0.40519 -0.27552,2.43113 v 12.25288 q 0,2.28526 0.17828,2.82011 0.19449,0.53485 0.8752,0.53485 0.69693,0 0.89142,-0.61589 0.19449,-0.61588 0.19449,-2.93356 z"
             id="path1581"
             style="fill:#ffffff" />
          <path
             d="m 348.41055,-567.95143 h -6.33714 v -1.9449 q 0,-1.36143 -0.24311,-1.7342 -0.24312,-0.37278 -0.81038,-0.37278 -0.61588,0 -0.94004,0.50244 -0.30794,0.50243 -0.30794,1.5235 0,1.31281 0.35657,1.97732 0.34036,0.66451 1.92869,1.60454 4.55432,2.70666 5.73746,4.44087 1.18315,1.7342 1.18315,5.59159 0,2.8039 -0.66451,4.13292 -0.6483,1.32901 -2.52837,2.23663 -1.88007,0.89142 -4.37603,0.89142 -2.73907,0 -4.68397,-1.03728 -1.9287,-1.03728 -2.52838,-2.64183 -0.59967,-1.60454 -0.59967,-4.55431 v -1.718 h 6.33714 v 3.19288 q 0,1.47489 0.25932,1.89628 0.27553,0.4214 0.95624,0.4214 0.68072,0 1.00487,-0.53485 0.34036,-0.53485 0.34036,-1.58834 0,-2.31767 -0.6321,-3.0308 -0.6483,-0.71313 -3.19288,-2.38251 -2.54458,-1.68558 -3.37116,-2.44733 -0.82659,-0.76176 -1.37764,-2.10698 -0.53485,-1.34523 -0.53485,-3.436 0,-3.01459 0.76175,-4.40844 0.77796,-1.39385 2.49596,-2.17181 1.718,-0.79417 4.14913,-0.79417 2.65803,0 4.52189,0.859 1.88008,0.859 2.47975,2.17181 0.61589,1.2966 0.61589,4.42465 z"
             id="path1583"
             style="fill:#ffffff" />
          <path
             d="m 371.41333,-567.95143 h -6.33714 v -1.9449 q 0,-1.36143 -0.24312,-1.7342 -0.24311,-0.37278 -0.81037,-0.37278 -0.61589,0 -0.94004,0.50244 -0.30794,0.50243 -0.30794,1.5235 0,1.31281 0.35656,1.97732 0.34036,0.66451 1.9287,1.60454 4.55431,2.70666 5.73746,4.44087 1.18315,1.7342 1.18315,5.59159 0,2.8039 -0.66451,4.13292 -0.6483,1.32901 -2.52837,2.23663 -1.88007,0.89142 -4.37603,0.89142 -2.73907,0 -4.68397,-1.03728 -1.9287,-1.03728 -2.52838,-2.64183 -0.59968,-1.60454 -0.59968,-4.55431 v -1.718 h 6.33714 v 3.19288 q 0,1.47489 0.25932,1.89628 0.27553,0.4214 0.95625,0.4214 0.68071,0 1.00486,-0.53485 0.34036,-0.53485 0.34036,-1.58834 0,-2.31767 -0.63209,-3.0308 -0.6483,-0.71313 -3.19288,-2.38251 -2.54458,-1.68558 -3.37117,-2.44733 -0.82658,-0.76176 -1.37764,-2.10698 -0.53484,-1.34523 -0.53484,-3.436 0,-3.01459 0.76175,-4.40844 0.77796,-1.39385 2.49596,-2.17181 1.71799,-0.79417 4.14912,-0.79417 2.65804,0 4.5219,0.859 1.88007,0.859 2.47975,2.17181 0.61589,1.2966 0.61589,4.42465 z"
             id="path1585"
             style="fill:#ffffff" />
          <path
             d="m 389.62758,-575.89311 v 17.53653 q 0,2.98219 -0.19449,4.19775 -0.19449,1.19936 -1.15073,2.47975 -0.95625,1.26419 -2.52837,1.9287 -1.55593,0.6483 -3.67911,0.6483 -2.35009,0 -4.14913,-0.77796 -1.79903,-0.77796 -2.69045,-2.02594 -0.89141,-1.24798 -1.05348,-2.62562 -0.16208,-1.39385 -0.16208,-5.83471 v -15.5268 h 6.82337 v 19.67593 q 0,1.71799 0.17828,2.20422 0.19449,0.47002 0.76175,0.47002 0.6483,0 0.82659,-0.51864 0.19449,-0.53485 0.19449,-2.49596 v -19.33557 z"
             id="path1587"
             style="fill:#ffffff" />
          <path
             d="m 392.27357,-575.89311 h 6.87199 q 2.78769,0 4.27879,0.4376 1.50729,0.4376 2.25284,1.26419 0.76175,0.82658 1.02107,2.00973 0.27553,1.16694 0.27553,3.63048 v 2.28526 q 0,2.51217 -0.51864,3.6629 -0.51864,1.15074 -1.91249,1.76662 -1.37764,0.61589 -3.61427,0.61589 h -1.83145 v 10.5673 h -6.82337 z m 6.82337,4.48948 v 6.6775 q 0.29173,0.0162 0.50243,0.0162 0.94004,0 1.2966,-0.45381 0.37278,-0.47002 0.37278,-1.9287 v -2.1556 q 0,-1.34522 -0.4214,-1.75041 -0.4214,-0.40519 -1.75041,-0.40519 z"
             id="path1589"
             style="fill:#ffffff" />
          <path
             d="m 415.75981,-575.89311 v 20.98874 h 4.14912 v 5.25123 h -10.97249 v -26.23997 z"
             id="path1591"
             style="fill:#ffffff" />
          <path
             d="m 421.54979,-575.89311 h 11.37768 v 5.25123 h -4.55432 v 4.97571 h 4.26258 v 4.99192 h -4.26258 v 5.76988 h 5.00813 v 5.25123 h -11.83149 z"
             id="path1593"
             style="fill:#ffffff" />
          <path
             d="m 456.41164,-575.89311 v 26.23997 h -5.96436 v -17.71482 l -2.38251,17.71482 h -4.23016 l -2.51217,-17.30963 v 17.30963 h -5.96437 v -26.23997 h 8.8331 q 0.38898,2.3663 0.82659,5.57538 l 0.94003,6.6775 1.55592,-12.25288 z"
             id="path1595"
             style="fill:#ffffff" />
          <path
             d="m 459.15745,-575.89311 h 11.37768 v 5.25123 h -4.55431 v 4.97571 h 4.26258 v 4.99192 h -4.26258 v 5.76988 h 5.00812 v 5.25123 h -11.83149 z"
             id="path1597"
             style="fill:#ffffff" />
          <path
             d="m 488.18421,-575.89311 v 26.23997 h -5.98058 l -3.54944,-11.92873 v 11.92873 h -5.70505 v -26.23997 h 5.70505 l 3.82497,11.81528 v -11.81528 z"
             id="path1599"
             style="fill:#ffffff" />
          <path
             d="m 504.66715,-575.89311 v 5.25123 h -4.05188 v 20.98874 h -6.82337 v -20.98874 h -4.03567 v -5.25123 z"
             id="path1601"
             style="fill:#ffffff" />
          <path
             d="m 521.81677,-560.52838 q 0,3.95463 -0.19449,5.6078 -0.17828,1.63696 -1.16694,2.99839 -0.97245,1.36143 -2.64182,2.09077 -1.66938,0.72934 -3.88981,0.72934 -2.10698,0 -3.79256,-0.68072 -1.66937,-0.69692 -2.69045,-2.07456 -1.02107,-1.37764 -1.21556,-2.99839 -0.19449,-1.62075 -0.19449,-5.67263 v -4.48949 q 0,-3.95463 0.17828,-5.59159 0.19449,-1.65317 1.16694,-3.0146 0.98866,-1.36143 2.65804,-2.09077 1.66937,-0.72934 3.8898,-0.72934 2.10698,0 3.77635,0.69693 1.68559,0.68071 2.70666,2.05835 1.02107,1.37764 1.21556,2.99839 0.19449,1.62075 0.19449,5.67263 z m -6.82336,-8.6224 q 0,-1.83145 -0.2107,-2.33389 -0.19449,-0.51864 -0.82658,-0.51864 -0.53485,0 -0.82659,0.4214 -0.27552,0.40519 -0.27552,2.43113 v 12.25288 q 0,2.28526 0.17828,2.82011 0.19449,0.53485 0.8752,0.53485 0.69693,0 0.89142,-0.61589 0.19449,-0.61588 0.19449,-2.93356 z"
             id="path1603"
             style="fill:#ffffff" />
          <path
             d="m 538.8056,-567.95143 h -6.33714 v -1.9449 q 0,-1.36143 -0.24311,-1.7342 -0.24312,-0.37278 -0.81038,-0.37278 -0.61588,0 -0.94004,0.50244 -0.30794,0.50243 -0.30794,1.5235 0,1.31281 0.35657,1.97732 0.34036,0.66451 1.92869,1.60454 4.55432,2.70666 5.73746,4.44087 1.18315,1.7342 1.18315,5.59159 0,2.8039 -0.66451,4.13292 -0.6483,1.32901 -2.52837,2.23663 -1.88007,0.89142 -4.37603,0.89142 -2.73907,0 -4.68397,-1.03728 -1.9287,-1.03728 -2.52837,-2.64183 -0.59968,-1.60454 -0.59968,-4.55431 v -1.718 h 6.33714 v 3.19288 q 0,1.47489 0.25932,1.89628 0.27553,0.4214 0.95624,0.4214 0.68072,0 1.00487,-0.53485 0.34036,-0.53485 0.34036,-1.58834 0,-2.31767 -0.6321,-3.0308 -0.6483,-0.71313 -3.19288,-2.38251 -2.54458,-1.68558 -3.37116,-2.44733 -0.82659,-0.76176 -1.37764,-2.10698 -0.53485,-1.34523 -0.53485,-3.436 0,-3.01459 0.76175,-4.40844 0.77796,-1.39385 2.49596,-2.17181 1.718,-0.79417 4.14913,-0.79417 2.65803,0 4.52189,0.859 1.88008,0.859 2.47975,2.17181 0.61589,1.2966 0.61589,4.42465 z"
             id="path1605"
             style="fill:#ffffff" />
        </g>
      </g>
    </g>
  </g>
</svg>
