<?xml version="1.0" encoding="UTF-8" standalone="no"?>
<!-- Created with Inkscape (http://www.inkscape.org/) -->

<svg
   width="232.2mm"
   height="46.513mm"
   viewBox="0 0 232.2 46.512998"
   version="1.1"
   id="svg5"
   inkscape:version="1.2.1 (9c6d41e410, 2022-07-14)"
   sodipodi:docname="switzer.svg"
   xmlns:inkscape="http://www.inkscape.org/namespaces/inkscape"
   xmlns:sodipodi="http://sodipodi.sourceforge.net/DTD/sodipodi-0.dtd"
   xmlns="http://www.w3.org/2000/svg"
   xmlns:svg="http://www.w3.org/2000/svg">
  <sodipodi:namedview
     id="namedview7"
     pagecolor="#ffffff"
     bordercolor="#666666"
     borderopacity="1.0"
     inkscape:pageshadow="2"
     inkscape:pageopacity="0.0"
     inkscape:pagecheckerboard="0"
     inkscape:document-units="mm"
     showgrid="false"
     inkscape:zoom="0.53795866"
     inkscape:cx="351.32811"
     inkscape:cy="-154.28695"
     inkscape:window-width="1366"
     inkscape:window-height="705"
     inkscape:window-x="-8"
     inkscape:window-y="-8"
     inkscape:window-maximized="1"
     inkscape:current-layer="text1918"
     inkscape:showpageshadow="2"
     inkscape:deskcolor="#d1d1d1" />
  <defs
     id="defs2">
    <rect
       x="-173.50421"
       y="407.47202"
       width="599.37817"
       height="299.68909"
       id="rect1706" />
    <clipPath
       clipPathUnits="userSpaceOnUse"
       id="clipPath1870">
      <path
         d="M 0,792 H 612 V 0 H 0 Z"
         id="path1868" />
    </clipPath>
  </defs>
  <g
     inkscape:label="Camada 1"
     inkscape:groupmode="layer"
     id="layer1">
    <text
       xml:space="preserve"
       transform="scale(0.26458333)"
       id="text1704"
       style="font-style:normal;font-variant:normal;font-weight:bold;font-stretch:normal;font-size:40px;line-height:1.25;font-family:'Product Sans';-inkscape-font-specification:'Product Sans Bold';white-space:pre;shape-inside:url(#rect1706);display:inline;fill:#000000;fill-opacity:1;stroke:none" />
    <g
       id="g1862"
       inkscape:label="LOGO OFICIAL ATACADÃO DOS SUPLEMENTOS"
       transform="matrix(0.35277777,0,0,-0.35277777,-18.397933,280.76351)">
      <g
         id="g2268"
         transform="translate(-68.814333,94.03021)">
        <g
           aria-label="DOS SUPLEMENTOS"
           transform="scale(1,-1)"
           id="text1918"
           style="font-size:33.193px;font-family:Impact;-inkscape-font-specification:Impact">
          <g
             id="g1092"
             transform="matrix(0.79896458,0,0,0.79896458,32.065808,-306.73432)"
             style="fill:#a4a4a4;fill-opacity:1">
            <path
               sodipodi:nodetypes="ccssccscccccscccsccsccc"
               inkscape:connector-curvature="0"
               id="path4653"
               d="m 224.88787,-457.60428 -71.11673,0.66869 c -24.96739,0 -42.49996,19.10041 -42.49996,38.61326 0,19.51314 17.53257,38.61326 42.49996,38.61326 h 28.49159 c 2.56224,0.0283 4.69843,0.2693 6.47547,0.70073 2.03045,0.61512 3.65357,1.50264 4.91187,2.56819 4.39824,3.72359 4.33758,9.61767 1.60951,13.62642 -1.74245,2.5886 -5.07061,3.80608 -7.74,4.3132 -3.16204,0.5811 -6.50976,0.46432 -9.72963,0.51761 -20.52397,0.33789 -45.90976,0.0992 -66.52132,0.0992 v 28.38983 c 8.5e-4,8.5e-4 71.04059,0 71.04059,0 25.0869,0 42.56448,-19.6424 42.5778,-39.26467 0,-19.62226 -17.33499,-39.19379 -42.39893,-39.39477 h -0.0567 -28.66082 c -1.69455,0 -3.18642,-0.0935 -4.49971,-0.26929 -11.52936,-2.5526 -10.62567,-18.10914 0.50938,-19.86123 1.1863,-0.13606 2.51122,-0.20693 3.99033,-0.20693 h 0.0652 l 71.04983,-0.66841 z"
               style="color:#000000;font-style:normal;font-variant:normal;font-weight:normal;font-stretch:normal;font-size:medium;line-height:normal;font-family:sans-serif;font-variant-ligatures:normal;font-variant-position:normal;font-variant-caps:normal;font-variant-numeric:normal;font-variant-alternates:normal;font-feature-settings:normal;text-indent:0;text-align:start;text-decoration:none;text-decoration-line:none;text-decoration-style:solid;text-decoration-color:#000000;letter-spacing:normal;word-spacing:normal;text-transform:none;writing-mode:lr-tb;direction:ltr;text-orientation:mixed;dominant-baseline:auto;baseline-shift:baseline;text-anchor:start;white-space:normal;shape-padding:0;clip-rule:nonzero;display:inline;overflow:visible;visibility:visible;isolation:auto;mix-blend-mode:normal;color-interpolation:sRGB;color-interpolation-filters:linearRGB;solid-color:#000000;solid-opacity:1;vector-effect:none;fill:#a4a4a4;fill-opacity:1;fill-rule:nonzero;stroke:none;stroke-width:28.4426;stroke-linecap:butt;stroke-linejoin:miter;stroke-miterlimit:4;stroke-dasharray:none;stroke-dashoffset:0;stroke-opacity:1;color-rendering:auto;image-rendering:auto;shape-rendering:auto;text-rendering:auto;enable-background:accumulate" />
            <path
               sodipodi:nodetypes="csscssccsssccssscc"
               inkscape:connector-curvature="0"
               id="path4655"
               d="m 239.10532,-457.60116 v 67.0955 c 0,36.90425 25.14019,61.01234 51.7972,61.01234 14.12022,0 27.81014,-6.76686 37.56501,-18.61455 9.75741,11.84769 23.4496,18.61455 37.57011,18.61455 26.65701,0 51.79465,-24.10809 51.79465,-61.01234 v -67.0955 h -28.44454 v 67.0955 c 0,25.48601 -12.43729,32.56752 -23.35011,32.56752 -10.9131,0 -23.35011,-7.08151 -23.35011,-32.56752 v -67.0955 h -28.44482 v 67.0955 c 0,25.48601 -12.42709,32.56752 -23.34019,32.56752 -10.91282,0 -23.35267,-7.08151 -23.35267,-32.56752 v -67.0955 z"
               style="color:#000000;font-style:normal;font-variant:normal;font-weight:normal;font-stretch:normal;font-size:medium;line-height:normal;font-family:sans-serif;font-variant-ligatures:normal;font-variant-position:normal;font-variant-caps:normal;font-variant-numeric:normal;font-variant-alternates:normal;font-feature-settings:normal;text-indent:0;text-align:start;text-decoration:none;text-decoration-line:none;text-decoration-style:solid;text-decoration-color:#000000;letter-spacing:normal;word-spacing:normal;text-transform:none;writing-mode:lr-tb;direction:ltr;text-orientation:mixed;dominant-baseline:auto;baseline-shift:baseline;text-anchor:start;white-space:normal;shape-padding:0;clip-rule:nonzero;display:inline;overflow:visible;visibility:visible;isolation:auto;mix-blend-mode:normal;color-interpolation:sRGB;color-interpolation-filters:linearRGB;solid-color:#000000;solid-opacity:1;vector-effect:none;fill:#a4a4a4;fill-opacity:1;fill-rule:nonzero;stroke:none;stroke-width:28.4426;stroke-linecap:butt;stroke-linejoin:miter;stroke-miterlimit:4;stroke-dasharray:none;stroke-dashoffset:0;stroke-opacity:1;color-rendering:auto;image-rendering:auto;shape-rendering:auto;text-rendering:auto;enable-background:accumulate" />
            <path
               id="path4657"
               d="m 467.15484,-494.51477 a 14.222743,14.222743 0 1 0 0,28.44425 14.222743,14.222743 0 1 0 0,-28.44425 z m -35.1051,36.95641 v 28.43405 h 1.91168 19.08539 c 0,0.0425 0,0.0397 0,0.085 v 99.5451 h 28.44425 v -99.53461 c 0,-2.9401 0.0624,-5.60977 -0.3206,-8.86989 -0.38239,-3.25985 -1.36148,-7.795 -4.81067,-11.89163 -3.44948,-4.09634 -8.38659,-6.13389 -12.21251,-6.93014 -3.82564,-0.79597 -7.24337,-0.86542 -11.25128,-0.83792 h -18.93458 z"
               style="color:#000000;font-style:normal;font-variant:normal;font-weight:normal;font-stretch:normal;font-size:medium;line-height:normal;font-family:sans-serif;font-variant-ligatures:normal;font-variant-position:normal;font-variant-caps:normal;font-variant-numeric:normal;font-variant-alternates:normal;font-feature-settings:normal;text-indent:0;text-align:start;text-decoration:none;text-decoration-line:none;text-decoration-style:solid;text-decoration-color:#000000;letter-spacing:normal;word-spacing:normal;text-transform:none;writing-mode:lr-tb;direction:ltr;text-orientation:mixed;dominant-baseline:auto;baseline-shift:baseline;text-anchor:start;white-space:normal;shape-padding:0;clip-rule:nonzero;display:inline;overflow:visible;visibility:visible;isolation:auto;mix-blend-mode:normal;color-interpolation:sRGB;color-interpolation-filters:linearRGB;solid-color:#000000;solid-opacity:1;vector-effect:none;fill:#a4a4a4;fill-opacity:1;fill-rule:nonzero;stroke:none;stroke-width:28.4426;stroke-linecap:butt;stroke-linejoin:miter;stroke-miterlimit:4;stroke-dasharray:none;stroke-dashoffset:0;stroke-opacity:1;color-rendering:auto;image-rendering:auto;shape-rendering:auto;text-rendering:auto;enable-background:accumulate"
               inkscape:connector-curvature="0" />
            <path
               sodipodi:nodetypes="cccccccccccccccccc"
               inkscape:connector-curvature="0"
               id="path4659"
               d="m 526.82272,-494.47254 c -4.53515,20.27169 -10.97915,30.36501 -15.2538,34.30149 -4.27436,3.93619 -14.13666,3.14078 -15.85644,2.61269 v 27.30161 c 8.79477,2.7017 19.97688,1.14604 29.60306,-5.01988 0,0 -0.003,0 0,0 l 0.58535,35.93084 c 0.19559,12.11868 0.32995,29.17531 9.60378,44.77947 9.27354,15.60444 29.69093,26.53001 57.52942,24.91455 v -28.3972 c -21.0515,1.22145 -28.86605,-3.95603 -33.07833,-11.0435 -4.212,-7.08746 -5.43487,-19.30705 -5.62025,-30.71423 l -0.47339,-29.27424 h 39.17197 v -28.43462 h -38.86781 l 0.75231,-36.95698 z"
               style="color:#000000;font-style:normal;font-variant:normal;font-weight:normal;font-stretch:normal;font-size:medium;line-height:normal;font-family:sans-serif;font-variant-ligatures:normal;font-variant-position:normal;font-variant-caps:normal;font-variant-numeric:normal;font-variant-alternates:normal;font-feature-settings:normal;text-indent:0;text-align:start;text-decoration:none;text-decoration-line:none;text-decoration-style:solid;text-decoration-color:#000000;letter-spacing:normal;word-spacing:normal;text-transform:none;writing-mode:lr-tb;direction:ltr;text-orientation:mixed;dominant-baseline:auto;baseline-shift:baseline;text-anchor:start;white-space:normal;shape-padding:0;clip-rule:nonzero;display:inline;overflow:visible;visibility:visible;isolation:auto;mix-blend-mode:normal;color-interpolation:sRGB;color-interpolation-filters:linearRGB;solid-color:#000000;solid-opacity:1;vector-effect:none;fill:#a4a4a4;fill-opacity:1;fill-rule:nonzero;stroke:none;stroke-width:28.4426;stroke-linecap:butt;stroke-linejoin:miter;stroke-miterlimit:4;stroke-dasharray:none;stroke-dashoffset:0;stroke-opacity:1;color-rendering:auto;image-rendering:auto;shape-rendering:auto;text-rendering:auto;enable-background:accumulate" />
            <path
               sodipodi:nodetypes="cccccccccccc"
               inkscape:connector-curvature="0"
               id="path4661"
               d="m 607.25182,-457.604 v 28.43518 h 64.86407 l -64.86407,69.88451 v 29.79099 h 103.68483 v -28.44453 h -66.21081 l 66.20117,-71.34407 V -457.604 h -31.29477 z"
               style="color:#000000;font-style:normal;font-variant:normal;font-weight:normal;font-stretch:normal;font-size:medium;line-height:normal;font-family:sans-serif;font-variant-ligatures:normal;font-variant-position:normal;font-variant-caps:normal;font-variant-numeric:normal;font-variant-alternates:normal;font-feature-settings:normal;text-indent:0;text-align:start;text-decoration:none;text-decoration-line:none;text-decoration-style:solid;text-decoration-color:#000000;letter-spacing:normal;word-spacing:normal;text-transform:none;writing-mode:lr-tb;direction:ltr;text-orientation:mixed;dominant-baseline:auto;baseline-shift:baseline;text-anchor:start;white-space:normal;shape-padding:0;clip-rule:nonzero;display:inline;overflow:visible;visibility:visible;isolation:auto;mix-blend-mode:normal;color-interpolation:sRGB;color-interpolation-filters:linearRGB;solid-color:#000000;solid-opacity:1;vector-effect:none;fill:#a4a4a4;fill-opacity:1;fill-rule:nonzero;stroke:none;stroke-width:28.4426;stroke-linecap:butt;stroke-linejoin:miter;stroke-miterlimit:4;stroke-dasharray:none;stroke-dashoffset:0;stroke-opacity:1;color-rendering:auto;image-rendering:auto;shape-rendering:auto;text-rendering:auto;enable-background:accumulate" />
            <path
               inkscape:connector-curvature="0"
               id="path4663"
               d="m 783.6901,-457.75027 c -12.29159,0 -28.07547,0.91503 -41.08989,11.89304 l -0.29424,0.24378 -0.27212,0.25512 c -5.40199,5.06608 -9.60719,11.25808 -12.19465,17.98413 l -0.12189,0.32853 -0.11055,0.33903 c -3.76271,11.47124 -5.05304,24.79634 -4.2001,37.96356 0.85295,13.16721 3.4081,26.14053 11.51689,36.78775 l 0.15023,0.19559 0.15024,0.18992 c 7.29921,8.9297 16.7828,15.3326 27.17433,18.53943 l 0.10488,0.0397 0.11339,0.0283 c 22.68709,6.60785 48.14702,2.65097 73.50832,-2.5234 l -5.68744,-27.87165 c -19.23108,2.8063 -65.15887,12.65527 -74.196,-8.9161 h 13.06913 0.0567 c 7.21757,-0.0567 17.34321,8.5e-4 26.97477,-0.45071 10.13896,-0.96661 21.60794,-3.4611 30.87354,-12.0325 l 0.0935,-0.085 0.085,-0.085 c 17.76926,-17.00986 15.19852,-44.86762 -1.49726,-60.44939 l -0.1389,-0.14173 -0.15307,-0.12189 c -14.53692,-12.83074 -32.59162,-12.05461 -43.848,-12.10734 h -0.0397 z m -15.33345,28.46949 h 31.33956 c 7.23317,-0.001 13.13972,5.68941 13.48469,12.83726 0,0.51902 0.034,2.5903 -0.0283,3.14872 -0.48104,7.0183 -6.32693,12.5623 -13.46741,12.56088 H 754.9182 l -0.0283,-12.50362 c 0,-0.58819 0,-2.6572 0.0283,-3.22356 0.3532,-7.13849 6.21354,-12.8194 13.43991,-12.81968 z"
               style="color:#000000;font-style:normal;font-variant:normal;font-weight:normal;font-stretch:normal;font-size:medium;line-height:normal;font-family:sans-serif;font-variant-ligatures:normal;font-variant-position:normal;font-variant-caps:normal;font-variant-numeric:normal;font-variant-alternates:normal;font-feature-settings:normal;text-indent:0;text-align:start;text-decoration:none;text-decoration-line:none;text-decoration-style:solid;text-decoration-color:#000000;letter-spacing:normal;word-spacing:normal;text-transform:none;writing-mode:lr-tb;direction:ltr;text-orientation:mixed;dominant-baseline:auto;baseline-shift:baseline;text-anchor:start;white-space:normal;shape-padding:0;clip-rule:nonzero;display:inline;overflow:visible;visibility:visible;isolation:auto;mix-blend-mode:normal;color-interpolation:sRGB;color-interpolation-filters:linearRGB;solid-color:#000000;solid-opacity:1;vector-effect:none;fill:#a4a4a4;fill-opacity:1;fill-rule:nonzero;stroke:none;stroke-width:28.4426;stroke-linecap:butt;stroke-linejoin:miter;stroke-miterlimit:4;stroke-dasharray:none;stroke-dashoffset:0;stroke-opacity:1;color-rendering:auto;image-rendering:auto;shape-rendering:auto;text-rendering:auto;enable-background:accumulate" />
            <path
               sodipodi:nodetypes="ccccscccccc"
               inkscape:connector-curvature="0"
               id="path4665"
               d="m 855.83013,-457.604 v 128.11068 h 28.44454 v -54.36935 c -0.0567,-5.17068 0.34781,-9.75515 1.13839,-13.81947 5.73704,-29.49902 31.81862,-31.58646 49.67887,-31.36507 v -28.50973 c -20.05994,3.03817 -41.05559,5.35209 -49.22107,19.49499 l -1.67074,0.0284 0.0737,-19.55821 z"
               style="color:#000000;font-style:normal;font-variant:normal;font-weight:normal;font-stretch:normal;font-size:medium;line-height:normal;font-family:sans-serif;font-variant-ligatures:normal;font-variant-position:normal;font-variant-caps:normal;font-variant-numeric:normal;font-variant-alternates:normal;font-feature-settings:normal;text-indent:0;text-align:start;text-decoration:none;text-decoration-line:none;text-decoration-style:solid;text-decoration-color:#000000;letter-spacing:normal;word-spacing:normal;text-transform:none;writing-mode:lr-tb;direction:ltr;text-orientation:mixed;dominant-baseline:auto;baseline-shift:baseline;text-anchor:start;white-space:normal;shape-padding:0;clip-rule:nonzero;display:inline;overflow:visible;visibility:visible;isolation:auto;mix-blend-mode:normal;color-interpolation:sRGB;color-interpolation-filters:linearRGB;solid-color:#000000;solid-opacity:1;vector-effect:none;fill:#a4a4a4;fill-opacity:1;fill-rule:nonzero;stroke:none;stroke-width:28.4426;stroke-linecap:butt;stroke-linejoin:miter;stroke-miterlimit:4;stroke-dasharray:none;stroke-dashoffset:0;stroke-opacity:1;color-rendering:auto;image-rendering:auto;shape-rendering:auto;text-rendering:auto;enable-background:accumulate" />
          </g>
        </g>
      </g>
    </g>
  </g>
</svg>
