<?xml version="1.0" encoding="UTF-8" standalone="no"?>
<!-- Created with Inkscape (http://www.inkscape.org/) -->

<svg
   width="167.039mm"
   height="33.432999mm"
   viewBox="0 0 167.039 33.432999"
   version="1.1"
   id="svg19334"
   inkscape:version="1.2.1 (9c6d41e410, 2022-07-14)"
   sodipodi:docname="yellow-friday.svg"
   xmlns:inkscape="http://www.inkscape.org/namespaces/inkscape"
   xmlns:sodipodi="http://sodipodi.sourceforge.net/DTD/sodipodi-0.dtd"
   xmlns="http://www.w3.org/2000/svg"
   xmlns:svg="http://www.w3.org/2000/svg">
  <sodipodi:namedview
     id="namedview19336"
     pagecolor="#ffffff"
     bordercolor="#000000"
     borderopacity="0.25"
     inkscape:showpageshadow="2"
     inkscape:pageopacity="0.0"
     inkscape:pagecheckerboard="0"
     inkscape:deskcolor="#d1d1d1"
     inkscape:document-units="mm"
     showgrid="false"
     inkscape:zoom="0.2973261"
     inkscape:cx="-13.453242"
     inkscape:cy="272.42815"
     inkscape:window-width="1366"
     inkscape:window-height="705"
     inkscape:window-x="-8"
     inkscape:window-y="-8"
     inkscape:window-maximized="1"
     inkscape:current-layer="layer1" />
  <defs
     id="defs19331">
    <filter
       inkscape:collect="always"
       style="color-interpolation-filters:sRGB"
       id="filter14792"
       x="-0.093404064"
       y="-2.437401"
       width="1.1868081"
       height="5.8748021">
      <feGaussianBlur
         inkscape:collect="always"
         stdDeviation="2.2042331"
         id="feGaussianBlur14794" />
    </filter>
    <filter
       inkscape:collect="always"
       style="color-interpolation-filters:sRGB"
       id="filter15210"
       x="-0.071522496"
       y="-0.39428308"
       width="1.1430719"
       height="1.7885662">
      <feGaussianBlur
         inkscape:collect="always"
         stdDeviation="4.391636"
         id="feGaussianBlur15212" />
    </filter>
    <filter
       inkscape:collect="always"
       style="color-interpolation-filters:sRGB"
       id="filter1106"
       x="-0.025813248"
       y="-0.14240876"
       width="1.0516534"
       height="1.2848175">
      <feGaussianBlur
         inkscape:collect="always"
         stdDeviation="1.4531022"
         id="feGaussianBlur1104" />
    </filter>
  </defs>
  <g
     inkscape:label="Camada 1"
     inkscape:groupmode="layer"
     id="layer1">
    <g
       id="g19693"
       transform="translate(35.697462,-125.49112)">
      <g
         id="g19260"
         transform="matrix(0.61130116,0,0,0.61130116,184.18486,363.54546)">
        <g
           aria-label="YELLOW  "
           transform="matrix(0.87772735,0,0,0.87772735,534.82774,797.95302)"
           id="g19202"
           style="font-weight:bold;font-size:40px;line-height:0.85;font-family:Eurosoft-Bold;-inkscape-font-specification:'Eurosoft-Bold Bold';text-align:center;white-space:pre;shape-inside:url(#rect4907);display:inline;fill:none;stroke:#ffbd00">
          <path
             d="m -930.11718,-1313.9439 q -0.88,0 -1.44,-0.56 -0.56,-0.56 -0.56,-1.44 v -6 q 0,-0.8 -0.68,-1.12 -1.28,-0.6 -2.08,-1.68 -0.8,-1.08 -1.68,-3.32 l -4.36,-11.12 q -0.4,-1 0,-1.68 0.4,-0.68 1.32,-0.68 h 4 q 1.04,0 1.44,0.44 0.44,0.44 0.8,1.6 l 2.72,8.4 q 0.36,1.2 0.76,1.64 0.44,0.44 1.2,0.44 h 0.44 q 0.76,0 1.16,-0.44 0.44,-0.44 0.8,-1.64 l 2.72,-8.4 q 0.36,-1.16 0.76,-1.6 0.44,-0.44 1.48,-0.44 h 4 q 0.92,0 1.32,0.68 0.4,0.68 0,1.68 l -4.36,11.12 q -0.88,2.24 -1.68,3.32 -0.8,1.08 -2.08,1.68 -0.68,0.32 -0.68,1.12 v 6 q 0,0.88 -0.56,1.44 -0.56,0.56 -1.44,0.56 z"
             id="path19190" />
          <path
             d="m -914.99722,-1324.8239 v -5.88 q 0,-4.32 1.04,-6.72 1.04,-2.4 2.96,-3.24 1.92,-0.88 5.2,-0.88 h 10.04 q 0.88,0 1.44,0.56 0.56,0.56 0.56,1.44 v 2.48 q 0,0.88 -0.56,1.44 -0.56,0.56 -1.44,0.56 h -7.76 q -2.64,0 -3.4,0.56 -0.76,0.56 -0.76,2.56 v 0.12 q 0,0.4 0.12,0.56 0.16,0.12 0.56,0.12 h 9.64 q 0.88,0 1.44,0.56 0.56,0.56 0.56,1.44 v 2.36 q 0,0.88 -0.56,1.44 -0.56,0.56 -1.44,0.56 h -9.64 q -0.68,0 -0.68,0.68 v 0.12 q 0,2.28 0.72,2.92 0.76,0.64 3.44,0.64 h 7.76 q 0.88,0 1.44,0.56 0.56,0.56 0.56,1.44 v 2.48 q 0,0.88 -0.56,1.44 -0.56,0.56 -1.44,0.56 h -10.04 q -4.92,0 -7.08,-2.28 -2.12,-2.28 -2.12,-8.6 z"
             id="path19192" />
          <path
             d="m -873.7172,-1313.9439 h -8.44 q -4.92,0 -7.08,-2.32 -2.12,-2.36 -2.12,-8.68 v -14.6 q 0,-0.88 0.56,-1.44 0.56,-0.56 1.44,-0.56 h 3.32 q 0.88,0 1.44,0.56 0.56,0.56 0.56,1.44 v 15.64 q 0,2.2 0.72,2.84 0.72,0.64 3.4,0.64 h 6.2 q 0.88,0 1.44,0.56 0.56,0.56 0.56,1.44 v 2.48 q 0,0.88 -0.56,1.44 -0.56,0.56 -1.44,0.56 z"
             id="path19194" />
          <path
             d="m -852.47719,-1313.9439 h -8.44 q -4.92,0 -7.08,-2.32 -2.12,-2.36 -2.12,-8.68 v -14.6 q 0,-0.88 0.56,-1.44 0.56,-0.56 1.44,-0.56 h 3.32 q 0.88,0 1.44,0.56 0.56,0.56 0.56,1.44 v 15.64 q 0,2.2 0.72,2.84 0.72,0.64 3.4,0.64 h 6.2 q 0.88,0 1.44,0.56 0.56,0.56 0.56,1.44 v 2.48 q 0,0.88 -0.56,1.44 -0.56,0.56 -1.44,0.56 z"
             id="path19196" />
          <path
             d="m -838.07719,-1341.7439 q -6,0 -8.6,2.72 -2.6,2.72 -2.6,9.88 v 2.8 q 0,7.16 2.6,9.88 2.6,2.72 8.6,2.72 h 3.2 q 6,0 8.6,-2.72 2.6,-2.72 2.6,-9.88 v -2.8 q 0,-7.16 -2.6,-9.88 -2.6,-2.72 -8.6,-2.72 z m 7.08,12.72 v 2.56 q 0,3.8 -0.8,5.04 -0.76,1.2 -3.16,1.2 h -3.04 q -2.4,0 -3.2,-1.2 -0.76,-1.24 -0.76,-5.04 v -2.56 q 0,-3.8 0.76,-5 0.8,-1.24 3.2,-1.24 h 3.04 q 2.4,0 3.16,1.24 0.8,1.2 0.8,5 z"
             id="path19198" />
          <path
             d="m -802.63716,-1318.9039 -0.8,-11.84 q -0.04,-0.8 -0.2,-1.04 -0.16,-0.28 -0.48,-0.28 h -0.08 q -0.32,0 -0.48,0.28 -0.16,0.24 -0.2,1.04 l -0.8,11.84 q -0.2,3.08 -1.88,4.12 -1.64,1.04 -5.32,1.04 h -0.08 q -3.72,0 -5.24,-1.16 -1.48,-1.2 -1.72,-4.28 l -1.56,-20.08 q -0.08,-1.08 0.48,-1.68 0.56,-0.6 1.48,-0.6 h 3.28 q 0.88,0 1.4,0.56 0.52,0.52 0.6,1.44 l 1,17.2 q 0.08,1.44 0.16,1.8 0.12,0.32 0.52,0.32 h 0.04 q 0.4,0 0.52,-0.36 0.12,-0.36 0.2,-1.76 l 0.88,-11.68 q 0.2,-2.6 1.8,-3.56 1.64,-0.96 4.88,-0.96 h 0.16 q 3.24,0 4.84,0.96 1.64,0.96 1.84,3.56 l 0.88,11.68 q 0.08,1.4 0.2,1.76 0.12,0.36 0.52,0.36 h 0.04 q 0.4,0 0.48,-0.32 0.12,-0.32 0.2,-1.8 l 1,-17.2 q 0.08,-0.92 0.6,-1.44 0.52,-0.56 1.4,-0.56 h 3.28 q 0.92,0 1.48,0.6 0.56,0.6 0.48,1.68 l -1.56,20.08 q -0.24,3.08 -1.76,4.28 -1.48,1.16 -5.2,1.16 h -0.08 q -3.64,0 -5.32,-1.04 -1.68,-1.04 -1.88,-4.12 z"
             id="path19200" />
        </g>
        <g
           aria-label="FRIDAY"
           transform="matrix(0.97174896,0,0,0.97174896,613.75899,942.09279)"
           id="g19216"
           style="font-weight:bold;font-size:40px;line-height:0.85;font-family:Eurosoft-Bold;-inkscape-font-specification:'Eurosoft-Bold Bold';text-align:center;white-space:pre;shape-inside:url(#rect12997);display:inline;fill:#ffffff">
          <path
             d="m -925.05716,-1313.9439 q -0.88,0 -1.44,-0.56 -0.56,-0.56 -0.56,-1.44 v -15 q 0,-3.24 0.52,-5.32 0.56,-2.12 1.76,-3.28 1.2,-1.16 2.8,-1.56 1.64,-0.44 4.12,-0.44 h 10.04 q 0.88,0 1.44,0.56 0.56,0.56 0.56,1.44 v 2.48 q 0,0.88 -0.56,1.44 -0.56,0.56 -1.44,0.56 h -7.76 q -2.6,0 -3.4,0.64 -0.76,0.6 -0.76,2.52 v 1.28 q 0,0.68 0.68,0.68 h 9.24 q 0.88,0 1.44,0.56 0.56,0.56 0.56,1.44 v 2.48 q 0,0.88 -0.56,1.44 -0.56,0.56 -1.44,0.56 h -9.24 q -0.68,0 -0.68,0.68 v 6.84 q 0,0.88 -0.56,1.44 -0.56,0.56 -1.44,0.56 z"
             id="path19204" />
          <path
             d="m -898.41718,-1313.9439 h -3.2 q -0.88,0 -1.44,-0.56 -0.56,-0.56 -0.56,-1.44 v -23.6 q 0,-0.88 0.56,-1.44 0.56,-0.56 1.44,-0.56 h 9.88 q 6.32,0 9.16,2.08 2.84,2.08 2.84,7.12 v 0.64 q 0,2.84 -1.04,4.56 -1.04,1.68 -3.36,2.88 -0.32,0.16 -0.44,0.32 -0.12,0.16 -0.08,0.36 0.04,0.2 0.28,0.56 l 4.32,6.32 q 0.68,0.92 0.32,1.84 -0.36,0.92 -1.48,0.92 h -3.52 q -1.12,0 -1.8,-0.32 -0.68,-0.32 -0.92,-0.64 -0.24,-0.32 -0.84,-1.28 l -3.6,-5.88 q -0.28,-0.52 -0.52,-0.64 -0.24,-0.16 -0.76,-0.16 h -2.56 q -0.4,0 -0.56,0.16 -0.12,0.12 -0.12,0.52 v 6.24 q 0,0.88 -0.56,1.44 -0.56,0.56 -1.44,0.56 z m 2.68,-21.12 q -0.4,0 -0.56,0.16 -0.12,0.12 -0.12,0.52 v 4.72 q 0,0.4 0.12,0.56 0.16,0.12 0.56,0.12 h 3.88 q 2.84,0 3.8,-0.6 1,-0.64 1,-2.36 v -0.16 q 0,-1.72 -1,-2.32 -0.96,-0.64 -3.8,-0.64 z"
             id="path19206" />
          <path
             d="m -871.53716,-1313.9439 h -3.32 q -0.88,0 -1.44,-0.56 -0.56,-0.56 -0.56,-1.44 v -23.6 q 0,-0.88 0.56,-1.44 0.56,-0.56 1.44,-0.56 h 3.32 q 0.88,0 1.44,0.56 0.56,0.56 0.56,1.44 v 23.6 q 0,0.88 -0.56,1.44 -0.56,0.56 -1.44,0.56 z"
             id="path19208" />
          <path
             d="m -865.93713,-1315.9439 v -23.6 q 0,-0.88 0.56,-1.44 0.56,-0.56 1.44,-0.56 h 10.88 q 6,0 8.6,2.72 2.6,2.72 2.6,9.88 v 2.4 q 0,7.16 -2.6,9.88 -2.6,2.72 -8.6,2.72 h -10.88 q -0.88,0 -1.44,-0.56 -0.56,-0.56 -0.56,-1.44 z m 7.88,-19.12 q -0.4,0 -0.56,0.16 -0.12,0.12 -0.12,0.52 v 13.28 q 0,0.4 0.12,0.56 0.16,0.12 0.56,0.12 h 4.88 q 2.4,0 3.2,-1.24 0.8,-1.24 0.8,-5.08 v -2 q 0,-3.84 -0.8,-5.08 -0.8,-1.24 -3.2,-1.24 z"
             id="path19210" />
          <path
             d="m -840.5771,-1316.3039 4.76,-19.92 q 0.72,-3 2.16,-4.24 1.44,-1.28 4.08,-1.28 h 4.28 q 2.64,0 4.08,1.28 1.44,1.24 2.16,4.24 l 4.76,19.92 q 0.24,1.04 -0.2,1.72 -0.44,0.64 -1.6,0.64 h -2.88 q -1.28,0 -1.8,-0.44 -0.48,-0.48 -0.76,-1.6 l -0.8,-3.44 q -0.16,-0.64 -0.76,-0.64 h -8.68 q -0.6,0 -0.76,0.64 l -0.8,3.44 q -0.28,1.12 -0.8,1.6 -0.48,0.44 -1.76,0.44 h -2.88 q -1.16,0 -1.6,-0.64 -0.44,-0.68 -0.2,-1.72 z m 16.16,-10.2 q 0.6,0 0.48,-0.68 l -1.12,-6 q -0.24,-1.32 -0.64,-1.68 -0.4,-0.4 -1.44,-0.4 h -0.6 q -1,0 -1.4,0.4 -0.4,0.36 -0.68,1.68 l -1.12,6 q -0.12,0.68 0.48,0.68 z"
             id="path19212" />
          <path
             d="m -805.01712,-1313.9439 q -0.88,0 -1.44,-0.56 -0.56,-0.56 -0.56,-1.44 v -6 q 0,-0.8 -0.68,-1.12 -1.28,-0.6 -2.08,-1.68 -0.8,-1.08 -1.68,-3.32 l -4.36,-11.12 q -0.4,-1 0,-1.68 0.4,-0.68 1.32,-0.68 h 4 q 1.04,0 1.44,0.44 0.44,0.44 0.8,1.6 l 2.72,8.4 q 0.36,1.2 0.76,1.64 0.44,0.44 1.2,0.44 h 0.44 q 0.76,0 1.16,-0.44 0.44,-0.44 0.8,-1.64 l 2.72,-8.4 q 0.36,-1.16 0.76,-1.6 0.44,-0.44 1.48,-0.44 h 4 q 0.92,0 1.32,0.68 0.4,0.68 0,1.68 l -4.36,11.12 q -0.88,2.24 -1.68,3.32 -0.8,1.08 -2.08,1.68 -0.68,0.32 -0.68,1.12 v 6 q 0,0.88 -0.56,1.44 -0.56,0.56 -1.44,0.56 z"
             id="path19214" />
        </g>
        <g
           aria-label="YELLOW  "
           transform="matrix(0.87772735,0,0,0.87772735,534.82774,797.95302)"
           id="g19230"
           style="font-weight:bold;font-size:40px;line-height:0.85;font-family:Eurosoft-Bold;-inkscape-font-specification:'Eurosoft-Bold Bold';text-align:center;white-space:pre;shape-inside:url(#rect15208);display:inline;fill:none;stroke:#ffbd00;filter:url(#filter15210)">
          <path
             d="m -930.11718,-1313.9439 q -0.88,0 -1.44,-0.56 -0.56,-0.56 -0.56,-1.44 v -6 q 0,-0.8 -0.68,-1.12 -1.28,-0.6 -2.08,-1.68 -0.8,-1.08 -1.68,-3.32 l -4.36,-11.12 q -0.4,-1 0,-1.68 0.4,-0.68 1.32,-0.68 h 4 q 1.04,0 1.44,0.44 0.44,0.44 0.8,1.6 l 2.72,8.4 q 0.36,1.2 0.76,1.64 0.44,0.44 1.2,0.44 h 0.44 q 0.76,0 1.16,-0.44 0.44,-0.44 0.8,-1.64 l 2.72,-8.4 q 0.36,-1.16 0.76,-1.6 0.44,-0.44 1.48,-0.44 h 4 q 0.92,0 1.32,0.68 0.4,0.68 0,1.68 l -4.36,11.12 q -0.88,2.24 -1.68,3.32 -0.8,1.08 -2.08,1.68 -0.68,0.32 -0.68,1.12 v 6 q 0,0.88 -0.56,1.44 -0.56,0.56 -1.44,0.56 z"
             id="path19218" />
          <path
             d="m -914.99722,-1324.8239 v -5.88 q 0,-4.32 1.04,-6.72 1.04,-2.4 2.96,-3.24 1.92,-0.88 5.2,-0.88 h 10.04 q 0.88,0 1.44,0.56 0.56,0.56 0.56,1.44 v 2.48 q 0,0.88 -0.56,1.44 -0.56,0.56 -1.44,0.56 h -7.76 q -2.64,0 -3.4,0.56 -0.76,0.56 -0.76,2.56 v 0.12 q 0,0.4 0.12,0.56 0.16,0.12 0.56,0.12 h 9.64 q 0.88,0 1.44,0.56 0.56,0.56 0.56,1.44 v 2.36 q 0,0.88 -0.56,1.44 -0.56,0.56 -1.44,0.56 h -9.64 q -0.68,0 -0.68,0.68 v 0.12 q 0,2.28 0.72,2.92 0.76,0.64 3.44,0.64 h 7.76 q 0.88,0 1.44,0.56 0.56,0.56 0.56,1.44 v 2.48 q 0,0.88 -0.56,1.44 -0.56,0.56 -1.44,0.56 h -10.04 q -4.92,0 -7.08,-2.28 -2.12,-2.28 -2.12,-8.6 z"
             id="path19220" />
          <path
             d="m -873.7172,-1313.9439 h -8.44 q -4.92,0 -7.08,-2.32 -2.12,-2.36 -2.12,-8.68 v -14.6 q 0,-0.88 0.56,-1.44 0.56,-0.56 1.44,-0.56 h 3.32 q 0.88,0 1.44,0.56 0.56,0.56 0.56,1.44 v 15.64 q 0,2.2 0.72,2.84 0.72,0.64 3.4,0.64 h 6.2 q 0.88,0 1.44,0.56 0.56,0.56 0.56,1.44 v 2.48 q 0,0.88 -0.56,1.44 -0.56,0.56 -1.44,0.56 z"
             id="path19222" />
          <path
             d="m -852.47719,-1313.9439 h -8.44 q -4.92,0 -7.08,-2.32 -2.12,-2.36 -2.12,-8.68 v -14.6 q 0,-0.88 0.56,-1.44 0.56,-0.56 1.44,-0.56 h 3.32 q 0.88,0 1.44,0.56 0.56,0.56 0.56,1.44 v 15.64 q 0,2.2 0.72,2.84 0.72,0.64 3.4,0.64 h 6.2 q 0.88,0 1.44,0.56 0.56,0.56 0.56,1.44 v 2.48 q 0,0.88 -0.56,1.44 -0.56,0.56 -1.44,0.56 z"
             id="path19224" />
          <path
             d="m -838.07719,-1341.7439 q -6,0 -8.6,2.72 -2.6,2.72 -2.6,9.88 v 2.8 q 0,7.16 2.6,9.88 2.6,2.72 8.6,2.72 h 3.2 q 6,0 8.6,-2.72 2.6,-2.72 2.6,-9.88 v -2.8 q 0,-7.16 -2.6,-9.88 -2.6,-2.72 -8.6,-2.72 z m 7.08,12.72 v 2.56 q 0,3.8 -0.8,5.04 -0.76,1.2 -3.16,1.2 h -3.04 q -2.4,0 -3.2,-1.2 -0.76,-1.24 -0.76,-5.04 v -2.56 q 0,-3.8 0.76,-5 0.8,-1.24 3.2,-1.24 h 3.04 q 2.4,0 3.16,1.24 0.8,1.2 0.8,5 z"
             id="path19226" />
          <path
             d="m -802.63716,-1318.9039 -0.8,-11.84 q -0.04,-0.8 -0.2,-1.04 -0.16,-0.28 -0.48,-0.28 h -0.08 q -0.32,0 -0.48,0.28 -0.16,0.24 -0.2,1.04 l -0.8,11.84 q -0.2,3.08 -1.88,4.12 -1.64,1.04 -5.32,1.04 h -0.08 q -3.72,0 -5.24,-1.16 -1.48,-1.2 -1.72,-4.28 l -1.56,-20.08 q -0.08,-1.08 0.48,-1.68 0.56,-0.6 1.48,-0.6 h 3.28 q 0.88,0 1.4,0.56 0.52,0.52 0.6,1.44 l 1,17.2 q 0.08,1.44 0.16,1.8 0.12,0.32 0.52,0.32 h 0.04 q 0.4,0 0.52,-0.36 0.12,-0.36 0.2,-1.76 l 0.88,-11.68 q 0.2,-2.6 1.8,-3.56 1.64,-0.96 4.88,-0.96 h 0.16 q 3.24,0 4.84,0.96 1.64,0.96 1.84,3.56 l 0.88,11.68 q 0.08,1.4 0.2,1.76 0.12,0.36 0.52,0.36 h 0.04 q 0.4,0 0.48,-0.32 0.12,-0.32 0.2,-1.8 l 1,-17.2 q 0.08,-0.92 0.6,-1.44 0.52,-0.56 1.4,-0.56 h 3.28 q 0.92,0 1.48,0.6 0.56,0.6 0.48,1.68 l -1.56,20.08 q -0.24,3.08 -1.76,4.28 -1.48,1.16 -5.2,1.16 h -0.08 q -3.64,0 -5.32,-1.04 -1.68,-1.04 -1.88,-4.12 z"
             id="path19228" />
        </g>
        <g
           aria-label="YELLOW  "
           transform="matrix(0.87772735,0,0,0.87772735,534.82774,797.95302)"
           id="g19244"
           style="font-weight:bold;font-size:40px;line-height:0.85;font-family:Eurosoft-Bold;-inkscape-font-specification:'Eurosoft-Bold Bold';text-align:center;white-space:pre;shape-inside:url(#rect548);display:inline;fill:none;stroke:#ffbd00;filter:url(#filter1106)">
          <path
             d="m -930.11718,-1313.9439 q -0.88,0 -1.44,-0.56 -0.56,-0.56 -0.56,-1.44 v -6 q 0,-0.8 -0.68,-1.12 -1.28,-0.6 -2.08,-1.68 -0.8,-1.08 -1.68,-3.32 l -4.36,-11.12 q -0.4,-1 0,-1.68 0.4,-0.68 1.32,-0.68 h 4 q 1.04,0 1.44,0.44 0.44,0.44 0.8,1.6 l 2.72,8.4 q 0.36,1.2 0.76,1.64 0.44,0.44 1.2,0.44 h 0.44 q 0.76,0 1.16,-0.44 0.44,-0.44 0.8,-1.64 l 2.72,-8.4 q 0.36,-1.16 0.76,-1.6 0.44,-0.44 1.48,-0.44 h 4 q 0.92,0 1.32,0.68 0.4,0.68 0,1.68 l -4.36,11.12 q -0.88,2.24 -1.68,3.32 -0.8,1.08 -2.08,1.68 -0.68,0.32 -0.68,1.12 v 6 q 0,0.88 -0.56,1.44 -0.56,0.56 -1.44,0.56 z"
             id="path19232" />
          <path
             d="m -914.99722,-1324.8239 v -5.88 q 0,-4.32 1.04,-6.72 1.04,-2.4 2.96,-3.24 1.92,-0.88 5.2,-0.88 h 10.04 q 0.88,0 1.44,0.56 0.56,0.56 0.56,1.44 v 2.48 q 0,0.88 -0.56,1.44 -0.56,0.56 -1.44,0.56 h -7.76 q -2.64,0 -3.4,0.56 -0.76,0.56 -0.76,2.56 v 0.12 q 0,0.4 0.12,0.56 0.16,0.12 0.56,0.12 h 9.64 q 0.88,0 1.44,0.56 0.56,0.56 0.56,1.44 v 2.36 q 0,0.88 -0.56,1.44 -0.56,0.56 -1.44,0.56 h -9.64 q -0.68,0 -0.68,0.68 v 0.12 q 0,2.28 0.72,2.92 0.76,0.64 3.44,0.64 h 7.76 q 0.88,0 1.44,0.56 0.56,0.56 0.56,1.44 v 2.48 q 0,0.88 -0.56,1.44 -0.56,0.56 -1.44,0.56 h -10.04 q -4.92,0 -7.08,-2.28 -2.12,-2.28 -2.12,-8.6 z"
             id="path19234" />
          <path
             d="m -873.7172,-1313.9439 h -8.44 q -4.92,0 -7.08,-2.32 -2.12,-2.36 -2.12,-8.68 v -14.6 q 0,-0.88 0.56,-1.44 0.56,-0.56 1.44,-0.56 h 3.32 q 0.88,0 1.44,0.56 0.56,0.56 0.56,1.44 v 15.64 q 0,2.2 0.72,2.84 0.72,0.64 3.4,0.64 h 6.2 q 0.88,0 1.44,0.56 0.56,0.56 0.56,1.44 v 2.48 q 0,0.88 -0.56,1.44 -0.56,0.56 -1.44,0.56 z"
             id="path19236" />
          <path
             d="m -852.47719,-1313.9439 h -8.44 q -4.92,0 -7.08,-2.32 -2.12,-2.36 -2.12,-8.68 v -14.6 q 0,-0.88 0.56,-1.44 0.56,-0.56 1.44,-0.56 h 3.32 q 0.88,0 1.44,0.56 0.56,0.56 0.56,1.44 v 15.64 q 0,2.2 0.72,2.84 0.72,0.64 3.4,0.64 h 6.2 q 0.88,0 1.44,0.56 0.56,0.56 0.56,1.44 v 2.48 q 0,0.88 -0.56,1.44 -0.56,0.56 -1.44,0.56 z"
             id="path19238" />
          <path
             d="m -838.07719,-1341.7439 q -6,0 -8.6,2.72 -2.6,2.72 -2.6,9.88 v 2.8 q 0,7.16 2.6,9.88 2.6,2.72 8.6,2.72 h 3.2 q 6,0 8.6,-2.72 2.6,-2.72 2.6,-9.88 v -2.8 q 0,-7.16 -2.6,-9.88 -2.6,-2.72 -8.6,-2.72 z m 7.08,12.72 v 2.56 q 0,3.8 -0.8,5.04 -0.76,1.2 -3.16,1.2 h -3.04 q -2.4,0 -3.2,-1.2 -0.76,-1.24 -0.76,-5.04 v -2.56 q 0,-3.8 0.76,-5 0.8,-1.24 3.2,-1.24 h 3.04 q 2.4,0 3.16,1.24 0.8,1.2 0.8,5 z"
             id="path19240" />
          <path
             d="m -802.63716,-1318.9039 -0.8,-11.84 q -0.04,-0.8 -0.2,-1.04 -0.16,-0.28 -0.48,-0.28 h -0.08 q -0.32,0 -0.48,0.28 -0.16,0.24 -0.2,1.04 l -0.8,11.84 q -0.2,3.08 -1.88,4.12 -1.64,1.04 -5.32,1.04 h -0.08 q -3.72,0 -5.24,-1.16 -1.48,-1.2 -1.72,-4.28 l -1.56,-20.08 q -0.08,-1.08 0.48,-1.68 0.56,-0.6 1.48,-0.6 h 3.28 q 0.88,0 1.4,0.56 0.52,0.52 0.6,1.44 l 1,17.2 q 0.08,1.44 0.16,1.8 0.12,0.32 0.52,0.32 h 0.04 q 0.4,0 0.52,-0.36 0.12,-0.36 0.2,-1.76 l 0.88,-11.68 q 0.2,-2.6 1.8,-3.56 1.64,-0.96 4.88,-0.96 h 0.16 q 3.24,0 4.84,0.96 1.64,0.96 1.84,3.56 l 0.88,11.68 q 0.08,1.4 0.2,1.76 0.12,0.36 0.52,0.36 h 0.04 q 0.4,0 0.48,-0.32 0.12,-0.32 0.2,-1.8 l 1,-17.2 q 0.08,-0.92 0.6,-1.44 0.52,-0.56 1.4,-0.56 h 3.28 q 0.92,0 1.48,0.6 0.56,0.6 0.48,1.68 l -1.56,20.08 q -0.24,3.08 -1.76,4.28 -1.48,1.16 -5.2,1.16 h -0.08 q -3.64,0 -5.32,-1.04 -1.68,-1.04 -1.88,-4.12 z"
             id="path19242" />
        </g>
        <g
           aria-label="YELLOW  "
           transform="matrix(0.87772735,0,0,0.87772735,534.82774,797.95302)"
           id="g19258"
           style="font-weight:bold;font-size:40px;line-height:0.85;font-family:Eurosoft-Bold;-inkscape-font-specification:'Eurosoft-Bold Bold';text-align:center;white-space:pre;shape-inside:url(#rect1112);display:inline;fill:none;stroke:#ffbd00">
          <path
             d="m -930.11718,-1313.9439 q -0.88,0 -1.44,-0.56 -0.56,-0.56 -0.56,-1.44 v -6 q 0,-0.8 -0.68,-1.12 -1.28,-0.6 -2.08,-1.68 -0.8,-1.08 -1.68,-3.32 l -4.36,-11.12 q -0.4,-1 0,-1.68 0.4,-0.68 1.32,-0.68 h 4 q 1.04,0 1.44,0.44 0.44,0.44 0.8,1.6 l 2.72,8.4 q 0.36,1.2 0.76,1.64 0.44,0.44 1.2,0.44 h 0.44 q 0.76,0 1.16,-0.44 0.44,-0.44 0.8,-1.64 l 2.72,-8.4 q 0.36,-1.16 0.76,-1.6 0.44,-0.44 1.48,-0.44 h 4 q 0.92,0 1.32,0.68 0.4,0.68 0,1.68 l -4.36,11.12 q -0.88,2.24 -1.68,3.32 -0.8,1.08 -2.08,1.68 -0.68,0.32 -0.68,1.12 v 6 q 0,0.88 -0.56,1.44 -0.56,0.56 -1.44,0.56 z"
             id="path19246" />
          <path
             d="m -914.99722,-1324.8239 v -5.88 q 0,-4.32 1.04,-6.72 1.04,-2.4 2.96,-3.24 1.92,-0.88 5.2,-0.88 h 10.04 q 0.88,0 1.44,0.56 0.56,0.56 0.56,1.44 v 2.48 q 0,0.88 -0.56,1.44 -0.56,0.56 -1.44,0.56 h -7.76 q -2.64,0 -3.4,0.56 -0.76,0.56 -0.76,2.56 v 0.12 q 0,0.4 0.12,0.56 0.16,0.12 0.56,0.12 h 9.64 q 0.88,0 1.44,0.56 0.56,0.56 0.56,1.44 v 2.36 q 0,0.88 -0.56,1.44 -0.56,0.56 -1.44,0.56 h -9.64 q -0.68,0 -0.68,0.68 v 0.12 q 0,2.28 0.72,2.92 0.76,0.64 3.44,0.64 h 7.76 q 0.88,0 1.44,0.56 0.56,0.56 0.56,1.44 v 2.48 q 0,0.88 -0.56,1.44 -0.56,0.56 -1.44,0.56 h -10.04 q -4.92,0 -7.08,-2.28 -2.12,-2.28 -2.12,-8.6 z"
             id="path19248" />
          <path
             d="m -873.7172,-1313.9439 h -8.44 q -4.92,0 -7.08,-2.32 -2.12,-2.36 -2.12,-8.68 v -14.6 q 0,-0.88 0.56,-1.44 0.56,-0.56 1.44,-0.56 h 3.32 q 0.88,0 1.44,0.56 0.56,0.56 0.56,1.44 v 15.64 q 0,2.2 0.72,2.84 0.72,0.64 3.4,0.64 h 6.2 q 0.88,0 1.44,0.56 0.56,0.56 0.56,1.44 v 2.48 q 0,0.88 -0.56,1.44 -0.56,0.56 -1.44,0.56 z"
             id="path19250" />
          <path
             d="m -852.47719,-1313.9439 h -8.44 q -4.92,0 -7.08,-2.32 -2.12,-2.36 -2.12,-8.68 v -14.6 q 0,-0.88 0.56,-1.44 0.56,-0.56 1.44,-0.56 h 3.32 q 0.88,0 1.44,0.56 0.56,0.56 0.56,1.44 v 15.64 q 0,2.2 0.72,2.84 0.72,0.64 3.4,0.64 h 6.2 q 0.88,0 1.44,0.56 0.56,0.56 0.56,1.44 v 2.48 q 0,0.88 -0.56,1.44 -0.56,0.56 -1.44,0.56 z"
             id="path19252" />
          <path
             d="m -838.07719,-1341.7439 q -6,0 -8.6,2.72 -2.6,2.72 -2.6,9.88 v 2.8 q 0,7.16 2.6,9.88 2.6,2.72 8.6,2.72 h 3.2 q 6,0 8.6,-2.72 2.6,-2.72 2.6,-9.88 v -2.8 q 0,-7.16 -2.6,-9.88 -2.6,-2.72 -8.6,-2.72 z m 7.08,12.72 v 2.56 q 0,3.8 -0.8,5.04 -0.76,1.2 -3.16,1.2 h -3.04 q -2.4,0 -3.2,-1.2 -0.76,-1.24 -0.76,-5.04 v -2.56 q 0,-3.8 0.76,-5 0.8,-1.24 3.2,-1.24 h 3.04 q 2.4,0 3.16,1.24 0.8,1.2 0.8,5 z"
             id="path19254" />
          <path
             d="m -802.63716,-1318.9039 -0.8,-11.84 q -0.04,-0.8 -0.2,-1.04 -0.16,-0.28 -0.48,-0.28 h -0.08 q -0.32,0 -0.48,0.28 -0.16,0.24 -0.2,1.04 l -0.8,11.84 q -0.2,3.08 -1.88,4.12 -1.64,1.04 -5.32,1.04 h -0.08 q -3.72,0 -5.24,-1.16 -1.48,-1.2 -1.72,-4.28 l -1.56,-20.08 q -0.08,-1.08 0.48,-1.68 0.56,-0.6 1.48,-0.6 h 3.28 q 0.88,0 1.4,0.56 0.52,0.52 0.6,1.44 l 1,17.2 q 0.08,1.44 0.16,1.8 0.12,0.32 0.52,0.32 h 0.04 q 0.4,0 0.52,-0.36 0.12,-0.36 0.2,-1.76 l 0.88,-11.68 q 0.2,-2.6 1.8,-3.56 1.64,-0.96 4.88,-0.96 h 0.16 q 3.24,0 4.84,0.96 1.64,0.96 1.84,3.56 l 0.88,11.68 q 0.08,1.4 0.2,1.76 0.12,0.36 0.52,0.36 h 0.04 q 0.4,0 0.48,-0.32 0.12,-0.32 0.2,-1.8 l 1,-17.2 q 0.08,-0.92 0.6,-1.44 0.52,-0.56 1.4,-0.56 h 3.28 q 0.92,0 1.48,0.6 0.56,0.6 0.48,1.68 l -1.56,20.08 q -0.24,3.08 -1.76,4.28 -1.48,1.16 -5.2,1.16 h -0.08 q -3.64,0 -5.32,-1.04 -1.68,-1.04 -1.88,-4.12 z"
             id="path19256" />
        </g>
      </g>
      <path
         id="path19262"
         style="fill:#ce9901;stroke-width:8.59999;filter:url(#filter14792)"
         transform="matrix(0.62780579,0,0,0.62780579,-42.641851,110.99956)"
         d="m 215.20212,52.578896 h 56.63736 v 2.17041 h -56.63736 z" />
      <g
         id="g19266"
         style="stroke:#ffbd00;stroke-opacity:1"
         transform="matrix(0.62780579,0,0,0.62780579,173.44042,150.40011)">
        <path
           style="fill:#ffffff;fill-opacity:1;stroke:#ffbd00;stroke-width:1.516;stroke-dasharray:none;stroke-opacity:1"
           d="m -128.98437,-9.095052 h 56.637366"
           id="path19264" />
      </g>
      <path
         style="fill:#ffffff;fill-opacity:1;stroke:#ffbd00;stroke-width:0.951754;stroke-dasharray:none;stroke-opacity:1"
         d="M -32.37647,144.69019 H 3.1808"
         id="path19268" />
      <path
         id="path19270"
         style="fill:#ce9901;stroke-width:8.59999;filter:url(#filter14792)"
         transform="matrix(0.62780579,0,0,0.62780579,-42.641851,110.99956)"
         d="m 16.351204,52.578896 h 56.637363 v 2.17041 H 16.351204 Z"
         inkscape:export-filename="..\..\assets\banner\yellow-friday.png"
         inkscape:export-xdpi="96"
         inkscape:export-ydpi="96" />
    </g>
  </g>
</svg>
